<svg xmlns="http://www.w3.org/2000/svg" xmlns:xlink="http://www.w3.org/1999/xlink" width="82" height="82" viewBox="0 0 82 82">
  <defs>
    <filter id="パス_12809" x="0" y="0" width="82" height="82" filterUnits="userSpaceOnUse">
      <feOffset dx="2" dy="2" input="SourceAlpha"/>
      <feGaussianBlur stdDeviation="3" result="blur"/>
      <feFlood flood-opacity="0.161"/>
      <feComposite operator="in" in2="blur"/>
      <feComposite in="SourceGraphic"/>
    </filter>
  </defs>
  <g id="グループ_3158" data-name="グループ 3158" transform="translate(-1761 -415)">
    <g transform="matrix(1, 0, 0, 1, 1761, 415)" filter="url(#パス_12809)">
      <path id="パス_12809-2" data-name="パス 12809" d="M32,0A32,32,0,1,1,0,32,32,32,0,0,1,32,0Z" transform="translate(7 7)" fill="#f9f9fc"/>
    </g>
    <g id="コーリングアイコン" transform="translate(1782 436)">
      <path id="パス_12800" data-name="パス 12800" d="M30.779,110.512a1.624,1.624,0,0,1,0-2.3l4.367-4.367a1.625,1.625,0,0,1,2.3,0l1.448,1.449-6.665,6.664Z" transform="translate(-5.023 -96.104)" fill="#233060"/>
      <path id="パス_12801" data-name="パス 12801" d="M8.557,159.809a36.639,36.639,0,0,0,4.992-4.347,36.6,36.6,0,0,0,4.347-4.993,1.621,1.621,0,0,0,.085-1.86l6.7-6.7.4.4c2.791,2.791-.9,11.347-7.115,17.561S3.192,169.782.4,166.99l-.4-.4,6.7-6.7A1.623,1.623,0,0,0,8.557,159.809Z" transform="translate(9.978 -131.936)" fill="#233060"/>
      <path id="パス_12802" data-name="パス 12802" d="M291.309,360.009a1.625,1.625,0,0,1,2.3,0l1.448,1.448-6.665,6.665-1.448-1.448a1.624,1.624,0,0,1,0-2.3Z" transform="translate(-279.198 -334.254)" fill="#233060"/>
      <path id="パス_12803" data-name="パス 12803" d="M243.771,164.607l-1.749-.278a9.275,9.275,0,0,1,7.691-7.691l.279,1.749a7.507,7.507,0,0,0-6.22,6.22Z" transform="translate(-231.009 -145.625)" fill="#ffeb00"/>
      <path id="パス_12804" data-name="パス 12804" d="M266.77,78.247,267.045,80a13.047,13.047,0,0,0-10.858,10.858l-1.75-.275A14.819,14.819,0,0,1,266.77,78.247Z" transform="translate(-248.935 -72.746)" fill="#ffeb00"/>
      <path id="パス_12805" data-name="パス 12805" d="M272.525,5.734A20.333,20.333,0,0,1,283.762.006l.276,1.75a18.644,18.644,0,0,0-15.49,15.49l-1.751-.276A20.334,20.334,0,0,1,272.525,5.734Z" transform="translate(-266.797 -0.006)" fill="#ffeb00"/>
    </g>
  </g>
</svg>
