<svg xmlns="http://www.w3.org/2000/svg" width="164.885" height="241.415" viewBox="0 0 164.885 241.415">
  <g id="グループ_2214" data-name="グループ 2214" transform="translate(-449.848 -11845.566)">
    <path id="パス_72" data-name="パス 72" d="M19.945,118.875V90.6H37.572v4.9H25.114v6.672h8.438V107.3H25.114v6.67H37.572v4.9Z" transform="translate(430.084 11888.612)" fill="#fff"/>
    <path id="パス_73" data-name="パス 73" d="M51.959,95.5H44.625v23.373H39.5V95.5l-7.334.043V90.6H51.959Z" transform="translate(440.536 11888.611)" fill="#fff"/>
    <path id="パス_74" data-name="パス 74" d="M63.379,118.875H58.252V107.3H50.92v11.573H45.794V90.6H50.92v11.573h7.332V90.6h5.126Z" transform="translate(452.193 11888.612)" fill="#fff"/>
    <rect id="長方形_4537" data-name="長方形 4537" width="5.126" height="28.275" transform="translate(521.965 11979.212)" fill="#fff"/>
    <path id="パス_75" data-name="パス 75" d="M78.418,118.875H68.431L64.9,115.342V94.134L68.431,90.6h9.987l3.531,3.534V95.5H70.023v18.47H81.949v1.371Z" transform="translate(468.534 11888.612)" fill="#fff"/>
    <path id="パス_76" data-name="パス 76" d="M92.366,118.876l-1.991-6.937H83.307l-1.768,6.937H76.414L84.5,90.6h4.683l8.128,28.277ZM86.843,98.818l-2.21,8.483h4.373Z" transform="translate(478.383 11888.612)" fill="#fff"/>
    <path id="パス_77" data-name="パス 77" d="M90.512,118.875V90.6h5.126v23.371h11.355v4.9Z" transform="translate(490.441 11888.612)" fill="#fff"/>
    <path id="パス_78" data-name="パス 78" d="M33.077,138.9l-8.085-16.039.043,16.039h-5.08V110.624h4.462L32.5,126.66V110.624H37.54V138.9Z" transform="translate(430.092 11905.739)" fill="#fff"/>
    <path id="パス_79" data-name="パス 79" d="M47.652,138.9H37.137L33.6,135.367V114.158l3.534-3.534H47.652l3.536,3.534v21.208Zm-1.59-23.373H38.727V134h7.334Z" transform="translate(441.766 11905.739)" fill="#fff"/>
    <path id="パス_80" data-name="パス 80" d="M60.017,138.9l-4.239-10.915h-3.4V138.9H47.251V110.624H61.3l3.536,3.534v10.293L61.3,127.986,65.719,138.9Zm-.308-23.373H52.374v7.334h7.336Z" transform="translate(453.439 11905.739)" fill="#fff"/>
    <path id="パス_81" data-name="パス 81" d="M81.627,138.9h-4.95l-.043-14.8L72.568,134.22H70.005L65.94,124.1v14.8H60.948V110.624h4.683l5.657,14.008,5.655-14.008h4.685Z" transform="translate(465.154 11905.739)" fill="#fff"/>
    <path id="パス_82" data-name="パス 82" d="M91.614,138.9l-1.987-6.937H82.557L80.79,138.9H75.666l8.084-28.277h4.683l8.13,28.277Zm-5.523-20.062-2.21,8.484h4.377Z" transform="translate(477.743 11905.739)" fill="#fff"/>
    <path id="パス_83" data-name="パス 83" d="M90.5,138.9V110.624h5.124V134h11.355v4.9Z" transform="translate(490.433 11905.739)" fill="#fff"/>
    <path id="パス_84" data-name="パス 84" d="M108.249,131.408a6.012,6.012,0,1,1,6.019-6.013,6.022,6.022,0,0,1-6.019,6.013m0-11.084a5.072,5.072,0,1,0,5.08,5.071,5.084,5.084,0,0,0-5.08-5.071" transform="translate(500.466 11913.232)" fill="#fff"/>
    <path id="パス_85" data-name="パス 85" d="M104.348,120.885h.905v6.464h-.905Zm.4,2.87h2.206a.846.846,0,0,0,.46-.124.822.822,0,0,0,.308-.354,1.213,1.213,0,0,0,.109-.525,1.238,1.238,0,0,0-.109-.531.812.812,0,0,0-.308-.351.869.869,0,0,0-.46-.122h-2.206v-.863h2.171a2.021,2.021,0,0,1,.987.232,1.618,1.618,0,0,1,.657.655,1.988,1.988,0,0,1,.236.98,1.953,1.953,0,0,1-.239.978,1.65,1.65,0,0,1-.659.657,2.035,2.035,0,0,1-.981.23h-2.171Zm1.761.661.905-.2,1.655,3.137h-1.078Z" transform="translate(502.276 11914.516)" fill="#fff"/>
    <path id="パス_86" data-name="パス 86" d="M24.647,143.237c.028.119-.032.206-.178.267a2.949,2.949,0,0,0,.132,1.288,12.453,12.453,0,0,0,2.358-.442l.354,1.2a17.292,17.292,0,0,1-2.312.4c.119.267.237.532.356.8a11.826,11.826,0,0,0,2.844-.668l.445,1.289c-1.128.236-1.985.4-2.579.488a10.645,10.645,0,0,0,1.6,1.557l-.933.931a9.9,9.9,0,0,0-1.425-.265,10.334,10.334,0,0,0-1.33-.089c-.388,0-.727.017-1.024.046a1.677,1.677,0,0,0-.844.265.763.763,0,0,0-.312.666q0,.98,1.913.978h3.022l-.178,1.245H23.135a2.765,2.765,0,0,1-2.045-.755,1.908,1.908,0,0,1-.622-1.377A1.765,1.765,0,0,1,21,149.769a2.8,2.8,0,0,1,.889-.579,7.63,7.63,0,0,1,3.468-.265c-.15-.206-.341-.488-.579-.844q-2.443.223-4.8.267l-.132-1.288a28.783,28.783,0,0,0,4.221-.135c-.087-.267-.193-.534-.31-.8a32.5,32.5,0,0,1-3.557.134l-.087-1.247a20.219,20.219,0,0,0,3.243-.043c-.119-.62-.223-1.243-.312-1.866h1.109c.327,0,.492.045.492.134" transform="translate(430 11933.521)" fill="#fff"/>
    <path id="パス_87" data-name="パス 87" d="M29.7,143.237a.366.366,0,0,1-.134.221v2.135l.668.488-.312.356c-.119.176-.237.34-.356.488v.178c1.156-1.186,2.191-1.761,3.111-1.735a1.474,1.474,0,0,1,.978.445,1.241,1.241,0,0,1,.312,1.2q-.181,1.645-.312,3.423c-.028.566.135.874.49.933s.681-.206.976-.8l.4-.757.978.8-.443.8a2.177,2.177,0,0,1-1.957,1.243,1.615,1.615,0,0,1-1.2-.443,1.743,1.743,0,0,1-.488-1.288,20.96,20.96,0,0,1,.132-2.314,11.714,11.714,0,0,1,.134-1.332c.059-.5-.163-.7-.666-.579a3.576,3.576,0,0,0-1.111.668,10.877,10.877,0,0,0-1.334,1.2v4.711H28.324V149.9q-1.021,1.422-1.733,2.221l-.933-.935a28.61,28.61,0,0,0,2.666-3.332v-.844q-.932.356-1.911.622l-.4-1.288c.8-.147,1.57-.325,2.312-.534V143.1h1.067c.178,0,.28.045.312.134" transform="translate(434.97 11933.521)" fill="#fff"/>
    <path id="パス_88" data-name="パス 88" d="M34.421,144.255c.032.087-.045.178-.224.265a26.542,26.542,0,0,0-.221,2.891,10.2,10.2,0,0,0,.221,2.622c.091.417.256.64.492.666.236,0,.488-.249.755-.753l.532-1.111,1.111.842a13.726,13.726,0,0,1-.664,1.468,1.819,1.819,0,0,1-1.646,1.067q-2.09-.223-2.089-4.4,0-2.268.178-4.132l1.2.308a.431.431,0,0,1,.354.267m6.223,5.733a10.033,10.033,0,0,0-.577-2.4,9.518,9.518,0,0,0-1.555-2.533l.978-.714a9.128,9.128,0,0,1,1.82,2.581,8.86,8.86,0,0,1,.8,2.711Z" transform="translate(440.983 11934.013)" fill="#fff"/>
    <path id="パス_89" data-name="パス 89" d="M46.8,151.153v1.334H41.374q-2.535,0-2.267-2.443c.059-.3.147-.636.265-1.024l1.336.314A2.076,2.076,0,0,0,40.4,150.4c0,.5.384.753,1.156.753Zm-1.245-6.533a.43.43,0,0,0-.176-.087l.532-.668a12.113,12.113,0,0,1,1.911,1.288l-.577.711a11.876,11.876,0,0,0-1.334-1.022V146H39.774v-1.334h5.867a.141.141,0,0,0-.091-.043m2.891-.49-.579.757a5.269,5.269,0,0,0-.976-.8l-.98-.534.579-.666a8.465,8.465,0,0,1,1.956,1.243" transform="translate(446.452 11933.335)" fill="#fff"/>
    <path id="パス_90" data-name="パス 90" d="M48.574,143.5c.028.087-.033.178-.178.265q.042,1.776.178,3.421a24.63,24.63,0,0,1,3.33-.933l.4,1.291a11.326,11.326,0,0,0-4.354,1.2q-1.731.891-1.733,1.733a.918.918,0,0,0,.353.844,2.164,2.164,0,0,0,1.071.178h4.575l-.089,1.245H47.461a2.6,2.6,0,0,1-1.909-.623,2.146,2.146,0,0,1-.622-1.6,2.287,2.287,0,0,1,.753-1.642,6.276,6.276,0,0,1,1.644-1.156,13.613,13.613,0,0,1-.176-2c-.03-.891-.043-1.688-.043-2.4h1.019c.269,0,.414.061.447.18" transform="translate(451.454 11933.704)" fill="#fff"/>
    <path id="パス_91" data-name="パス 91" d="M59.37,145.08a5.818,5.818,0,0,0-2.223.132,4.775,4.775,0,0,0-2.089,1.067,2.919,2.919,0,0,0-.889,2.135,2.339,2.339,0,0,0,.666,1.731q.891.893,3.512.98l-.354,1.332a11.262,11.262,0,0,1-1.379-.176,9.809,9.809,0,0,1-1.466-.4,3.276,3.276,0,0,1-1.69-1.332,3.425,3.425,0,0,1-.534-1.779,4.1,4.1,0,0,1,.225-1.646,3.4,3.4,0,0,1,1.065-1.51q-1.645.223-3.866.579l-.267-1.423a87.474,87.474,0,0,0,9.111-1.065Zm-.532,2.755-.623.712a12.211,12.211,0,0,0-1.866-1.289l.623-.668a14.3,14.3,0,0,1,1.866,1.245m.889-1.067-.623.712c-.62-.445-1.243-.876-1.865-1.289l.577-.668a21.38,21.38,0,0,1,1.911,1.245" transform="translate(455.859 11934.033)" fill="#fff"/>
    <path id="パス_92" data-name="パス 92" d="M63.775,143.237c.03.119-.03.206-.178.267a2.9,2.9,0,0,0,.134,1.288,12.428,12.428,0,0,0,2.356-.442l.354,1.2a17.292,17.292,0,0,1-2.312.4c.119.267.237.532.356.8a11.825,11.825,0,0,0,2.844-.668l.445,1.289q-1.692.353-2.579.488a10.733,10.733,0,0,0,1.6,1.557l-.935.931a9.82,9.82,0,0,0-1.421-.265,10.391,10.391,0,0,0-1.334-.089c-.386,0-.727.017-1.022.046a1.671,1.671,0,0,0-.844.265.763.763,0,0,0-.312.666q0,.98,1.913.978h3.02l-.176,1.245H62.264a2.767,2.767,0,0,1-2.046-.755,1.911,1.911,0,0,1-.623-1.377,1.759,1.759,0,0,1,.534-1.291,2.783,2.783,0,0,1,.889-.579,7.636,7.636,0,0,1,3.468-.265q-.223-.309-.577-.844-2.446.223-4.8.267l-.132-1.288a28.808,28.808,0,0,0,4.223-.135q-.134-.4-.312-.8a32.459,32.459,0,0,1-3.555.134l-.089-1.247a20.237,20.237,0,0,0,3.245-.043c-.119-.62-.221-1.243-.31-1.866h1.109q.49,0,.49.134" transform="translate(463.465 11933.521)" fill="#fff"/>
    <path id="パス_93" data-name="パス 93" d="M68.829,143.237a.356.356,0,0,1-.13.221v2.135l.662.488-.308.356c-.119.176-.239.34-.354.488v.178c1.152-1.186,2.189-1.761,3.108-1.735a1.482,1.482,0,0,1,.98.445,1.25,1.25,0,0,1,.312,1.2c-.121,1.1-.221,2.238-.312,3.423-.03.566.134.874.488.933s.681-.206.98-.8l.4-.757.978.8-.445.8a2.175,2.175,0,0,1-1.954,1.243,1.613,1.613,0,0,1-1.2-.443,1.73,1.73,0,0,1-.49-1.288,20.973,20.973,0,0,1,.134-2.314,13.125,13.125,0,0,1,.132-1.332c.059-.5-.161-.7-.666-.579a3.644,3.644,0,0,0-1.113.668,10.793,10.793,0,0,0-1.328,1.2v4.711H67.452V149.9q-1.027,1.422-1.735,2.221l-.931-.935a28.813,28.813,0,0,0,2.666-3.332v-.844q-.935.356-1.911.622l-.4-1.288c.8-.147,1.568-.325,2.312-.534V143.1h1.069c.178,0,.278.045.308.134" transform="translate(468.437 11933.521)" fill="#fff"/>
    <path id="パス_94" data-name="パス 94" d="M73.549,144.255c.03.087-.045.178-.223.265a25.611,25.611,0,0,0-.223,2.891,10.114,10.114,0,0,0,.223,2.622q.134.626.49.666c.237,0,.488-.249.755-.753l.532-1.111,1.115.842a14.1,14.1,0,0,1-.668,1.468,1.823,1.823,0,0,1-1.646,1.067q-2.09-.223-2.091-4.4,0-2.268.178-4.132l1.2.308a.434.434,0,0,1,.356.267m6.225,5.733a10.311,10.311,0,0,0-.579-2.4,9.48,9.48,0,0,0-1.557-2.533l.978-.714a9.1,9.1,0,0,1,1.822,2.581,8.911,8.911,0,0,1,.8,2.711Z" transform="translate(474.449 11934.013)" fill="#fff"/>
    <path id="パス_95" data-name="パス 95" d="M80.289,144c.03.091-.061.15-.265.178a30.14,30.14,0,0,0-.267,8.312l-1.377.089a32.885,32.885,0,0,1,.354-9.111l1.111.267c.267.061.416.148.443.265m7.291,6.4v1.338H84.291a3.1,3.1,0,0,1-1.555-.4,5.963,5.963,0,0,1-1.425-1.065l.8-.935a4.663,4.663,0,0,0,1.02.8,2.823,2.823,0,0,0,1.334.263Zm-.623-4.31a31.649,31.649,0,0,0-5.332.267v-1.289a41.042,41.042,0,0,1,5.332-.265Z" transform="translate(479.929 11933.828)" fill="#fff"/>
    <path id="パス_96" data-name="パス 96" d="M86.226,143.669c.026.087-.033.178-.18.265v6.178a1.461,1.461,0,0,0,.358,1.02,1.859,1.859,0,0,0,1.377.358,5,5,0,0,0,3.423-1.956l.933,1.022a6.231,6.231,0,0,1-4.226,2.267,3.3,3.3,0,0,1-2.263-.579,2.327,2.327,0,0,1-.933-1.957v-6.753H85.87c.2,0,.323.043.356.134" transform="translate(485.482 11933.89)" fill="#fff"/>
    <path id="パス_97" data-name="パス 97" d="M94.722,143.478c.028.115-.03.206-.178.263.058.447.1.831.134,1.156.028.3.045.622.045.98a10.879,10.879,0,0,0,3.289-.312V146.9a23.7,23.7,0,0,1-3.2.265c0,.416.011.829.043,1.245v.978c.62.178,1.273.4,1.956.668a15.913,15.913,0,0,1,1.911.931l-.8,1.158a11.464,11.464,0,0,0-3.108-1.466,2.994,2.994,0,0,1-.759,1.686,2.531,2.531,0,0,1-1.865.623,2.3,2.3,0,0,1-1.692-.579,1.829,1.829,0,0,1-.573-1.334,1.929,1.929,0,0,1,.573-1.419q.757-.757,3.024-.494c0-.711-.017-1.583-.043-2.62a29.9,29.9,0,0,0-.269-3.2h1.156a.4.4,0,0,1,.356.134M91.388,150.5a.82.82,0,0,0-.269.579c0,.475.4.711,1.2.711a1.067,1.067,0,0,0,.8-.312,1.8,1.8,0,0,0,.4-1.065,5.275,5.275,0,0,0-1.289-.134,1.22,1.22,0,0,0-.844.221" transform="translate(489.938 11933.726)" fill="#fff"/>
    <path id="パス_98" data-name="パス 98" d="M102.02,146.837a2.345,2.345,0,0,1,.668,1.735,6.165,6.165,0,0,1-.265,1.866,3.155,3.155,0,0,1-1.156,1.6,11.387,11.387,0,0,1-1.379.842,6.353,6.353,0,0,1-1.512.579l-.889-1.245a6.962,6.962,0,0,0,3.065-1.332,2.881,2.881,0,0,0,.8-2.134,1.386,1.386,0,0,0-.354-1.022,1.088,1.088,0,0,0-.8-.312,6.611,6.611,0,0,0-1.688.265q-1.422.4-2.178.668l-.577-1.512a16.748,16.748,0,0,0,2.4-.356,10.518,10.518,0,0,1,2.091-.312,2.4,2.4,0,0,1,1.776.668m-.354-1.6a13.921,13.921,0,0,1-2.221-.269,15.3,15.3,0,0,1-2.356-.666l.31-1.2c.594.176,1.289.371,2.089.579a11.032,11.032,0,0,0,2.49.265Z" transform="translate(494.926 11933.521)" fill="#fff"/>
    <rect id="長方形_4538" data-name="長方形 4538" width="147.255" height="4.174" transform="translate(450.103 12067.251)" fill="#fff"/>
    <path id="パス_99" data-name="パス 99" d="M26.491,138.7v-3.364H22.12V138.7H20.538v-8.032H22.12v3.039h4.371v-3.039h1.583V138.7Z" transform="translate(430.591 11922.888)" fill="#fff"/>
    <path id="パス_100" data-name="パス 100" d="M31.547,139.091c-2.525,0-4.913-1.6-4.913-4.314s2.434-4.247,4.93-4.247c2.529,0,4.946,1.427,4.946,4.2,0,2.729-2.417,4.36-4.963,4.36m.033-6.918c-1.614,0-3.319.809-3.319,2.636S30,137.446,31.6,137.446c1.579,0,3.286-.946,3.286-2.7,0-1.8-1.735-2.573-3.3-2.573" transform="translate(435.805 11922.767)" fill="#fff"/>
    <path id="パス_101" data-name="パス 101" d="M41.081,137.7a4.338,4.338,0,0,1-3.364,1.273c-2.236,0-3.785-1.043-3.785-3.414v-4.883h1.6v4.883c0,1.644,1.052,1.783,2.419,1.783a3.367,3.367,0,0,0,1.549-.356c.449-.251.6-.559.6-1.427v-4.883h1.583v4.883a3.038,3.038,0,0,1-.6,2.141" transform="translate(442.047 11922.888)" fill="#fff"/>
    <path id="パス_102" data-name="パス 102" d="M44.393,139.1a6.424,6.424,0,0,1-4.512-1.425l.746-1.442a6.622,6.622,0,0,0,4.293,1.243c.7,0,2.017-.221,2.017-1.148,0-.653-.7-.776-1.21-.809-.807-.045-1.6-.03-2.4-.059-1.471-.063-2.93-.792-2.93-2.466,0-2.015,2.154-2.464,3.768-2.464a7.56,7.56,0,0,1,3.874,1.054l-.727,1.427a7.2,7.2,0,0,0-3.534-.887c-.573,0-1.77.156-1.77.931,0,.653.948.759,1.429.776.7.032,1.4.015,2.091.048,1.614.061,3.041.7,3.041,2.525,0,2.234-2.4,2.7-4.171,2.7" transform="translate(447.136 11922.767)" fill="#fff"/>
    <path id="パス_103" data-name="パス 103" d="M46.448,138.7v-8.032h7.1v1.612H48.03v1.473h2.913v1.6H48.03v1.738h5.705V138.7Z" transform="translate(452.752 11922.888)" fill="#fff"/>
    <path id="パス_104" data-name="パス 104" d="M59.719,139.09c-2.527,0-4.944-1.414-4.944-4.189,0-2.681,2.232-4.369,4.79-4.369a6.176,6.176,0,0,1,4.108,1.549l-.944,1.41a4.583,4.583,0,0,0-3.195-1.319c-1.52,0-3.147,1.007-3.147,2.668,0,1.722,1.688,2.638,3.223,2.638a5.388,5.388,0,0,0,3.473-1.135l.729,1.49a6.352,6.352,0,0,1-4.093,1.258" transform="translate(459.875 11922.767)" fill="#fff"/>
    <path id="パス_105" data-name="パス 105" d="M61.447,138.7v-8.032h1.659v6.386h4.573V138.7Z" transform="translate(465.581 11922.888)" fill="#fff"/>
    <path id="パス_106" data-name="パス 106" d="M66.377,138.7v-8.032h7.1v1.612H67.961v1.473h2.917v1.6H67.961v1.738h5.7V138.7Z" transform="translate(469.798 11922.888)" fill="#fff"/>
    <path id="パス_107" data-name="パス 107" d="M79.593,138.7l-.807-1.692h-4.7l-.807,1.692H71.452l3.892-8.032h2.137l3.937,8.032Zm-3.163-6.466-1.551,3.178h3.1Z" transform="translate(474.139 11922.888)" fill="#fff"/>
    <path id="パス_108" data-name="パス 108" d="M84.465,138.7,80,133.261V138.7H78.4v-8.032H80l4.468,5.427v-5.427h1.594V138.7Z" transform="translate(480.083 11922.888)" fill="#fff"/>
    <rect id="長方形_4539" data-name="長方形 4539" width="1.581" height="8.032" transform="translate(570.56 12053.561)" fill="#fff"/>
    <path id="パス_109" data-name="パス 109" d="M94.116,138.7l-4.468-5.444V138.7h-1.6v-8.032h1.6l4.468,5.427v-5.427H95.71V138.7Z" transform="translate(488.337 11922.888)" fill="#fff"/>
    <path id="パス_110" data-name="パス 110" d="M98.938,139.09c-2.542,0-4.868-1.536-4.868-4.282,0-2.712,2.308-4.277,4.837-4.277a7.2,7.2,0,0,1,3.783,1.02l-.944,1.614a4.956,4.956,0,0,0-2.915-1.007c-1.583,0-3.13.9-3.13,2.635s1.455,2.651,3.052,2.651a4.293,4.293,0,0,0,2.451-.727v-.963h-1.97v-1.5h3.612v3.38a5.6,5.6,0,0,1-3.907,1.458" transform="translate(493.485 11922.767)" fill="#fff"/>
    <path id="パス_111" data-name="パス 111" d="M111.325,81.05c-29.78,2.147-54.595-16.974-59.56-21a13.889,13.889,0,0,0-8.894-3.206l0-.013c-5.189-.174-8.18,1.432-10.306,3.278-2.4,2.084-3.6,4.635-4.948,7.188a48.415,48.415,0,0,0-3.1,6.2c-.9,2.369-2.167,5.2-2.377,7.644a35.743,35.743,0,0,0,4.134-3.763s-2.3,6.3-2.091,8.232a22.923,22.923,0,0,0,4.983-6.5s.024,1.954.289,4.325c3.959-4.148,8.275-16.247,8.275-16.247s.672,2.675.792,3.837c.905-.4,1.787-5.9,1.787-5.9a4.14,4.14,0,0,1,2.36-1.529c-.549,4.566-1.108,11.16-.371,14.243,1.408-1.905,2.4-3.57,2.4-3.57a23.411,23.411,0,0,0,1.059,8.175c1.139-1.555,2.3-8.176,2.3-8.176a36.726,36.726,0,0,0,1.685,5.38,49.223,49.223,0,0,0,2.2-7.254,35.1,35.1,0,0,0,.727-6.818c7.49,6.1,31.733,21.824,59.259,16.637,1.779-.549,2.1-1.425-.594-1.165" transform="translate(431.956 11859.721)" fill="#fff"/>
    <path id="パス_112" data-name="パス 112" d="M133.486,127.268c-2-3.674-3.169-7.72-4.534-10.917a24.069,24.069,0,0,0-1.479-3.6c-2.555-.844-8.646,2.583-6.946,9.18,0,0-7.636-2.03-4.7-10.375,1.443-4.106,4.987-5.219,8.722-5.132-2.512-4.141-5.8-5.722-8.577-8.022-1.6-4.7-6.174-9.047-5.282-15.679.367-3.453.961-7.325,1.894-9.4,1.928-4.3,13.358-26.986,9.419-42.335,0,0-3.3-13.327-10.356-12.371-2.455.328.165,9.1-8.709,23.891C97.6,49.96,98.044,54.292,96.968,56.56a18.806,18.806,0,0,1-3.635,4.616,23.873,23.873,0,0,1,2.113,8.236c-8.106-9.379-15.3-12.8-15.3-12.8C69.7,40.305,54.422,32.045,48.88,31.229s-1.406,3.315-.353,4.1C65.247,43.5,82.669,62,83.086,78.571c0,0,.417,2.9-1.5,3.195-3.045.928-13.919-2.831-15.609.519-3.13,5.341,11.351,8.178,17.178,11.85,7.162,4.5,11.249,4.815,13.4,18.8,0,0,2.249.6,6.258,5.922,3.4,4.512,12.62,11.141,20.794,12.857s15.425,10.021,16.494,8.961-4.607-9.729-6.612-13.4" transform="translate(452.415 11827)" fill="#fff"/>
    <path id="パス_113" data-name="パス 113" d="M27.739,73.411C34,65.566,49.2,58.6,53.782,57.513a85.605,85.605,0,0,1,27.425-1.764,10.985,10.985,0,0,1-5.419-8.277c-.963-6.182,1.366-6.026-.872-9.227-21.848-.02-36.873,14.178-42.971,25.9-1.191,2.289-6.822,5.714-6.9,7.4-.072,1.475,1.545,3.306,2.7,1.866" transform="translate(434.441 11843.833)" fill="#fff"/>
  </g>
</svg>
