<svg xmlns="http://www.w3.org/2000/svg" xmlns:xlink="http://www.w3.org/1999/xlink" width="369" height="46.366" viewBox="0 0 369 46.366">
  <defs>
    <clipPath id="clip-path">
      <rect id="長方形_31" data-name="長方形 31" width="122.941" height="46.366" transform="translate(0 0)" fill="none"/>
    </clipPath>
  </defs>
  <g id="グループ_2299" data-name="グループ 2299" transform="translate(-60 -60)">
    <g id="グループ_94" data-name="グループ 94" transform="translate(60 60)">
      <path id="パス_3" data-name="パス 3" d="M0,5.807V17.7H7.411V15.634H2.173V12.828H5.72V10.674H2.173V7.869H7.411V5.807Z" fill="#233060"/>
      <path id="パス_4" data-name="パス 4" d="M17.854,7.869H14.771V17.7H12.616V7.869l-3.083.018V5.806h8.321Z" fill="#233060"/>
      <path id="パス_5" data-name="パス 5" d="M27.557,17.7H25.4V12.828H22.319V17.7H20.164V5.806h2.155v4.868H25.4V5.806h2.156Z" fill="#233060"/>
      <rect id="長方形_29" data-name="長方形 29" width="2.154" height="11.889" transform="translate(30.244 5.807)" fill="#233060"/>
      <path id="パス_6" data-name="パス 6" d="M40.748,17.7h-4.2l-1.487-1.486V7.293l1.487-1.487h4.2l1.484,1.487v.576H37.219v7.765h5.013v.575Z" fill="#233060"/>
      <path id="パス_7" data-name="パス 7" d="M50.754,17.7l-.838-2.917h-2.97L46.2,17.7H44.047l3.4-11.889h1.969L52.833,17.7ZM48.431,9.262,47.5,12.828h1.839Z" fill="#233060"/>
      <path id="パス_8" data-name="パス 8" d="M55.043,17.7V5.806H57.2v9.828h4.777V17.7Z" fill="#233060"/>
      <path id="パス_9" data-name="パス 9" d="M5.284,21.426v6.743l-3.4-6.743H.01V33.315H2.145l-.019-6.742,3.4,6.742H7.4V21.426Z" fill="#233060"/>
      <path id="パス_10" data-name="パス 10" d="M16.561,33.315h-4.42l-1.487-1.486V22.913l1.487-1.487h4.42l1.486,1.487v8.916Zm-.668-9.826H12.809v7.766h3.084Z" fill="#233060"/>
      <path id="パス_11" data-name="パス 11" d="M26.668,33.315l-1.783-4.588H23.453v4.588H21.3V21.426H27.2l1.486,1.487v4.328L27.2,28.727l1.859,4.588Zm-.131-9.826H23.453v3.084h3.084Z" fill="#233060"/>
      <path id="パス_12" data-name="パス 12" d="M40.677,33.314H38.6l-.018-6.223-1.71,4.254H35.791l-1.709-4.254v6.223h-2.1V21.425h1.968l2.377,5.889,2.377-5.889h1.97Z" fill="#233060"/>
      <path id="パス_13" data-name="パス 13" d="M50.168,33.315,49.332,30.4H46.36l-.743,2.916H43.463l3.4-11.889h1.969l3.417,11.889Zm-2.322-8.434-.928,3.566h1.838Z" fill="#233060"/>
      <path id="パス_14" data-name="パス 14" d="M55.035,33.314V21.425h2.154v9.828h4.777v2.061Z" fill="#233060"/>
      <path id="パス_15" data-name="パス 15" d="M2.966,37.064v1.278H1.128V37.064H.462v3.378h.666V39.027H2.966v1.415H3.63V37.064Z" fill="#233060"/>
      <g id="グループ_93" data-name="グループ 93">
        <g id="グループ_92" data-name="グループ 92" clip-path="url(#clip-path)">
          <path id="パス_16" data-name="パス 16" d="M7.283,40.551a1.816,1.816,0,1,1,.008-3.6,1.867,1.867,0,0,1,2.078,1.767,1.932,1.932,0,0,1-2.086,1.83M7.3,37.643c-.678,0-1.395.342-1.395,1.109s.731,1.11,1.4,1.11a1.261,1.261,0,0,0,1.381-1.135c0-.756-.731-1.084-1.389-1.084" fill="#233060"/>
          <path id="パス_17" data-name="パス 17" d="M13.916,40.018a1.83,1.83,0,0,1-1.414.533c-.94,0-1.592-.435-1.592-1.433V37.065h.672v2.053c0,.691.443.748,1.018.748a1.41,1.41,0,0,0,.651-.149c.188-.1.254-.234.254-.6V37.065h.665v2.053a1.275,1.275,0,0,1-.254.9" fill="#233060"/>
          <path id="パス_18" data-name="パス 18" d="M17.449,40.559a2.7,2.7,0,0,1-1.9-.6l.313-.607a2.778,2.778,0,0,0,1.805.521c.293,0,.847-.089.847-.482,0-.273-.293-.324-.508-.338-.339-.019-.671-.014-1.011-.025-.619-.028-1.232-.334-1.232-1.039,0-.846.906-1.035,1.584-1.035a3.2,3.2,0,0,1,1.63.443l-.306.6a3.046,3.046,0,0,0-1.487-.371c-.241,0-.743.065-.743.391,0,.273.4.32.6.326.294.014.587.006.88.02.677.025,1.277.293,1.277,1.062,0,.94-1.01,1.135-1.752,1.135" fill="#233060"/>
          <path id="パス_19" data-name="パス 19" d="M20.674,40.441V37.064h2.985v.678H21.338v.619h1.226v.672H21.338v.728h2.4v.68Z" fill="#233060"/>
          <path id="パス_20" data-name="パス 20" d="M29.247,40.551a1.863,1.863,0,0,1-2.079-1.76,1.884,1.884,0,0,1,2.015-1.838,2.6,2.6,0,0,1,1.727.653l-.4.591a1.935,1.935,0,0,0-1.342-.554,1.134,1.134,0,1,0,.031,2.23,2.283,2.283,0,0,0,1.461-.474l.307.625a2.683,2.683,0,0,1-1.722.527" fill="#233060"/>
          <path id="パス_21" data-name="パス 21" d="M32.372,40.441V37.064h.7V39.75h1.923v.691Z" fill="#233060"/>
          <path id="パス_22" data-name="パス 22" d="M36.219,40.441V37.064H39.2v.678h-2.32v.619H38.11v.672H36.883v.728h2.4v.68Z" fill="#233060"/>
          <path id="パス_23" data-name="パス 23" d="M43.6,40.442l-.339-.711H41.285l-.34.711h-.77l1.638-3.377h.9l1.657,3.377ZM42.27,37.723l-.652,1.336h1.3Z" fill="#233060"/>
          <path id="パス_24" data-name="パス 24" d="M48.146,40.441l-1.879-2.289v2.289H45.6V37.064h.67l1.879,2.281V37.064h.671v3.377Z" fill="#233060"/>
          <rect id="長方形_30" data-name="長方形 30" width="0.665" height="3.377" transform="translate(50.674 37.065)" fill="#233060"/>
          <path id="パス_25" data-name="パス 25" d="M55.673,40.441l-1.878-2.289v2.289h-.67V37.064h.67l1.878,2.281V37.064h.671v3.377Z" fill="#233060"/>
          <path id="パス_26" data-name="パス 26" d="M59.865,40.551a1.813,1.813,0,1,1-.013-3.6,3.02,3.02,0,0,1,1.591.43l-.4.678a2.083,2.083,0,0,0-1.225-.424A1.185,1.185,0,0,0,58.5,38.746a1.159,1.159,0,0,0,1.283,1.115,1.816,1.816,0,0,0,1.031-.306v-.4H59.99v-.633h1.52V39.94a2.358,2.358,0,0,1-1.645.611" fill="#233060"/>
          <path id="パス_27" data-name="パス 27" d="M104.211,36.121c-11.3.816-20.716-6.439-22.6-7.965a5.274,5.274,0,0,0-3.375-1.217v-.006a5.259,5.259,0,0,0-3.911,1.245A8.549,8.549,0,0,0,72.447,30.9a18.841,18.841,0,0,0-1.177,2.352,12.044,12.044,0,0,0-.9,2.9,13.484,13.484,0,0,0,1.57-1.428,13.193,13.193,0,0,0-.8,3.123,8.707,8.707,0,0,0,1.892-2.464s.009.74.109,1.64c1.5-1.574,3.139-6.164,3.139-6.164s.256,1.016.3,1.455c.344-.148.678-2.238.678-2.238a1.563,1.563,0,0,1,.894-.582,20.6,20.6,0,0,0-.14,5.406c.535-.724.913-1.355.913-1.355a8.838,8.838,0,0,0,.4,3.1,13.184,13.184,0,0,0,.873-3.1,13.944,13.944,0,0,0,.638,2.043,18.8,18.8,0,0,0,.834-2.752,13.234,13.234,0,0,0,.275-2.588c2.844,2.314,12.041,8.281,22.487,6.312.674-.209.8-.541-.226-.443" fill="#233060"/>
          <path id="パス_28" data-name="パス 28" d="M120.382,41.244a43.648,43.648,0,0,1-1.721-4.143,9.222,9.222,0,0,0-.561-1.369c-.969-.318-3.28.981-2.635,3.485a2.794,2.794,0,0,1-1.783-3.936,3.047,3.047,0,0,1,3.309-1.947c-.954-1.572-2.2-2.172-3.255-3.045-.605-1.777-2.332-3.422-2.006-5.926a14.1,14.1,0,0,1,.72-3.588c.732-1.629,5.07-10.239,3.574-16.063,0,0-1.249-5.056-3.93-4.694-.93.126.064,3.455-3.3,9.066-2.024,2.827-1.856,4.472-2.264,5.332a7.153,7.153,0,0,1-1.38,1.751,9.032,9.032,0,0,1,.8,3.126,20.138,20.138,0,0,0-5.8-4.858C96.179,8.248,90.383,5.114,88.278,4.8s-.533,1.257-.131,1.554c6.342,3.1,12.954,10.121,13.111,16.408,0,0,.159,1.1-.568,1.213-1.157.35-5.283-1.076-5.926.2-1.187,2.027,4.308,3.1,6.52,4.5,2.716,1.711,4.268,1.828,5.085,7.133,0,0,.852.226,2.374,2.246a15.717,15.717,0,0,0,7.89,4.879c3.1.652,5.853,3.8,6.258,3.4s-1.747-3.691-2.509-5.086" fill="#233060"/>
          <path id="パス_29" data-name="パス 29" d="M73.438,27.195c2.375-2.977,8.142-5.62,9.881-6.032a32.5,32.5,0,0,1,10.4-.67,4.167,4.167,0,0,1-2.055-3.141c-.367-2.344.517-2.286-.332-3.5a18.614,18.614,0,0,0-16.3,9.827c-.453.87-2.589,2.166-2.621,2.809-.028.559.588,1.254,1.025.707" fill="#233060"/>
        </g>
      </g>
    </g>
    <text id="お家もセカイもキレイにする_SDGs時代のハウスクリーニング" data-name="お家もセカイもキレイにする
SDGs時代のハウスクリーニング" transform="translate(204 76)" fill="#233060" font-size="14" font-family="Mplus1p-Regular, 'Mplus \31 p'" letter-spacing="0.1em"><tspan x="0" y="0">お</tspan><tspan y="0">家</tspan><tspan y="0">もセカイもキレイにする</tspan><tspan x="0" y="20">SDGs</tspan><tspan y="20">時代</tspan><tspan y="20">のハウスクリーニング</tspan></text>
  </g>
</svg>
