<svg xmlns="http://www.w3.org/2000/svg" width="30" height="25.1" viewBox="0 0 30 25.1">
  <g id="グループ_2304" data-name="グループ 2304" transform="translate(-7241 4021)">
    <path id="パス_12375" data-name="パス 12375" d="M6.51-4.47H6.49L5.21-1.67H3.67L2.39-4.47H2.37V0H.76V-7.3H2.5L4.43-3h.02L6.38-7.3H8.16V0H6.51Zm4.87-1.46v1.49h2.77v1.29H11.38v1.78h2.97V0H9.68V-7.3h4.67v1.37ZM15.77,0V-7.3h1.66l2.59,4.48h.02V-7.3H21.7V0H20.04L17.45-4.48h-.02V0Zm9.07-7.3v4.43q0,1.6,1.22,1.6t1.21-1.6V-7.3h1.68v4.32a3.2,3.2,0,0,1-.75,2.3A2.858,2.858,0,0,1,26.04.1a2.875,2.875,0,0,1-2.165-.78,3.182,3.182,0,0,1-.755-2.3V-7.3Z" transform="translate(7241 -3996)" fill="#233060"/>
    <rect id="長方形_4626" data-name="長方形 4626" width="23" height="3" transform="translate(7245 -4021)" fill="#233060"/>
    <rect id="長方形_4628" data-name="長方形 4628" width="23" height="3" transform="translate(7244 -4013)" fill="#233060"/>
    <rect id="長方形_4636" data-name="長方形 4636" width="3" height="3" transform="translate(7268 -4013)" fill="#233060"/>
    <rect id="長方形_4643" data-name="長方形 4643" width="3" height="3" transform="translate(7241 -4021)" fill="#233060"/>
  </g>
</svg>
