<svg xmlns="http://www.w3.org/2000/svg" xmlns:xlink="http://www.w3.org/1999/xlink" width="1200" height="562" viewBox="0 0 1200 562">
  <defs>
    <filter id="長方形_5044" x="249" y="0" width="406" height="562" filterUnits="userSpaceOnUse">
      <feOffset dy="3" input="SourceAlpha"/>
      <feGaussianBlur stdDeviation="3" result="blur"/>
      <feFlood flood-opacity="0.161"/>
      <feComposite operator="in" in2="blur"/>
      <feComposite in="SourceGraphic"/>
    </filter>
  </defs>
  <g id="グループ_3182" data-name="グループ 3182" transform="translate(21943 19396.492)">
    <g id="グループ_3181" data-name="グループ 3181">
      <rect id="長方形_5043" data-name="長方形 5043" width="1200" height="484" transform="translate(-21943 -19368.492)" fill="#fff"/>
      <g transform="matrix(1, 0, 0, 1, -21943, -19396.49)" filter="url(#長方形_5044)">
        <rect id="長方形_5044-2" data-name="長方形 5044" width="388" height="544" transform="translate(258 6)" fill="#233060"/>
      </g>
      <path id="パス_12813" data-name="パス 12813" d="M-57.87-9.378V-8.01H-68.13V-9.378q-1.386.864-2.556,1.494l-.81-1.6a37.646,37.646,0,0,0,7.308-5.13h2.376A37.646,37.646,0,0,0-54.5-9.486l-.81,1.6Q-56.484-8.514-57.87-9.378Zm-.324-.2A34.244,34.244,0,0,1-63-13.356a34.244,34.244,0,0,1-4.806,3.78Zm.126,5.382q1.422,2.43,2.88,5.22l-1.674.738q-.126-.234-.423-.8T-57.744.09A119.049,119.049,0,0,1-70.11,1.17L-70.2-.45q1.71-.072,2.538-.126,1.1-2.106,1.872-4.014h-4.86V-6.21h15.3v1.62h-8.406Q-64.512-2.664-65.5-.72q3.384-.234,6.948-.684-.522-.954-1.152-2.052ZM-40.1-.684h3.474V1.044h-9.9V-.684h4.5V-9.27h-3.78v-1.674h3.78v-3.492H-40.1v3.492h3.2V-9.27h-3.2Zm-8.676-11.2h2.43v1.71a15.377,15.377,0,0,1-1.6,2.97q1.908,1.854,2.934,2.988l-1.26,1.224q-1.134-1.3-2.538-2.664V1.62h-1.908V-4.338a12.537,12.537,0,0,1-2.412,1.674l-.468-2A11.936,11.936,0,0,0-48.42-10.17H-53.1v-1.71h2.43v-2.7h1.89Zm25.29,4.9H-21.2v-.792H-23.49Zm0,1.98H-21.2V-5.8H-23.49ZM-27.81-5.8V-5h2.34V-5.8Zm0-1.188h2.34v-.792h-2.34Zm-3.654-5.562v2.466h1.188v-1.35h4.806v-.882q-2.556.144-4.176.162l-.018-.882Q-30.438-12.78-31.464-12.546Zm.072,4.086q1.1,2.034,1.782,3.366V-9.18h4.14v-.756h-4.554V-8.46ZM-19.08-1.35h-4.41v.9h4.914V1.116h-12.06V-.45h5.166v-.9h-4.5V-2.844h4.5V-3.6h-4.14v-.684l-1.026.666q-.54-1.188-.828-1.8V1.62h-1.8V-4.194a15.374,15.374,0,0,1-1.35,3.024L-35.586-3.1a18.04,18.04,0,0,0,2.25-5.364H-35.19v-1.62h1.926V-12.2q-1.116.144-1.638.2l-.162-1.53a28.7,28.7,0,0,0,5.256-1.044l.27.846a58.662,58.662,0,0,0,10.026-.846l.234,1.566a41.806,41.806,0,0,1-4.212.558v1.026h4.59v1.494h-4.59v.756h4.14V-3.6h-4.14v.756h4.41Zm12.2-4.68h3.96V-7.29h-3.96Zm0,2.646h3.96v-1.3h-3.96Zm-1.98-9.18V-14.13H-.63v1.566H-4.14q-.162.774-.288,1.26H-1.08V-1.89h-2.5A16.985,16.985,0,0,1-.342.36l-.99,1.35A20.584,20.584,0,0,0-4.77-.63l.864-1.26H-6.3l.972,1.152A10.616,10.616,0,0,1-8.82,1.638L-9.756.2A11.638,11.638,0,0,0-6.57-1.89H-8.676V-11.3H-6.39q.216-.828.306-1.26Zm5.94,3.924V-9.864h-3.96V-8.64Zm-10.908-5.85h1.764v3.6h2.88V-9.4h-2.034A24.834,24.834,0,0,1-8.928-7.344L-10.1-6.1A27.87,27.87,0,0,0-12.06-8.244v1.98h-1.764V-7.92A14.164,14.164,0,0,1-16.38-5.544l-.99-1.332A15.106,15.106,0,0,0-14.418-9.4H-17.1V-10.89h3.276Zm-3.078.918,1.35-.7a19.425,19.425,0,0,1,1.4,2.484l-1.368.684Q-16.254-12.546-16.9-13.572Zm5.094,1.764a15.319,15.319,0,0,0,1.332-2.5l1.422.576a14.532,14.532,0,0,1-1.4,2.592ZM-13.824-5.8h1.764V-4.59h2.934v1.53H-11.88A22.029,22.029,0,0,1-9.27-.648L-10.548.63a19.37,19.37,0,0,0-2.178-2.322A7.292,7.292,0,0,1-16.47,1.566L-17.352,0a5.346,5.346,0,0,0,3.33-3.06H-17.1V-4.59h3.276ZM-138.06,57.624l-6.93,1.3-.162-1.656,7.092-1.332V45.42h1.872V55.572l1.62-.288.162,1.656-1.782.324V61.62h-1.872Zm-1.656-6.7a45.129,45.129,0,0,0-3.276-3.33l1.3-1.206a38.728,38.728,0,0,1,3.294,3.294Zm-1.08,4.5a48.034,48.034,0,0,0-3.582-3.636l1.278-1.224a42.635,42.635,0,0,1,3.618,3.618Zm-3.888-4.284V52.71h-1.728q1.584,3.114,1.908,3.78l-1.3,1.026-1.188-2.592v6.7h-1.8V55.86a14.739,14.739,0,0,1-1.98,3.78l-.972-1.764a17.234,17.234,0,0,0,2.664-5.166h-2.268V51.144h2.556V45.42h1.8v5.724Zm-6.786-4.536,1.566-.378a41.457,41.457,0,0,1,.918,4.14l-1.512.36Q-150.912,48.678-151.47,46.608Zm4.662,3.726a21.718,21.718,0,0,0,.954-4.194l1.6.2a28.249,28.249,0,0,1-1.044,4.428Zm25.668-.918a36.216,36.216,0,0,1-3.924-2.682,36.216,36.216,0,0,1-3.924,2.682Zm-9.576,6.444,1.584-.9a33.755,33.755,0,0,1,1.944,3.438l-1.638.774A29.373,29.373,0,0,0-130.716,55.86Zm7.74,2.394a29.326,29.326,0,0,0,1.836-3.33l1.656.792a27.5,27.5,0,0,1-1.944,3.42Zm-9.828,1.3h6.75V54.636h-6.03V53.07h6.03V51h-3.726V49.884q-1.3.72-3.114,1.548l-.666-1.494a38.8,38.8,0,0,0,7.326-4.482h2.34a38.8,38.8,0,0,0,7.326,4.482l-.666,1.494q-1.818-.828-3.114-1.548V51h-3.726v2.07h6.03v1.566h-6.03V59.55h6.75v1.62H-132.8Zm19.836-5.094a11.158,11.158,0,0,0,3.51,8.334h-1.8a10.9,10.9,0,0,1-2.664-3.744,11.42,11.42,0,0,1-.936-4.59,11.356,11.356,0,0,1,.936-4.581,10.926,10.926,0,0,1,2.664-3.735h1.8A11.137,11.137,0,0,0-112.968,54.456ZM-103.212,60V49.2h-.036l-3.384,3.06-.72-1.62,4.14-3.78h1.98V60Zm8.874,0v1.08h-1.8V46.14h5.346V60Zm0-6.336V58.38h1.8V53.664Zm0-1.62h1.8V47.8h-1.8Zm14.22,0h-1.728V53.7h1.728v1.62h-1.728v3.456q0,.684-.018,1.071a2.851,2.851,0,0,1-.126.729,1.208,1.208,0,0,1-.252.486,1.282,1.282,0,0,1-.468.261,2.369,2.369,0,0,1-.693.135q-.369.018-1,.018-.5,0-2.25-.09l-.09-1.6q1.242.072,2.016.072.7,0,.828-.135a1.735,1.735,0,0,0,.126-.891V55.32h-6.48V53.7h6.48V52.044h-6.48v-1.62h4.086v-1.98h-3.312V46.86h3.312v-1.8h1.944v1.8h3.456v1.584h-3.456v1.98h4.1Zm-5.562,6.282-1.26,1.188a32.7,32.7,0,0,0-2.736-2.736l1.242-1.206A27.121,27.121,0,0,1-85.68,58.326Zm13.248-.882V58.6h4.14V57.444Zm0-1.368h4.14V55h-4.14Zm-3.834-6.192v1.3h3.474v-1.3Zm0-1.26h3.474V47.31h-3.474Zm11.808,1.26h-3.654v1.3h3.654Zm0-1.26V47.31h-3.654v1.314Zm-13.68,12.852V45.78h7.2v6.75h-5.328v8.946Zm13-.072q-.18,0-.477-.018t-.846-.045q-.549-.027-1.017-.045l-.072-1.3h-4.878v.9h-1.8V53.556h7.74v6.192l1.026.036a1.585,1.585,0,0,0,.864-.135q.144-.135.144-.819v-6.3h-5.508V45.78h7.38v13a3.687,3.687,0,0,1-.4,2.2A3.382,3.382,0,0,1-65.142,61.4ZM-50.67,59.64a5.6,5.6,0,0,0,2.844-1.359,3.13,3.13,0,0,0,1.044-2.331,2.864,2.864,0,0,0-1.782-2.826,12.391,12.391,0,0,1-3.429,5.3A6.87,6.87,0,0,1-56.5,60.36a3.169,3.169,0,0,1-2.358-.891,3.315,3.315,0,0,1-.882-2.439,5.018,5.018,0,0,1,1.17-3.267,7.059,7.059,0,0,1,3.24-2.151V49.2h-3.69V47.67h3.69V45.51h1.8v2.16h7.83V49.2h-7.83v1.962A13.845,13.845,0,0,1-51.372,51a7.41,7.41,0,0,1,4.707,1.332,4.368,4.368,0,0,1,1.683,3.618,4.715,4.715,0,0,1-1.386,3.429,7.052,7.052,0,0,1-3.816,1.881Zm.468-6.948a8.132,8.132,0,0,0-1.17-.072,10.135,10.135,0,0,0-2.16.216V57.57A10.945,10.945,0,0,0-50.2,52.692Zm-5.13.72A5.06,5.06,0,0,0-57.249,54.9a3.161,3.161,0,0,0-.693,1.953,2.077,2.077,0,0,0,.423,1.4,1.5,1.5,0,0,0,1.2.486,3.343,3.343,0,0,0,.99-.162Zm27.9-.7a57.146,57.146,0,0,0-7.236.45l-.108-1.62a58.875,58.875,0,0,1,7.344-.45Zm-6.84,1.98,1.17,1.08a6.577,6.577,0,0,0-.99.918,1.067,1.067,0,0,0-.27.648q0,.738.954,1.206a5.858,5.858,0,0,0,2.556.468,19.371,19.371,0,0,0,3.582-.36l.216,1.62a20.445,20.445,0,0,1-3.8.36,7.434,7.434,0,0,1-3.861-.873,2.573,2.573,0,0,1-1.449-2.241Q-36.162,56.13-34.272,54.69Zm-7.2-5.4V47.67h2.916q.288-1.512.414-2.268l1.8.162q-.054.306-.117.657T-36.6,47q-.081.432-.117.666h6.408v1.62h-6.714a88.378,88.378,0,0,1-3.186,11.682l-1.8-.414A92.5,92.5,0,0,0-38.88,49.29Zm21.33-2.97v4.032h.036a7.3,7.3,0,0,1,2.358-2.736,5.464,5.464,0,0,1,3.1-.936,4.069,4.069,0,0,1,3.375,1.53,6.793,6.793,0,0,1,1.215,4.32q0,4.338-2.448,6.354T-20.232,60.9l-.09-1.71q4.464,0,6.372-1.548t1.908-5.112a5.257,5.257,0,0,0-.72-3.024,2.375,2.375,0,0,0-2.07-1.026A4.649,4.649,0,0,0-18.4,50.5,8.187,8.187,0,0,0-20.2,55.41h-1.782V46.32Zm13.536-.18h1.8a10.926,10.926,0,0,1,2.664,3.735,11.356,11.356,0,0,1,.936,4.581,11.42,11.42,0,0,1-.936,4.59A10.9,10.9,0,0,1-4.806,62.79h-1.8A11.158,11.158,0,0,0-3.1,54.456,11.137,11.137,0,0,0-6.606,46.14Zm-50.67,62.376H-68.724v2.574H-70.56v-4.14h6.57v-1.8h1.98v1.8h6.57v4.14h-1.836Zm2.34,11.124-.108,1.656H-56.25a27.215,27.215,0,0,1-7.506-.783,7.8,7.8,0,0,1-4.086-2.835,27.577,27.577,0,0,1-1.782,3.906l-1.638-.684a26.153,26.153,0,0,0,2.772-7.578l1.746.342q-.18,1.008-.486,2.088a7.338,7.338,0,0,0,1.467,1.863,6.343,6.343,0,0,0,2.025,1.179V111.63h-4.338v-1.566h10.152v1.566h-3.834v2.61h5.238v1.584h-5.238V119.3a34.962,34.962,0,0,0,5.6.342Zm12.672-7.956v1.44q0,.936-.018,1.386h3.222v-2.826Zm0-1.584h3.2v-2.61h-3.2Zm-8.028,4.284v1.566h2.97v-1.566Zm0-2.934v1.53h2.97v-1.53Zm0-1.386h2.97V108.57h-2.97Zm10.512,9.72q.54,0,.63-.108a1.826,1.826,0,0,0,.09-.792v-2.808h-3.312a13.924,13.924,0,0,1-1.566,5.49l-1.476-1.188-.936.576a19.214,19.214,0,0,0-1.89-2.772l1.08-.7H-50.2l1.026.666a13.283,13.283,0,0,1-2.718,3.546l-1.278-1.1a14.315,14.315,0,0,0,2.5-3.114h-2.592v-1.53h1.17v-7.38h-1.08V107h1.08V105.51h1.8V107h2.97V105.51h1.71V107h.99v1.566h-.99v7.38h.954v1.53h-2.034a16.96,16.96,0,0,1,1.566,2.268,10.516,10.516,0,0,0,.873-2.961,31.637,31.637,0,0,0,.243-4.437v-6.48h6.786v12.96q0,.972-.036,1.422a1.607,1.607,0,0,1-.234.756.78.78,0,0,1-.495.369,4.906,4.906,0,0,1-.927.063q-.558,0-2.394-.09l-.09-1.656Q-40.05,119.784-39.78,119.784Zm11.97-3.114v.846h6.354v-.846Zm0-1.35h6.354v-.864H-27.81Zm-6.894-8.442,1.116-1.3a32.868,32.868,0,0,1,2.97,2.43l-1.116,1.35A38.173,38.173,0,0,0-34.7,106.878Zm2.484,6.714a38.925,38.925,0,0,0-3.276-2.754l1.1-1.3a30.726,30.726,0,0,1,3.294,2.7Zm1.584,1.89a21.458,21.458,0,0,1-2.808,5.976l-1.53-1.026a23.962,23.962,0,0,0,2.718-5.6Zm7.146-4.626h4.734v1.44H-30.51v-1.44h5.04v-.792h-4.14v-1.4h4.14v-.81h-4.59v-1.494h4.59V105.24h1.98v1.116h4.446v1.494H-23.49v.81h4.014v1.4H-23.49ZM-22,121.4q-.324,0-2-.108l-.036-1.62,1.854.108a1.656,1.656,0,0,0,.63-.063q.09-.063.09-.441v-.4l-6.354-.018v2.574h-1.926v-8.46H-19.53v6.3q0,1.458-.387,1.791A3.864,3.864,0,0,1-22,121.4Zm19.566-5.868V114.33H-5.76v1.206Zm-.954-4.986v-.9H-11.16V108.3h7.776v-.9H-11.52v-1.584H-1.44v6.174H-11.52v-1.44Zm-4.266,3.78h-2.934v1.206H-7.65Zm-4.572-5.886v1.62h-1.53V113.9q.648-.234,1.368-.54V112.8H-.63v3.6h-.9v2.106a3.142,3.142,0,0,1-.306,1.809q-.306.315-1.728.315-.414,0-1.476-.072l-.036-1.6q.828.054,1.116.054a1.281,1.281,0,0,0,.549-.063q.081-.063.081-.441v-1.53H-5.76V121.8H-7.65v-4.824H-9.684v3.708h-1.8V116.4h-.9v-1.3q-.324.144-1.368.522v3.294a4.632,4.632,0,0,1-.306,2.2q-.306.414-1.62.414-.324,0-1.494-.09l-.072-1.566q1.116.09,1.3.09.234,0,.27-.126a4.966,4.966,0,0,0,.036-.828v-2.754q-.27.072-1.6.414l-.126-1.71q.864-.18,1.728-.432v-4.464h-1.71v-1.62h1.71V105.42h1.89v3.024Zm-52.434,65.22h2.808q.072-1.332.072-2.268v-.612h-2.88Zm-3.168-3.636V181.62H-69.66v-8.046a14.468,14.468,0,0,1-1.332,1.962l-.774-2.16a20.189,20.189,0,0,0,3.33-8.028l1.782.324A23.02,23.02,0,0,1-67.824,170.028Zm13.1-3.384v1.62h-5.13v1.026h4.626v6.93H-57.06v-1.08h-3.006a8.712,8.712,0,0,1-.972,3.1,14.665,14.665,0,0,0,6.408,1.494l-.234,1.656a15.474,15.474,0,0,1-7.254-1.836,10.138,10.138,0,0,1-4.464,1.836l-.594-1.62a10.167,10.167,0,0,0,3.42-1.314,10.077,10.077,0,0,1-1.962-2.232l1.53-.9a8.666,8.666,0,0,0,1.566,1.818,6.038,6.038,0,0,0,.612-2h-4.446v-5.85h4.68v-1.026h-4.788v-1.62h4.788v-1.4h1.926v1.4Zm-2.34,7.02v-2.88h-2.79v.612q0,1.35-.072,2.268Zm11.3-2.034h-3.96V173.2q0,.54-.036,1.44h4Zm1.836,0v3.006h4.41V171.63Zm-1.836-1.494v-2.772h-3.96v2.772Zm1.836,0h4.41v-2.772h-4.41Zm6.3-4.356v13.14a3.639,3.639,0,0,1-.405,2.2,3.356,3.356,0,0,1-2.115.414q-.4,0-2.43-.09l-.09-1.584q.45.018.972.045t.8.045q.279.018.423.018.684,0,.819-.144a1.434,1.434,0,0,0,.135-.81v-2.88h-4.41v5.04h-1.836v-5.04h-4.1a11.862,11.862,0,0,1-.675,3.033,11.134,11.134,0,0,1-1.377,2.511l-1.566-1.242a9.3,9.3,0,0,0,1.449-3.2,21.871,21.871,0,0,0,.4-4.8v-6.66Zm6.444,5.31a19.194,19.194,0,0,0,2.286-5.562l1.8.36a15.215,15.215,0,0,1-.414,1.6h1.98v-2.16h1.944v2.16h4.23v1.62h-4.23v3.06h4.824v1.674H-22.5v4.9q0,.666.135.783a1.853,1.853,0,0,0,.891.117q.756,0,.918-.423a13.994,13.994,0,0,0,.252-2.781l1.71.144q-.036.918-.072,1.494a11.314,11.314,0,0,1-.126,1.125q-.09.549-.162.846a1.671,1.671,0,0,1-.261.567,1.372,1.372,0,0,1-.36.378,1.747,1.747,0,0,1-.513.189,3.793,3.793,0,0,1-.657.1q-.315.018-.855.018a4.562,4.562,0,0,1-2.322-.36q-.468-.36-.468-1.8v-5.292h-1.368q-.414,5.8-5.31,7.686l-.774-1.656a6.173,6.173,0,0,0,2.925-2.241,7.562,7.562,0,0,0,1.305-3.789h-3.312V172.17h5.4v-3.06h-2.538a17.754,17.754,0,0,1-1.332,2.754Zm-3.618-4.338,1.152-1.17a34.63,34.63,0,0,1,2.754,2.43l-1.17,1.206A31.851,31.851,0,0,0-34.794,166.752Zm2.376,6.876q-1.242-1.242-3.06-2.736l1.152-1.224a34.954,34.954,0,0,1,3.06,2.7Zm1.134,2.07A25.345,25.345,0,0,1-33.5,181.44l-1.584-.882a28.036,28.036,0,0,0,2.16-5.418Zm19.044-5.724a8.266,8.266,0,0,0,2.052-1.764H-14.4A9.691,9.691,0,0,0-12.24,169.974Zm-1.836,3.582h4.068V172.8a16.968,16.968,0,0,1-2.268-.972,18.436,18.436,0,0,1-1.8.828Zm-.072,3.24h4.14V175.05h-4.068v.18Q-14.076,175.824-14.148,176.8ZM-3.33,165.69h1.89v13.14a3.858,3.858,0,0,1-.378,2.187q-.378.423-1.962.423-.792,0-2.34-.09l-.09-1.746q1.494.072,2.106.072.54,0,.657-.135a1.563,1.563,0,0,0,.117-.8Zm-3.96.954v1.566h-.72a11.388,11.388,0,0,1-2.61,2.592A25.523,25.523,0,0,0-6.8,172.008v-5.6H-4.95v11.34H-6.8V172.3l-.432,1.314q-.162-.036-.477-.117l-.459-.117v7.974h-1.836v-3.06h-4.356a8.106,8.106,0,0,1-1.44,3.294l-1.512-1.134a8.732,8.732,0,0,0,1.476-5.31v-1.854q-.72.216-1.116.324l-.36-1.674a26.165,26.165,0,0,0,3.384-1.1,14.012,14.012,0,0,1-2.232-1.908l.846-.72h-1.6v-1.566H-13.1V165.06H-11.2v1.584ZM-85.176,231.09a19.194,19.194,0,0,0,2.286-5.562l1.8.36a15.218,15.218,0,0,1-.414,1.6h1.98v-2.16h1.944v2.16h4.23v1.62h-4.23v3.06h4.824v1.674H-76.5v4.9q0,.666.135.783a1.853,1.853,0,0,0,.891.117q.756,0,.918-.423a13.994,13.994,0,0,0,.252-2.781l1.71.144q-.036.918-.072,1.494a11.311,11.311,0,0,1-.126,1.125q-.09.549-.162.846a1.671,1.671,0,0,1-.261.567,1.372,1.372,0,0,1-.36.378,1.747,1.747,0,0,1-.513.189,3.793,3.793,0,0,1-.657.1q-.315.018-.855.018a4.562,4.562,0,0,1-2.322-.36q-.468-.36-.468-1.8v-5.292h-1.368q-.414,5.8-5.31,7.686l-.774-1.656a6.173,6.173,0,0,0,2.925-2.241,7.562,7.562,0,0,0,1.305-3.789h-3.312V232.17h5.4v-3.06h-2.538a17.755,17.755,0,0,1-1.332,2.754Zm-3.618-4.338,1.152-1.17a34.631,34.631,0,0,1,2.754,2.43l-1.17,1.206A31.852,31.852,0,0,0-88.794,226.752Zm2.376,6.876q-1.242-1.242-3.06-2.736l1.152-1.224a34.954,34.954,0,0,1,3.06,2.7Zm1.134,2.07A25.346,25.346,0,0,1-87.5,241.44l-1.584-.882a28.036,28.036,0,0,0,2.16-5.418Zm19.044-5.724a8.266,8.266,0,0,0,2.052-1.764H-68.4A9.691,9.691,0,0,0-66.24,229.974Zm-1.836,3.582h4.068V232.8a16.968,16.968,0,0,1-2.268-.972,18.435,18.435,0,0,1-1.8.828Zm-.072,3.24h4.14V235.05h-4.068v.18Q-68.076,235.824-68.148,236.8ZM-57.33,225.69h1.89v13.14a3.858,3.858,0,0,1-.378,2.187q-.378.423-1.962.423-.792,0-2.34-.09l-.09-1.746q1.494.072,2.106.072.54,0,.657-.135a1.563,1.563,0,0,0,.117-.8Zm-3.96.954v1.566h-.72a11.388,11.388,0,0,1-2.61,2.592,25.524,25.524,0,0,0,3.816,1.206v-5.6h1.854v11.34H-60.8V232.3l-.432,1.314q-.162-.036-.477-.117l-.459-.117v7.974h-1.836v-3.06h-4.356a8.106,8.106,0,0,1-1.44,3.294l-1.512-1.134a8.732,8.732,0,0,0,1.476-5.31v-1.854q-.72.216-1.116.324l-.36-1.674a26.165,26.165,0,0,0,3.384-1.1,14.012,14.012,0,0,1-2.232-1.908l.846-.72h-1.6v-1.566H-67.1V225.06H-65.2v1.584Zm17.91,12.186a4.663,4.663,0,0,0,3.195-1.629,5.641,5.641,0,0,0,1.125-3.681,4.822,4.822,0,0,0-1.332-3.465,5.1,5.1,0,0,0-3.42-1.557,51.736,51.736,0,0,1-.981,5.814,14.078,14.078,0,0,1-1.269,3.582,5.136,5.136,0,0,1-1.413,1.71,2.73,2.73,0,0,1-1.575.486,3.192,3.192,0,0,1-2.538-1.62,6.656,6.656,0,0,1-1.152-3.96,7.241,7.241,0,0,1,2.34-5.589,8.688,8.688,0,0,1,6.12-2.151,6.974,6.974,0,0,1,5.031,1.908,6.421,6.421,0,0,1,1.989,4.842,7.425,7.425,0,0,1-1.557,4.923,5.914,5.914,0,0,1-4.2,2.1Zm-2.3-10.242a6.244,6.244,0,0,0-3.834,1.971,5.716,5.716,0,0,0-1.422,3.951,5.287,5.287,0,0,0,.639,2.655q.639,1.125,1.251,1.125a.965.965,0,0,0,.594-.243,3.308,3.308,0,0,0,.693-.918,9.743,9.743,0,0,0,.738-1.719,24.628,24.628,0,0,0,.711-2.808Q-45.954,230.838-45.684,228.588Zm21.384,8.766a14.831,14.831,0,0,1-2-4,14.966,14.966,0,0,1-1.62,6.372A11.7,11.7,0,0,0-24.3,237.354Zm1.224-1.44a13.394,13.394,0,0,0,1.944-4.41H-26.28v.81l1.4-.54A14.494,14.494,0,0,0-23.076,235.914Zm-9.864.936h-1.8V225.87h5.58v10.98Zm0-3.24v1.62h2.07v-1.62Zm0-3.06v1.62h2.07v-1.62Zm0-1.44h2.07v-1.62h-2.07Zm-2.718,11.538a13.219,13.219,0,0,0,2.376-3.528l1.3.684,1.224-.612q.5.738,1.08,1.746,1.512-2.664,1.512-7.794V225.96h9.414v1.62H-26.28v2.34h7.074V231.5a15.634,15.634,0,0,1-2.7,5.886,10.755,10.755,0,0,0,3.546,2.484l-.9,1.566a12.118,12.118,0,0,1-3.87-2.7,14,14,0,0,1-4.248,2.7l-.7-1.4a12.51,12.51,0,0,1-.864,1.314l-.684-.882-.882.4a25.888,25.888,0,0,0-1.476-2.61,12.011,12.011,0,0,1-2.286,3.384ZM-.99,226.716v1.548H-8.01v1.3h5.76v1.476h-13.5V229.56h5.76v-1.3h-7.02v-1.548h7.02v-1.332h1.98v1.332Zm-.54,5.4v3.78H-3.384V233.61H-14.616v2.466H-16.47v-3.96Zm-10.386,2.34,1.836.18a6.909,6.909,0,0,1-1.611,4.356,9.019,9.019,0,0,1-4.491,2.484l-.81-1.566a7.966,7.966,0,0,0,3.753-1.962A5.752,5.752,0,0,0-11.916,234.456Zm3.852.108H-6.12V238.9q0,.522.234.63a5.061,5.061,0,0,0,1.422.108h.621a.939.939,0,0,0,.4-.108.624.624,0,0,0,.279-.207,2.47,2.47,0,0,0,.144-.468,3.4,3.4,0,0,0,.1-.72q.009-.351.045-1.107l1.89.144q-.054,1.116-.09,1.683a4.48,4.48,0,0,1-.216,1.116,2.365,2.365,0,0,1-.342.738,1.5,1.5,0,0,1-.648.351,3.427,3.427,0,0,1-.954.18q-.468.018-1.44.018-.828,0-1.332-.018a5.21,5.21,0,0,1-.918-.108,2.425,2.425,0,0,1-.612-.2.85.85,0,0,1-.333-.36,1.411,1.411,0,0,1-.162-.54q-.027-.288-.027-.774ZM-141.876,288.7V287.04h14.4V288.7a9.237,9.237,0,0,1-1.836,3.411,10.38,10.38,0,0,1-3.1,2.529l-1.026-1.512a7.716,7.716,0,0,0,3.924-4.428Zm4.986,1.584H-135a21.791,21.791,0,0,1-.495,5.121,7.716,7.716,0,0,1-1.566,3.231,8.319,8.319,0,0,1-2.961,2.088l-.9-1.566a6.4,6.4,0,0,0,2.4-1.719,6.489,6.489,0,0,0,1.242-2.727A20.529,20.529,0,0,0-136.89,290.28Zm13.14-3.06h13.59v.36q0,6.1-2.844,9.234t-8.838,3.726l-.342-1.746q4.968-.522,7.344-2.826t2.664-6.948H-123.75Zm21.24-1.458,1.8.126a16.091,16.091,0,0,1-.252,1.6h8.352v.72q0,6.138-2.853,9.108t-9.117,3.492l-.27-1.71a18.275,18.275,0,0,0,5.184-1.152,7.669,7.669,0,0,0,3.222-2.394q-3.1-1.566-5.508-2.628l.864-1.656q3.006,1.332,5.58,2.646a13.5,13.5,0,0,0,.9-4.716h-6.822a13.436,13.436,0,0,1-3.546,5.418l-1.278-1.17a11.975,11.975,0,0,0,2.52-3.483A12.969,12.969,0,0,0-102.51,285.762Zm14.13,8.694v-1.89h14.76v1.89Zm18.63-7.236h13.59v.36q0,6.1-2.844,9.234t-8.838,3.726l-.342-1.746q4.968-.522,7.344-2.826t2.664-6.948H-69.75Zm18.954,3.6h7.146v-2.178H-41.9v2.178h2.988v1.566H-41.9v5.886a2.987,2.987,0,0,1-.378,1.9,3.049,3.049,0,0,1-1.89.369,23.747,23.747,0,0,1-2.412-.144l.108-1.584a20,20,0,0,0,2.124.144.926.926,0,0,0,.585-.117.926.926,0,0,0,.117-.585v-4.14A31.98,31.98,0,0,1-50,298.92l-.81-1.4a29.8,29.8,0,0,0,6.678-5.13H-50.8Zm16.866-3.78h13.86V300H-33.93Zm1.98,11.2h9.9V288.8h-9.9Zm15.57-3.78v-1.89H-1.62v1.89Z" transform="translate(-21735 -19232.492)" fill="#707070"/>
      <path id="パス_12815" data-name="パス 12815" d="M-8.118-14.616A39.894,39.894,0,0,0-.63-9.378l-.612,1.17A37.9,37.9,0,0,1-9-13.68a37.9,37.9,0,0,1-7.758,5.472l-.612-1.17a39.893,39.893,0,0,0,7.488-5.238ZM-1.08.99H-16.92V-.234h2.484v-7.74h1.386v7.74h3.69V-10.89h1.4v4.446h6.03v1.188h-6.03V-.234H-1.08ZM10.71-8.55a14.932,14.932,0,0,0,1.17-2.466H6.21Q6.768-9.828,7.236-8.55Zm5.85,4.806v1.1H10.584A25.41,25.41,0,0,0,17.262.072l-.594,1.116A24.508,24.508,0,0,1,9.72-1.962V1.566H8.28V-1.962a24.508,24.508,0,0,1-6.948,3.15L.738.072A25.41,25.41,0,0,0,7.416-2.646H1.44v-1.1H8.28v-1.35H2.286V-6.156H8.28V-7.47H1.62V-8.55H5.814Q5.2-10.1,4.77-11.016H1.26V-12.15H3.708q-.594-1.026-1.1-1.782l1.152-.5A23.422,23.422,0,0,1,5.13-12.15H6.7v-2.52H7.974v2.52h2.052v-2.52H11.3v2.52h1.62a20.791,20.791,0,0,0,1.314-2.286l1.17.432q-.558,1.062-1.044,1.854H16.74v1.134H13.3A17.231,17.231,0,0,1,12.186-8.55H16.38v1.08H9.72v1.314h5.994v1.062H9.72v1.35ZM-38.979,47.544a5.107,5.107,0,0,1,3.132-.864,5.067,5.067,0,0,1,3.123.864,2.727,2.727,0,0,1,1.143,2.286q0,2.178-2.52,3.078v.036q3.006.882,3.006,3.51a3.29,3.29,0,0,1-1.269,2.718,5.456,5.456,0,0,1-3.483,1.008,5.418,5.418,0,0,1-3.474-1.008,3.3,3.3,0,0,1-1.26-2.718,3.059,3.059,0,0,1,.774-2.052,4.673,4.673,0,0,1,2.214-1.35v-.036a4.168,4.168,0,0,1-1.863-1.278,2.983,2.983,0,0,1-.657-1.908A2.734,2.734,0,0,1-38.979,47.544Zm3.132,4.9a4.8,4.8,0,0,0,2.16-.945,1.968,1.968,0,0,0,.774-1.539,1.831,1.831,0,0,0-.774-1.548,3.555,3.555,0,0,0-2.16-.576,3.438,3.438,0,0,0-2.115.567,1.848,1.848,0,0,0-.747,1.557,2.011,2.011,0,0,0,.747,1.557A4.458,4.458,0,0,0-35.847,52.44Zm-.054,1.134a5.239,5.239,0,0,0-2.475,1.062,2.276,2.276,0,0,0-.837,1.764,2.309,2.309,0,0,0,.9,1.926,3.913,3.913,0,0,0,2.466.7,3.8,3.8,0,0,0,2.448-.711,2.334,2.334,0,0,0,.882-1.917Q-32.517,54.222-35.9,53.574Zm8.046,3.96h1.818l-1.8,4.446h-1.332Zm8.64-10.854q4.752,0,4.752,6.75t-4.752,6.75a4.2,4.2,0,0,1-3.492-1.566q-1.242-1.566-1.242-5.184t1.242-5.184A4.2,4.2,0,0,1-19.215,46.68ZM-21.7,57.7a2.742,2.742,0,0,0,2.484,1.314,2.737,2.737,0,0,0,2.484-1.323A8.315,8.315,0,0,0-15.9,53.43a8.315,8.315,0,0,0-.828-4.257,2.737,2.737,0,0,0-2.484-1.323,2.716,2.716,0,0,0-2.475,1.323,8.392,8.392,0,0,0-.819,4.257A8.526,8.526,0,0,0-21.7,57.7ZM-8.055,46.68q4.752,0,4.752,6.75t-4.752,6.75a4.2,4.2,0,0,1-3.492-1.566q-1.242-1.566-1.242-5.184t1.242-5.184A4.2,4.2,0,0,1-8.055,46.68ZM-10.539,57.7A2.742,2.742,0,0,0-8.055,59.01a2.737,2.737,0,0,0,2.484-1.323,8.315,8.315,0,0,0,.828-4.257,8.315,8.315,0,0,0-.828-4.257A2.737,2.737,0,0,0-8.055,47.85a2.716,2.716,0,0,0-2.475,1.323,8.392,8.392,0,0,0-.819,4.257A8.526,8.526,0,0,0-10.539,57.7ZM3.1,46.68q4.752,0,4.752,6.75T3.1,60.18A4.2,4.2,0,0,1-.387,58.614q-1.242-1.566-1.242-5.184t1.242-5.184A4.2,4.2,0,0,1,3.1,46.68ZM.621,57.7A2.742,2.742,0,0,0,3.1,59.01a2.737,2.737,0,0,0,2.484-1.323,8.315,8.315,0,0,0,.828-4.257,8.315,8.315,0,0,0-.828-4.257A2.737,2.737,0,0,0,3.1,47.85,2.716,2.716,0,0,0,.63,49.173,8.392,8.392,0,0,0-.189,53.43,8.526,8.526,0,0,0,.621,57.7Zm16.4-10.26H11.907v5.22h5.112Zm1.368,0v5.22H23.5v-5.22ZM10.5,46.194H24.9v12.42a3.088,3.088,0,0,1-.369,1.917,3,3,0,0,1-1.881.369q-.306,0-2.826-.09l-.054-1.224q2.394.09,2.646.09a1.7,1.7,0,0,0,.936-.144,1.649,1.649,0,0,0,.144-.918v-4.77H11.907v7.182H10.5ZM40.509,49.7l-2.97.936,1.854,2.484-.936.684-1.8-2.538-1.782,2.538-.936-.684,1.854-2.484-2.97-.936.36-1.1,2.952,1.008L36.081,46.5h1.152L37.2,49.614l2.952-1.008Zm-88.344,70.242a5.972,5.972,0,0,0,3.087-1.458,3.446,3.446,0,0,0,1.125-2.574,3.218,3.218,0,0,0-2.268-3.222,12.805,12.805,0,0,1-3.447,5.508,6.782,6.782,0,0,1-4.491,2.034,2.878,2.878,0,0,1-2.2-.837,3.256,3.256,0,0,1-.792-2.331,5.019,5.019,0,0,1,1.2-3.285,7.05,7.05,0,0,1,3.3-2.151v-2.664h-3.852v-1.152h3.852v-2.268H-51v2.268h8.046v1.152H-51v2.322a12.544,12.544,0,0,1,2.394-.234,7.35,7.35,0,0,1,4.626,1.305,4.266,4.266,0,0,1,1.674,3.555,4.6,4.6,0,0,1-1.386,3.384,7.054,7.054,0,0,1-3.816,1.836Zm.738-7.578a9.733,9.733,0,0,0-1.512-.108,10.159,10.159,0,0,0-2.394.27V118a10.019,10.019,0,0,0,2.223-2.313A12.978,12.978,0,0,0-47.1,112.368Zm-5.22.576a5.779,5.779,0,0,0-2.331,1.665,3.611,3.611,0,0,0-.855,2.331,2.331,2.331,0,0,0,.468,1.557,1.654,1.654,0,0,0,1.332.549,3.632,3.632,0,0,0,1.386-.288ZM-37,106.374h1.35v4.9h.036a8.1,8.1,0,0,1,2.457-3.33,5.352,5.352,0,0,1,3.339-1.206,3.836,3.836,0,0,1,3.222,1.494,6.864,6.864,0,0,1,1.152,4.266q0,4.266-2.394,6.273t-7.506,2.007l-.054-1.26q4.518,0,6.516-1.656t2-5.364a5.768,5.768,0,0,0-.783-3.312,2.607,2.607,0,0,0-2.277-1.116,4.935,4.935,0,0,0-3.762,2.16,8.94,8.94,0,0,0-1.962,5.22H-37Zm22.662.486-6.21,13.86h-1.386l6.192-13.86Zm12.348,5.418H-4.617v1.53h2.628Zm1.4,0v1.53H2.043v-1.53Zm-1.4-.972v-1.422H-4.617v1.422Zm1.4,0H2.043v-1.422H-.585Zm4.7-3.4h-4.7v.972H3.357v5.958H2.169v.972H4.113v1.134H2.169v2.34a3.356,3.356,0,0,1-.279,1.773q-.279.333-1.467.333-.5,0-2.34-.09l-.054-1.206q1.674.09,2.16.09.45,0,.522-.117a2.431,2.431,0,0,0,.072-.819v-2.3H-6.471v-1.134H.783v-.972h-6.7v-5.958h3.924V107.9H-6.6V106.77h4.608v-1.494h1.4v1.494H1.449q-.72-.72-1.278-1.206L1.2,104.97q1.044.918,1.872,1.8H4.113Zm-6.948,12.618a20.2,20.2,0,0,0-2.592-2.7l.954-.756a20.609,20.609,0,0,1,2.628,2.682Zm-5.6-9.738,1.08-.288A35.864,35.864,0,0,1-6.2,114.888l-1.1.216q-.108-.468-.216-.972l-1.512.09v7.344h-1.35v-7.254l-2.538.162-.036-1.17,1.278-.072q.5-.72.756-1.1-1.044-1.836-2.124-3.564l.774-1.1q.378.612.684,1.116.792-1.494,1.566-3.258l1.134.5q-.918,2.034-2,3.942.126.216.7,1.224,1.08-1.746,2.16-3.834l1.08.558a52.886,52.886,0,0,1-3.222,5.418L-7.785,113Q-8.055,111.972-8.433,110.784Zm-4.572,9.594a31.188,31.188,0,0,0,.774-5.04l1.134.108a30.9,30.9,0,0,1-.774,5.166Zm6.39-.414-1.17.108q-.234-2.862-.522-4.644l1.116-.162Q-6.8,117.84-6.615,119.964Zm14.742-13.59h1.35v4.9h.036a8.1,8.1,0,0,1,2.457-3.33,5.352,5.352,0,0,1,3.339-1.206,3.836,3.836,0,0,1,3.222,1.494,6.864,6.864,0,0,1,1.152,4.266q0,4.266-2.394,6.273t-7.506,2.007l-.054-1.26q4.518,0,6.516-1.656t2-5.364a5.768,5.768,0,0,0-.783-3.312,2.607,2.607,0,0,0-2.277-1.116,4.935,4.935,0,0,0-3.762,2.16,8.94,8.94,0,0,0-1.962,5.22H8.127Zm25.164,13.572a5.972,5.972,0,0,0,3.087-1.458,3.446,3.446,0,0,0,1.125-2.574,3.218,3.218,0,0,0-2.268-3.222,12.805,12.805,0,0,1-3.447,5.508,6.782,6.782,0,0,1-4.491,2.034,2.878,2.878,0,0,1-2.2-.837,3.256,3.256,0,0,1-.792-2.331,5.019,5.019,0,0,1,1.2-3.285,7.05,7.05,0,0,1,3.3-2.151v-2.664H24.957v-1.152h3.852v-2.268h1.314v2.268h8.046v1.152H30.123v2.322a12.544,12.544,0,0,1,2.394-.234,7.35,7.35,0,0,1,4.626,1.305,4.266,4.266,0,0,1,1.674,3.555,4.6,4.6,0,0,1-1.386,3.384,7.054,7.054,0,0,1-3.816,1.836Zm.738-7.578a9.733,9.733,0,0,0-1.512-.108,10.159,10.159,0,0,0-2.394.27V118a10.019,10.019,0,0,0,2.223-2.313A12.978,12.978,0,0,0,34.029,112.368Zm-5.22.576a5.779,5.779,0,0,0-2.331,1.665,3.611,3.611,0,0,0-.855,2.331,2.331,2.331,0,0,0,.468,1.557,1.654,1.654,0,0,0,1.332.549,3.632,3.632,0,0,0,1.386-.288Zm15.318-6.57h1.35v4.9h.036a8.1,8.1,0,0,1,2.457-3.33,5.352,5.352,0,0,1,3.339-1.206,3.836,3.836,0,0,1,3.222,1.494,6.864,6.864,0,0,1,1.152,4.266q0,4.266-2.394,6.273t-7.506,2.007l-.054-1.26q4.518,0,6.516-1.656t2-5.364a5.768,5.768,0,0,0-.783-3.312,2.607,2.607,0,0,0-2.277-1.116,4.935,4.935,0,0,0-3.762,2.16,8.94,8.94,0,0,0-1.962,5.22H44.127Zm-148.167,65.22h2.124v-1.512h-2.124Zm0-4.05v1.4h2.124v-1.4Zm3.42-1.1v2.5h1.044v1.134h-1.044v2.592h-3.42v1.458h3.69v1.116h-3.69V176.8h4v1.134h-4v1.656h-1.4V177.93h-4.086V176.8h4.086v-1.548h-3.546v-1.116h3.546v-1.458h-3.24v-1.08h3.24v-1.512h-4.3v-1.134h4.3v-1.4h-3.42v-1.1h3.42v-1.08h1.4v1.08Zm-12.924,7.9,1.08-.648a22.788,22.788,0,0,0,1.152,2.718,14.349,14.349,0,0,0,.792-3.618h-2.718v-1.17a25.875,25.875,0,0,0,2.394-4.176h-2.25v-.036a24.288,24.288,0,0,1-.792,2.952v11.2H-115.2v-8.514a17.192,17.192,0,0,1-1.1,2.052l-.594-1.44a22.979,22.979,0,0,0,2.862-8.244l1.26.09q-.018.126-.063.378t-.063.378h3.312v1.188a21.393,21.393,0,0,1-2.178,4.176h2.466v1.17a17.457,17.457,0,0,1-1.206,4.914,4.992,4.992,0,0,0,2.466,1.782,14.2,14.2,0,0,0,4.14.468h4.032l-.054,1.206h-4.05a15.533,15.533,0,0,1-4.311-.486,5.982,5.982,0,0,1-2.781-1.764,11.713,11.713,0,0,1-1.836,2.538l-.81-1.008a11.691,11.691,0,0,0,1.8-2.646A19.581,19.581,0,0,1-113.544,174.348Zm25.4-.54h3.69v-1.386h-3.69Zm-1.4-3.87h-5.31v-1.062h5.31V167.76H-95.8v3.51h6.246Zm1.4,0v1.332h3.69v-1.332Zm1.98,7.182a17.237,17.237,0,0,0,2.61-2.25h-4.482A11.253,11.253,0,0,0-86.166,177.12ZM-95,175.86l.846-.828a27.161,27.161,0,0,1,2.43,2.376q.954-.648,1.674-1.206l.5.666v-2h-5.31v-1.062h5.31v-1.386H-95.8v.558a24.156,24.156,0,0,1-.45,4.761,14.1,14.1,0,0,1-1.242,3.753l-1.026-1.1a20.1,20.1,0,0,0,1.368-8.28V166.59h6.75v-1.548h1.44v1.548h6.75v1.17h-5.94v1.116h5.04v2.394h1.08v1.152h-1.08v2.43l.63.612a17.025,17.025,0,0,1-2.754,2.466,16.433,16.433,0,0,0,3.294,2.052l-.666,1.08a15.323,15.323,0,0,1-3.087-1.944,14.078,14.078,0,0,1-2.457-2.52v2.592a3.3,3.3,0,0,1-.342,1.89q-.342.4-1.656.4-.756,0-2.232-.09l-.054-1.206q1.35.09,2.016.09.576,0,.72-.162a1.606,1.606,0,0,0,.144-.882v-1.89a27.53,27.53,0,0,1-6.03,3.546l-.648-1.08a29.727,29.727,0,0,0,3.492-1.764A31.3,31.3,0,0,0-95,175.86Zm22.05-1.08v-2.52h1.908v2.52Zm20.2-6.03h1.98v-1.836h-1.98Zm-3.114,0h1.98v-1.836h-1.98Zm0,1.026h-1.242v-3.942h10.728v3.942Zm.576,5.454h7.182v-1.584H-55.3Zm7.272,3.582a18.267,18.267,0,0,0,2.538,1.314l-.648,1.062a17.054,17.054,0,0,1-5.256-3.636v4.1h-1.44v-4.284a16.838,16.838,0,0,1-5.49,3.816l-.648-1.062a15.538,15.538,0,0,0,5.634-3.852h-3.312v-3.708h9.9v3.708H-51.12a11.562,11.562,0,0,0,2.052,1.836q.99-.738,1.962-1.62l1.026.7Q-47.142,178.146-48.024,178.812Zm-9.576-11.2h-1.476v4.14h1.35v1.224h-1.35v4.5q1.332-.432,2-.684l.09,1.188a45.18,45.18,0,0,1-5.238,1.656l-.144-1.224q1.494-.378,1.926-.5V172.98h-1.71v-1.224h1.71v-4.14h-1.872v-1.26H-57.6Zm9.954-.7h-2v1.836h2ZM-57.6,171.72V170.6h11.7v1.116Zm25.56-1.89a14.011,14.011,0,0,0,1.026-2.034h-4.878q.63,1.206.99,2.034ZM-37.1,174.8v1.314h7.11V174.8Zm0-.936h7.11v-1.206H-37.1Zm9.072-7.218V167.8h-1.62a16.371,16.371,0,0,1-.954,2.034h2.88v1.116H-39.1v.81h-2.07v5.868q1.044-.45,2.25-1.08l.162,1.152a32.758,32.758,0,0,1-5.58,2.448l-.2-1.242q1.08-.342,2.016-.72v-6.426H-44.46v-1.188h1.944v-4.752h1.35v4.752h1.692v-.738h3.2q-.432-.936-1.026-2.034H-39.15v-1.152h4.914V165.1h1.422v1.548Zm-2.466,14.742a5.228,5.228,0,0,1-1.926-.207q-.378-.207-.378-1.035v-2.988h-1.98q-.486,3.24-5.472,4.482l-.612-1.152q4.248-.936,4.806-3.33h-2.43v-5.49h9.936v5.49h-2.934v2.484q0,.414.135.477a3.779,3.779,0,0,0,.963.063h.441a1.21,1.21,0,0,0,.324-.054,1.785,1.785,0,0,0,.243-.081.557.557,0,0,0,.153-.2.855.855,0,0,0,.117-.306q.018-.135.063-.486t.054-.639q.009-.288.027-.882l1.224.126q-.036.81-.054,1.2t-.081.882a4.958,4.958,0,0,1-.117.675,1.8,1.8,0,0,1-.216.432.709.709,0,0,1-.315.306q-.153.054-.477.144a2.38,2.38,0,0,1-.639.09Zm11.466-12.366V167.8h7.65v1.224Zm-3.564-2.664a30.133,30.133,0,0,0,0,14.328l-1.35.18a30.414,30.414,0,0,1,0-14.688Zm11.466,11.916.2,1.206a16.693,16.693,0,0,1-4.14.558,7.218,7.218,0,0,1-3.9-.909,2.759,2.759,0,0,1-1.431-2.421,3.516,3.516,0,0,1,.621-1.782,7.512,7.512,0,0,1,1.683-1.872l.972.828a6.733,6.733,0,0,0-1.4,1.5,2.575,2.575,0,0,0-.513,1.323A1.667,1.667,0,0,0-18,178.245a6.519,6.519,0,0,0,2.934.531A16.673,16.673,0,0,0-11.124,178.272ZM.81,168.93q.936-.882,1.638-1.656H-3.294A15.3,15.3,0,0,1-4.68,168.93Zm-5.9,9.342H-6.516v-7.686q-.738.576-1.332.972l-.378-1.35a14.159,14.159,0,0,0,4.788-5.2l1.332.234q-.036.09-.468.9H4.14v1.134a18.946,18.946,0,0,1-1.494,1.656h4.23v9.342H2.448a32.636,32.636,0,0,1,5.562,2.322l-.594,1.134a36.137,36.137,0,0,0-5.724-2.448l.414-1.008h-3.87l.486.864a18.441,18.441,0,0,1-5.85,2.448l-.5-1.188A21.214,21.214,0,0,0-2.2,178.272Zm0-2.808v1.674H5.454v-1.674Zm0-2.7v1.6H5.454v-1.6Zm0-1.116H5.454V170.1H-5.094Zm17.964,1.62v8.3H11.52v-6.408a12.727,12.727,0,0,1-1.44,1.926l-.576-1.3a17.815,17.815,0,0,0,3.528-6.318l1.242.288A17.016,17.016,0,0,1,12.87,173.268Zm3.456,3.816h3.438V174.2H16.326Zm0,1.116v1.17h-1.35v-6.3h6.1v5.13Zm9.594-11.376v1.206H22.194v1.314H20.826V168.03H15.174v1.314H13.806V168.03H10.08v-1.206h3.726V165.15h1.368v1.674h5.652V165.15h1.368v1.674ZM22.3,180.18a1.653,1.653,0,0,0,.909-.144q.153-.144.153-.9v-7.6H14.31v-1.17H26.028v1.17h-1.3v7.56a3.151,3.151,0,0,1-.36,1.917,2.916,2.916,0,0,1-1.854.369q-.45,0-2.88-.09l-.054-1.206Q21.978,180.18,22.3,180.18Zm15.426-1.026a4.816,4.816,0,0,0,3.366-1.71A6.011,6.011,0,0,0,42.3,173.52a5.091,5.091,0,0,0-1.512-3.78,5.528,5.528,0,0,0-3.87-1.566,49.7,49.7,0,0,1-.945,5.9,14.82,14.82,0,0,1-1.251,3.645,5.27,5.27,0,0,1-1.368,1.728,2.494,2.494,0,0,1-1.494.495,3,3,0,0,1-2.385-1.566,6.55,6.55,0,0,1-1.089-3.834,7.134,7.134,0,0,1,2.313-5.508,8.552,8.552,0,0,1,6.021-2.124,6.871,6.871,0,0,1,4.941,1.863,6.27,6.27,0,0,1,1.953,4.743,7.382,7.382,0,0,1-1.512,4.833,5.674,5.674,0,0,1-4.1,2.061ZM35.55,168.246a6.7,6.7,0,0,0-4.257,2.034,6.018,6.018,0,0,0-1.593,4.266,5.457,5.457,0,0,0,.72,2.88q.72,1.188,1.44,1.188a1.194,1.194,0,0,0,.675-.243,3.209,3.209,0,0,0,.783-.945,9.159,9.159,0,0,0,.81-1.8,24.8,24.8,0,0,0,.765-3.006Q35.28,170.712,35.55,168.246Zm22.05,3.69v3.15h2.754v-3.15Zm-1.386,0h-2.7v3.15h2.7Zm-9.648-1.746H49.9v-2.916H46.224v-1.188h5.022v5.274H47.862q-.09,1.53-.216,2.88h3.636l-.036.792q-.18,2.97-.378,4.257a4.1,4.1,0,0,1-.468,1.629,1.08,1.08,0,0,1-.9.342q-.7,0-3.042-.144v-1.242q1.71.162,2.448.162a.453.453,0,0,0,.45-.216,24.389,24.389,0,0,0,.432-4.122,2.32,2.32,0,0,1,.018-.288H47.52q-.018.216-.063.657t-.081.675l-1.35-.09Q46.386,173.664,46.566,170.19Zm12.6,7,1.188-.432q1.152,2.394,2,4.446l-1.26.414q-.09-.216-.612-1.494a71.154,71.154,0,0,1-8.838.954l-.072-1.206q2.142-.072,4.644-.36v-3.348h-2.7v.9h-1.35v-6.21h4.05v-1.314q-2.61.2-4.32.234l-.054-1.17,1.1-.054q1.044-1.8,1.854-3.366l1.386.288q-.936,1.782-1.674,3.006,2.412-.126,5.112-.414-.792-1.242-1.332-2.034l1.188-.558q1.476,2.124,2.844,4.5l-1.206.558q-.144-.234-.432-.711t-.4-.675q-.09.018-2.682.27v1.44h4.1v5.31H57.6v3.186q1.71-.234,2.394-.342-.072-.162-.369-.819T59.166,177.192Zm16.452-9.306,1.26-.432a20.089,20.089,0,0,1,1.854,5.2,28.294,28.294,0,0,1,.648,6.084H77.994a27.34,27.34,0,0,0-.621-5.814A20.123,20.123,0,0,0,75.618,167.886Zm-8.37-.162a22.272,22.272,0,0,0-.774,5.976,8.458,8.458,0,0,0,.828,3.933q.828,1.593,1.674,1.593.576,0,1.485-1.161a12.733,12.733,0,0,0,1.719-3.3l1.26.486a11.493,11.493,0,0,1-2.169,3.924,3.488,3.488,0,0,1-2.385,1.422q-1.4,0-2.592-2.016a9.448,9.448,0,0,1-1.188-4.878,21.788,21.788,0,0,1,.81-6.156Zm29.826,8.766,1.26.09q-.054,1.188-.108,1.854a7.906,7.906,0,0,1-.2,1.251,3.319,3.319,0,0,1-.288.828,1.176,1.176,0,0,1-.5.423,1.853,1.853,0,0,1-.711.207q-.36.027-1.044.027a4.534,4.534,0,0,1-2.2-.324q-.45-.324-.45-1.656v-5.634h-1.71q-.414,5.922-5.22,7.812l-.576-1.206a6.458,6.458,0,0,0,3.087-2.448,8.515,8.515,0,0,0,1.341-4.158H86.094v-1.242H91.71v-3.42H88.7a17.191,17.191,0,0,1-1.476,2.934l-1.278-.594a17.67,17.67,0,0,0,2.34-5.6l1.314.252a17.561,17.561,0,0,1-.486,1.818H91.71v-2.34h1.4v2.34H97.56v1.188H93.114v3.42h5.04v1.242H94.23v5.364q0,.738.18.882a2.591,2.591,0,0,0,1.17.144q.972,0,1.17-.459A13.65,13.65,0,0,0,97.074,176.49Zm-14.706-9.936.846-.864A31.625,31.625,0,0,1,86,168.156l-.864.882A35.041,35.041,0,0,0,82.368,166.554Zm2.322,6.8q-1.476-1.44-3.078-2.718l.846-.918q1.692,1.35,3.1,2.718ZM82.1,180.666a23.32,23.32,0,0,0,2.448-5.436l1.224.432a23.619,23.619,0,0,1-2.5,5.67Zm22.77-10.584a8.614,8.614,0,0,0,2.412-2.142h-4.986A11.812,11.812,0,0,0,104.868,170.082Zm-2.178,3.492h4.788v-.954a18.849,18.849,0,0,1-2.628-1.152,16.146,16.146,0,0,1-2.16,1.008Zm-.072,3.24h4.86V174.69H102.69v.5A15.41,15.41,0,0,1,102.618,176.814Zm7.848.972V166.5h1.35v11.286Zm3.6-12.006h1.368v13.266a3.318,3.318,0,0,1-.333,1.89q-.333.378-1.665.378-.792,0-2.322-.09l-.054-1.278q1.422.09,2.16.09.576,0,.711-.162a1.752,1.752,0,0,0,.135-.9Zm-9.81-.684h1.368v1.674h4.23v1.17h-.99a10.892,10.892,0,0,1-2.808,2.79,21.844,21.844,0,0,0,4.266,1.44l-.378,1.17q-.756-.18-1.116-.288v8.208h-1.35v-3.33h-5.022a7.572,7.572,0,0,1-1.584,3.528l-1.1-.846a8.227,8.227,0,0,0,1.62-5.472v-2.2q-.576.2-1.332.4l-.27-1.224a24.111,24.111,0,0,0,3.87-1.368,15.118,15.118,0,0,1-2.538-2.142l.792-.666h-1.782v-1.17h4.122ZM-41.364,235.23h10.728V232.4H-41.364Zm0,4.014h10.728v-2.88H-41.364Zm0,1.17v.972h-1.422v-14.04h5.256a16.6,16.6,0,0,0,.882-2.448l1.422.2a20.933,20.933,0,0,1-.792,2.25h6.8v14.04h-1.422v-.972Zm10.728-9.144v-2.736H-41.364v2.736Zm17.226,8.406h3.744v1.26H-19.674v-1.26h4.86V230.46h-4.14v-1.224h4.14v-3.6h1.4v3.6h3.456v1.224H-13.41ZM-22.14,228.3h2.574v1.26a16.6,16.6,0,0,1-1.872,3.4q1.692,1.548,3.042,3.024l-.918.882q-1.206-1.314-2.862-2.862v7.56h-1.368v-6.444a15.119,15.119,0,0,1-2.664,1.926l-.378-1.44a13,13,0,0,0,5.508-6.048H-26.1V228.3h2.574v-2.826h1.386Zm25.146,3.1,1.062-.576q.882,1.458,1.674,2.952l-1.08.54Q3.78,232.656,3.006,231.4Zm2.52-.684,1.08-.594q1.062,1.746,1.728,3.024l-1.1.54Q6.408,232.152,5.526,230.712ZM-7.65,228.768v-1.26q7.146,0,14.562-.36l.072,1.26a13.767,13.767,0,0,0-6.966,2.2,5.331,5.331,0,0,0-2.412,4.428,4.336,4.336,0,0,0,1.386,3.4A5.349,5.349,0,0,0,2.7,239.676a13.709,13.709,0,0,0,2.25-.2l.162,1.26a13.961,13.961,0,0,1-2.466.216A6.923,6.923,0,0,1-2.106,239.4a5.365,5.365,0,0,1-1.764-4.239,5.972,5.972,0,0,1,1.395-3.9,9.19,9.19,0,0,1,3.969-2.673l-.018-.036Q-3.924,228.768-7.65,228.768Zm19.368,8.082H10.4V226h5.328V236.85Zm0-3.33v2.124h2.754V233.52Zm0-3.186v2.106h2.754v-2.106Zm0-1.08h2.754v-2.07H11.718Zm-2.232,11.5a11.73,11.73,0,0,0,2.358-3.456l1.1.558a11.361,11.361,0,0,1-2.466,3.636Zm3.708-2.97,1.1-.5a22.871,22.871,0,0,1,1.08,2.052,18.059,18.059,0,0,0,1.494-8.01v-5.238h9.27v1.188h-7.9V230.1h7.452v1.17a16.2,16.2,0,0,1-2.97,6.12,12.11,12.11,0,0,0,3.852,2.772l-.63,1.152a12.561,12.561,0,0,1-4.122-2.934,13.69,13.69,0,0,1-4.464,2.934l-.576-1.17a12.174,12.174,0,0,0,4.194-2.79,16.032,16.032,0,0,1-2.52-5.2l1.26-.468a14.859,14.859,0,0,0,2.16,4.626,14.9,14.9,0,0,0,2.394-5.04h-6.03v.954a16.027,16.027,0,0,1-2.34,9l-.81-.846-.486.2A22.5,22.5,0,0,0,13.194,237.786ZM43.92,226.878v1.152h-7.2v1.728h5.94v1.116H29.34v-1.116h5.94V228.03h-7.2v-1.152h7.2v-1.422h1.44v1.422Zm-.594,5.346v3.6h-1.35V233.34H30.024V236h-1.35v-3.78ZM33.3,234.33l1.35.126a6.935,6.935,0,0,1-1.521,4.437,8.533,8.533,0,0,1-4.419,2.457l-.576-1.17a7.683,7.683,0,0,0,3.861-2.061A6.048,6.048,0,0,0,33.3,234.33Zm3.906.054h1.4v4.7a2.062,2.062,0,0,0,.027.4.783.783,0,0,0,.1.234.434.434,0,0,0,.324.153q.252.036.576.054t.954.018H41.2a2.24,2.24,0,0,0,.441-.054,2.065,2.065,0,0,0,.342-.09.7.7,0,0,0,.216-.225.78.78,0,0,0,.153-.315q.018-.126.081-.513a5.321,5.321,0,0,0,.072-.684q.009-.3.027-.945l1.386.09q-.036.81-.063,1.26a8.966,8.966,0,0,1-.108.936,5.563,5.563,0,0,1-.153.711,1.339,1.339,0,0,1-.288.468,1.11,1.11,0,0,1-.4.315,3.569,3.569,0,0,1-.6.144,5.375,5.375,0,0,1-.792.081q-.378.009-1.062.009-.792,0-1.26-.018a6.4,6.4,0,0,1-.873-.09,1.947,1.947,0,0,1-.594-.18.91.91,0,0,1-.324-.333,1.167,1.167,0,0,1-.162-.486q-.027-.261-.027-.711ZM-7.272,299.946a5.972,5.972,0,0,0,3.087-1.458,3.446,3.446,0,0,0,1.125-2.574,3.218,3.218,0,0,0-2.268-3.222A12.805,12.805,0,0,1-8.775,298.2a6.782,6.782,0,0,1-4.491,2.034,2.878,2.878,0,0,1-2.2-.837,3.256,3.256,0,0,1-.792-2.331,5.019,5.019,0,0,1,1.2-3.285,7.05,7.05,0,0,1,3.3-2.151v-2.664h-3.852v-1.152h3.852v-2.268h1.314v2.268h8.046v1.152H-10.44v2.322a12.544,12.544,0,0,1,2.394-.234,7.35,7.35,0,0,1,4.626,1.305,4.265,4.265,0,0,1,1.674,3.555A4.6,4.6,0,0,1-3.132,299.3a7.054,7.054,0,0,1-3.816,1.836Zm.738-7.578a9.734,9.734,0,0,0-1.512-.108,10.16,10.16,0,0,0-2.394.27V298a10.02,10.02,0,0,0,2.223-2.313A12.978,12.978,0,0,0-6.534,292.368Zm-5.22.576a5.78,5.78,0,0,0-2.331,1.665,3.611,3.611,0,0,0-.855,2.331,2.331,2.331,0,0,0,.468,1.557,1.654,1.654,0,0,0,1.332.549,3.633,3.633,0,0,0,1.386-.288Zm15.318-6.57h1.35v4.9H4.95a8.1,8.1,0,0,1,2.457-3.33,5.353,5.353,0,0,1,3.339-1.206,3.836,3.836,0,0,1,3.222,1.494,6.864,6.864,0,0,1,1.152,4.266q0,4.266-2.394,6.273T5.22,300.774l-.054-1.26q4.518,0,6.516-1.656t2-5.364a5.768,5.768,0,0,0-.783-3.312,2.607,2.607,0,0,0-2.277-1.116,4.935,4.935,0,0,0-3.762,2.16,8.94,8.94,0,0,0-1.962,5.22H3.564Z" transform="translate(-21156 -19232.492)" fill="#707070"/>
      <path id="パス_12816" data-name="パス 12816" d="M-14.706-9.72V1.566h-1.35v-8.64a17.211,17.211,0,0,1-1.188,2.2l-.594-1.458A22.7,22.7,0,0,0-14.85-14.58l1.26.108A26.062,26.062,0,0,1-14.706-9.72ZM-11.7.756v.81h-1.35v-15.66H-1.206V1.566H-2.574V.756Zm2.79-3.42h3.546V-5.9H-8.91Zm0,1.1h-1.3V-6.984h2.412V-9.306h-3.24v-1.1h3.24v-2.07H-6.48v2.07h3.24v1.1H-6.48v2.322h2.394v5.418ZM-2.574-.4V-12.924H-11.7V-.4ZM.792.072A12.918,12.918,0,0,0,6.3-4.941,14.2,14.2,0,0,0,8.28-12.42v-2.106H9.72v2.106A14.2,14.2,0,0,0,11.7-4.941,12.918,12.918,0,0,0,17.208.072l-.756,1.116a12.7,12.7,0,0,1-4.545-3.627A15.685,15.685,0,0,1,9.054-7.92a15.685,15.685,0,0,1-2.9,5.481A12.849,12.849,0,0,1,1.548,1.188ZM-29.457,48.066h-5.688l-.252,4.248h.036a4.6,4.6,0,0,1,2.394-.63,4.081,4.081,0,0,1,2.988,1.044,3.953,3.953,0,0,1,1.062,2.952,4.36,4.36,0,0,1-1.233,3.348,5.1,5.1,0,0,1-3.609,1.152,6.827,6.827,0,0,1-3.384-.864l.36-1.188a6.146,6.146,0,0,0,3.024.846q3.4,0,3.4-3.294a2.844,2.844,0,0,0-.738-2.115,2.9,2.9,0,0,0-2.124-.729,3.428,3.428,0,0,0-2.358.828h-1.26l.4-6.8h6.984Zm11.16,0h-5.688l-.252,4.248h.036a4.6,4.6,0,0,1,2.394-.63,4.081,4.081,0,0,1,2.988,1.044,3.953,3.953,0,0,1,1.062,2.952,4.36,4.36,0,0,1-1.233,3.348A5.1,5.1,0,0,1-22.6,60.18a6.827,6.827,0,0,1-3.384-.864l.36-1.188a6.146,6.146,0,0,0,3.024.846q3.4,0,3.4-3.294a2.844,2.844,0,0,0-.738-2.115,2.9,2.9,0,0,0-2.124-.729,3.428,3.428,0,0,0-2.358.828h-1.26l.4-6.8H-18.3Zm7.506-1.386q4.752,0,4.752,6.75t-4.752,6.75a4.2,4.2,0,0,1-3.492-1.566q-1.242-1.566-1.242-5.184t1.242-5.184A4.2,4.2,0,0,1-10.791,46.68ZM-13.275,57.7a2.742,2.742,0,0,0,2.484,1.314,2.737,2.737,0,0,0,2.484-1.323,8.315,8.315,0,0,0,.828-4.257,8.315,8.315,0,0,0-.828-4.257,2.737,2.737,0,0,0-2.484-1.323,2.716,2.716,0,0,0-2.475,1.323,8.392,8.392,0,0,0-.819,4.257A8.526,8.526,0,0,0-13.275,57.7ZM.369,46.68q4.752,0,4.752,6.75T.369,60.18a4.2,4.2,0,0,1-3.492-1.566q-1.242-1.566-1.242-5.184t1.242-5.184A4.2,4.2,0,0,1,.369,46.68ZM-2.115,57.7A2.742,2.742,0,0,0,.369,59.01a2.737,2.737,0,0,0,2.484-1.323,8.315,8.315,0,0,0,.828-4.257,8.315,8.315,0,0,0-.828-4.257A2.737,2.737,0,0,0,.369,47.85a2.716,2.716,0,0,0-2.475,1.323,8.392,8.392,0,0,0-.819,4.257A8.526,8.526,0,0,0-2.115,57.7Zm16.4-10.26H9.171v5.22h5.112Zm1.368,0v5.22h5.112v-5.22ZM7.767,46.194h14.4v12.42a3.088,3.088,0,0,1-.369,1.917,3,3,0,0,1-1.881.369q-.306,0-2.826-.09l-.054-1.224q2.394.09,2.646.09a1.7,1.7,0,0,0,.936-.144,1.649,1.649,0,0,0,.144-.918v-4.77H9.171v7.182h-1.4ZM37.773,49.7l-2.97.936,1.854,2.484-.936.684-1.8-2.538-1.782,2.538-.936-.684,1.854-2.484-2.97-.936.36-1.1L33.4,49.614,33.345,46.5H34.5l-.036,3.114,2.952-1.008Zm-39.015,59.91a23.165,23.165,0,0,0-3.708-.324v6.624A23.948,23.948,0,0,1-1.1,118.578l-.828.972a33.8,33.8,0,0,0-3.024-2.214,3.545,3.545,0,0,1-.981,2.646,4.406,4.406,0,0,1-2.925.792,4.368,4.368,0,0,1-2.826-.819,2.732,2.732,0,0,1-1.008-2.241,2.577,2.577,0,0,1,1-2.16,4.541,4.541,0,0,1,2.835-.774,7.267,7.267,0,0,1,2.592.54v-7.254a33.131,33.131,0,0,1,5.184.36Zm-15.444-.36v-1.188h3.33q.486-1.6.792-2.736l1.242.18q-.306,1.242-.7,2.556H-8.64v1.188h-3.744a92.882,92.882,0,0,1-3.474,9.144l-1.206-.432q1.962-4.5,3.33-8.712ZM-6.264,116.6a6.068,6.068,0,0,0-2.592-.648q-2.52,0-2.52,1.764a1.694,1.694,0,0,0,.657,1.413,2.967,2.967,0,0,0,1.863.513,2.9,2.9,0,0,0,2.034-.549,2.893,2.893,0,0,0,.558-2.061Zm11.61-10.476Q5.13,111,5.13,114.24A15.035,15.035,0,0,0,5.337,117a3.641,3.641,0,0,0,.684,1.647,2.406,2.406,0,0,0,1.107.783,5.364,5.364,0,0,0,1.638.207,5.014,5.014,0,0,0,3.456-1.431,10.717,10.717,0,0,0,2.61-4.167l1.242.486a11.521,11.521,0,0,1-3.051,4.788,6.308,6.308,0,0,1-4.257,1.638q-2.844,0-3.942-1.449t-1.1-5.265q0-3.618.2-8.172ZM-104.04,171.594h2.124v-1.512h-2.124Zm0-4.05v1.4h2.124v-1.4Zm3.42-1.1v2.5h1.044v1.134h-1.044v2.592h-3.42v1.458h3.69v1.116h-3.69V176.8h4v1.134h-4v1.656h-1.4V177.93h-4.086V176.8h4.086v-1.548h-3.546v-1.116h3.546v-1.458h-3.24v-1.08h3.24v-1.512h-4.3v-1.134h4.3v-1.4h-3.42v-1.1h3.42v-1.08h1.4v1.08Zm-12.924,7.9,1.08-.648a22.788,22.788,0,0,0,1.152,2.718,14.349,14.349,0,0,0,.792-3.618h-2.718v-1.17a25.875,25.875,0,0,0,2.394-4.176h-2.25v-.036a24.288,24.288,0,0,1-.792,2.952v11.2H-115.2v-8.514a17.192,17.192,0,0,1-1.1,2.052l-.594-1.44a22.979,22.979,0,0,0,2.862-8.244l1.26.09q-.018.126-.063.378t-.063.378h3.312v1.188a21.393,21.393,0,0,1-2.178,4.176h2.466v1.17a17.457,17.457,0,0,1-1.206,4.914,4.992,4.992,0,0,0,2.466,1.782,14.2,14.2,0,0,0,4.14.468h4.032l-.054,1.206h-4.05a15.533,15.533,0,0,1-4.311-.486,5.982,5.982,0,0,1-2.781-1.764,11.713,11.713,0,0,1-1.836,2.538l-.81-1.008a11.691,11.691,0,0,0,1.8-2.646A19.581,19.581,0,0,1-113.544,174.348Zm25.4-.54h3.69v-1.386h-3.69Zm-1.4-3.87h-5.31v-1.062h5.31V167.76H-95.8v3.51h6.246Zm1.4,0v1.332h3.69v-1.332Zm1.98,7.182a17.237,17.237,0,0,0,2.61-2.25h-4.482A11.253,11.253,0,0,0-86.166,177.12ZM-95,175.86l.846-.828a27.161,27.161,0,0,1,2.43,2.376q.954-.648,1.674-1.206l.5.666v-2h-5.31v-1.062h5.31v-1.386H-95.8v.558a24.156,24.156,0,0,1-.45,4.761,14.1,14.1,0,0,1-1.242,3.753l-1.026-1.1a20.1,20.1,0,0,0,1.368-8.28V166.59h6.75v-1.548h1.44v1.548h6.75v1.17h-5.94v1.116h5.04v2.394h1.08v1.152h-1.08v2.43l.63.612a17.025,17.025,0,0,1-2.754,2.466,16.433,16.433,0,0,0,3.294,2.052l-.666,1.08a15.323,15.323,0,0,1-3.087-1.944,14.078,14.078,0,0,1-2.457-2.52v2.592a3.3,3.3,0,0,1-.342,1.89q-.342.4-1.656.4-.756,0-2.232-.09l-.054-1.206q1.35.09,2.016.09.576,0,.72-.162a1.606,1.606,0,0,0,.144-.882v-1.89a27.53,27.53,0,0,1-6.03,3.546l-.648-1.08a29.727,29.727,0,0,0,3.492-1.764A31.3,31.3,0,0,0-95,175.86Zm22.05-1.08v-2.52h1.908v2.52Zm20.2-6.03h1.98v-1.836h-1.98Zm-3.114,0h1.98v-1.836h-1.98Zm0,1.026h-1.242v-3.942h10.728v3.942Zm.576,5.454h7.182v-1.584H-55.3Zm7.272,3.582a18.267,18.267,0,0,0,2.538,1.314l-.648,1.062a17.054,17.054,0,0,1-5.256-3.636v4.1h-1.44v-4.284a16.838,16.838,0,0,1-5.49,3.816l-.648-1.062a15.538,15.538,0,0,0,5.634-3.852h-3.312v-3.708h9.9v3.708H-51.12a11.562,11.562,0,0,0,2.052,1.836q.99-.738,1.962-1.62l1.026.7Q-47.142,178.146-48.024,178.812Zm-9.576-11.2h-1.476v4.14h1.35v1.224h-1.35v4.5q1.332-.432,2-.684l.09,1.188a45.18,45.18,0,0,1-5.238,1.656l-.144-1.224q1.494-.378,1.926-.5V172.98h-1.71v-1.224h1.71v-4.14h-1.872v-1.26H-57.6Zm9.954-.7h-2v1.836h2ZM-57.6,171.72V170.6h11.7v1.116Zm25.56-1.89a14.011,14.011,0,0,0,1.026-2.034h-4.878q.63,1.206.99,2.034ZM-37.1,174.8v1.314h7.11V174.8Zm0-.936h7.11v-1.206H-37.1Zm9.072-7.218V167.8h-1.62a16.371,16.371,0,0,1-.954,2.034h2.88v1.116H-39.1v.81h-2.07v5.868q1.044-.45,2.25-1.08l.162,1.152a32.758,32.758,0,0,1-5.58,2.448l-.2-1.242q1.08-.342,2.016-.72v-6.426H-44.46v-1.188h1.944v-4.752h1.35v4.752h1.692v-.738h3.2q-.432-.936-1.026-2.034H-39.15v-1.152h4.914V165.1h1.422v1.548Zm-2.466,14.742a5.228,5.228,0,0,1-1.926-.207q-.378-.207-.378-1.035v-2.988h-1.98q-.486,3.24-5.472,4.482l-.612-1.152q4.248-.936,4.806-3.33h-2.43v-5.49h9.936v5.49h-2.934v2.484q0,.414.135.477a3.779,3.779,0,0,0,.963.063h.441a1.21,1.21,0,0,0,.324-.054,1.785,1.785,0,0,0,.243-.081.557.557,0,0,0,.153-.2.855.855,0,0,0,.117-.306q.018-.135.063-.486t.054-.639q.009-.288.027-.882l1.224.126q-.036.81-.054,1.2t-.081.882a4.958,4.958,0,0,1-.117.675,1.8,1.8,0,0,1-.216.432.709.709,0,0,1-.315.306q-.153.054-.477.144a2.38,2.38,0,0,1-.639.09Zm11.466-12.366V167.8h7.65v1.224Zm-3.564-2.664a30.133,30.133,0,0,0,0,14.328l-1.35.18a30.414,30.414,0,0,1,0-14.688Zm11.466,11.916.2,1.206a16.693,16.693,0,0,1-4.14.558,7.218,7.218,0,0,1-3.9-.909,2.759,2.759,0,0,1-1.431-2.421,3.516,3.516,0,0,1,.621-1.782,7.512,7.512,0,0,1,1.683-1.872l.972.828a6.733,6.733,0,0,0-1.4,1.5,2.575,2.575,0,0,0-.513,1.323A1.667,1.667,0,0,0-18,178.245a6.519,6.519,0,0,0,2.934.531A16.673,16.673,0,0,0-11.124,178.272ZM.81,168.93q.936-.882,1.638-1.656H-3.294A15.3,15.3,0,0,1-4.68,168.93Zm-5.9,9.342H-6.516v-7.686q-.738.576-1.332.972l-.378-1.35a14.159,14.159,0,0,0,4.788-5.2l1.332.234q-.036.09-.468.9H4.14v1.134a18.946,18.946,0,0,1-1.494,1.656h4.23v9.342H2.448a32.636,32.636,0,0,1,5.562,2.322l-.594,1.134a36.137,36.137,0,0,0-5.724-2.448l.414-1.008h-3.87l.486.864a18.441,18.441,0,0,1-5.85,2.448l-.5-1.188A21.214,21.214,0,0,0-2.2,178.272Zm0-2.808v1.674H5.454v-1.674Zm0-2.7v1.6H5.454v-1.6Zm0-1.116H5.454V170.1H-5.094Zm17.964,1.62v8.3H11.52v-6.408a12.727,12.727,0,0,1-1.44,1.926l-.576-1.3a17.815,17.815,0,0,0,3.528-6.318l1.242.288A17.016,17.016,0,0,1,12.87,173.268Zm3.456,3.816h3.438V174.2H16.326Zm0,1.116v1.17h-1.35v-6.3h6.1v5.13Zm9.594-11.376v1.206H22.194v1.314H20.826V168.03H15.174v1.314H13.806V168.03H10.08v-1.206h3.726V165.15h1.368v1.674h5.652V165.15h1.368v1.674ZM22.3,180.18a1.653,1.653,0,0,0,.909-.144q.153-.144.153-.9v-7.6H14.31v-1.17H26.028v1.17h-1.3v7.56a3.151,3.151,0,0,1-.36,1.917,2.916,2.916,0,0,1-1.854.369q-.45,0-2.88-.09l-.054-1.206Q21.978,180.18,22.3,180.18Zm15.426-1.026a4.816,4.816,0,0,0,3.366-1.71A6.011,6.011,0,0,0,42.3,173.52a5.091,5.091,0,0,0-1.512-3.78,5.528,5.528,0,0,0-3.87-1.566,49.7,49.7,0,0,1-.945,5.9,14.82,14.82,0,0,1-1.251,3.645,5.27,5.27,0,0,1-1.368,1.728,2.494,2.494,0,0,1-1.494.495,3,3,0,0,1-2.385-1.566,6.55,6.55,0,0,1-1.089-3.834,7.134,7.134,0,0,1,2.313-5.508,8.552,8.552,0,0,1,6.021-2.124,6.871,6.871,0,0,1,4.941,1.863,6.27,6.27,0,0,1,1.953,4.743,7.382,7.382,0,0,1-1.512,4.833,5.674,5.674,0,0,1-4.1,2.061ZM35.55,168.246a6.7,6.7,0,0,0-4.257,2.034,6.018,6.018,0,0,0-1.593,4.266,5.457,5.457,0,0,0,.72,2.88q.72,1.188,1.44,1.188a1.194,1.194,0,0,0,.675-.243,3.209,3.209,0,0,0,.783-.945,9.159,9.159,0,0,0,.81-1.8,24.8,24.8,0,0,0,.765-3.006Q35.28,170.712,35.55,168.246Zm22.05,3.69v3.15h2.754v-3.15Zm-1.386,0h-2.7v3.15h2.7Zm-9.648-1.746H49.9v-2.916H46.224v-1.188h5.022v5.274H47.862q-.09,1.53-.216,2.88h3.636l-.036.792q-.18,2.97-.378,4.257a4.1,4.1,0,0,1-.468,1.629,1.08,1.08,0,0,1-.9.342q-.7,0-3.042-.144v-1.242q1.71.162,2.448.162a.453.453,0,0,0,.45-.216,24.389,24.389,0,0,0,.432-4.122,2.32,2.32,0,0,1,.018-.288H47.52q-.018.216-.063.657t-.081.675l-1.35-.09Q46.386,173.664,46.566,170.19Zm12.6,7,1.188-.432q1.152,2.394,2,4.446l-1.26.414q-.09-.216-.612-1.494a71.154,71.154,0,0,1-8.838.954l-.072-1.206q2.142-.072,4.644-.36v-3.348h-2.7v.9h-1.35v-6.21h4.05v-1.314q-2.61.2-4.32.234l-.054-1.17,1.1-.054q1.044-1.8,1.854-3.366l1.386.288q-.936,1.782-1.674,3.006,2.412-.126,5.112-.414-.792-1.242-1.332-2.034l1.188-.558q1.476,2.124,2.844,4.5l-1.206.558q-.144-.234-.432-.711t-.4-.675q-.09.018-2.682.27v1.44h4.1v5.31H57.6v3.186q1.71-.234,2.394-.342-.072-.162-.369-.819T59.166,177.192Zm16.452-9.306,1.26-.432a20.089,20.089,0,0,1,1.854,5.2,28.294,28.294,0,0,1,.648,6.084H77.994a27.34,27.34,0,0,0-.621-5.814A20.123,20.123,0,0,0,75.618,167.886Zm-8.37-.162a22.272,22.272,0,0,0-.774,5.976,8.458,8.458,0,0,0,.828,3.933q.828,1.593,1.674,1.593.576,0,1.485-1.161a12.733,12.733,0,0,0,1.719-3.3l1.26.486a11.493,11.493,0,0,1-2.169,3.924,3.488,3.488,0,0,1-2.385,1.422q-1.4,0-2.592-2.016a9.448,9.448,0,0,1-1.188-4.878,21.788,21.788,0,0,1,.81-6.156Zm29.826,8.766,1.26.09q-.054,1.188-.108,1.854a7.906,7.906,0,0,1-.2,1.251,3.319,3.319,0,0,1-.288.828,1.176,1.176,0,0,1-.5.423,1.853,1.853,0,0,1-.711.207q-.36.027-1.044.027a4.534,4.534,0,0,1-2.2-.324q-.45-.324-.45-1.656v-5.634h-1.71q-.414,5.922-5.22,7.812l-.576-1.206a6.458,6.458,0,0,0,3.087-2.448,8.515,8.515,0,0,0,1.341-4.158H86.094v-1.242H91.71v-3.42H88.7a17.191,17.191,0,0,1-1.476,2.934l-1.278-.594a17.67,17.67,0,0,0,2.34-5.6l1.314.252a17.561,17.561,0,0,1-.486,1.818H91.71v-2.34h1.4v2.34H97.56v1.188H93.114v3.42h5.04v1.242H94.23v5.364q0,.738.18.882a2.591,2.591,0,0,0,1.17.144q.972,0,1.17-.459A13.65,13.65,0,0,0,97.074,176.49Zm-14.706-9.936.846-.864A31.625,31.625,0,0,1,86,168.156l-.864.882A35.041,35.041,0,0,0,82.368,166.554Zm2.322,6.8q-1.476-1.44-3.078-2.718l.846-.918q1.692,1.35,3.1,2.718ZM82.1,180.666a23.32,23.32,0,0,0,2.448-5.436l1.224.432a23.619,23.619,0,0,1-2.5,5.67Zm22.77-10.584a8.614,8.614,0,0,0,2.412-2.142h-4.986A11.812,11.812,0,0,0,104.868,170.082Zm-2.178,3.492h4.788v-.954a18.849,18.849,0,0,1-2.628-1.152,16.146,16.146,0,0,1-2.16,1.008Zm-.072,3.24h4.86V174.69H102.69v.5A15.41,15.41,0,0,1,102.618,176.814Zm7.848.972V166.5h1.35v11.286Zm3.6-12.006h1.368v13.266a3.318,3.318,0,0,1-.333,1.89q-.333.378-1.665.378-.792,0-2.322-.09l-.054-1.278q1.422.09,2.16.09.576,0,.711-.162a1.752,1.752,0,0,0,.135-.9Zm-9.81-.684h1.368v1.674h4.23v1.17h-.99a10.892,10.892,0,0,1-2.808,2.79,21.844,21.844,0,0,0,4.266,1.44l-.378,1.17q-.756-.18-1.116-.288v8.208h-1.35v-3.33h-5.022a7.572,7.572,0,0,1-1.584,3.528l-1.1-.846a8.227,8.227,0,0,0,1.62-5.472v-2.2q-.576.2-1.332.4l-.27-1.224a24.111,24.111,0,0,0,3.87-1.368,15.118,15.118,0,0,1-2.538-2.142l.792-.666h-1.782v-1.17h4.122Zm-105.5,64.518a23.167,23.167,0,0,0-3.708-.324v6.624A23.948,23.948,0,0,1-1.1,238.578l-.828.972a33.8,33.8,0,0,0-3.024-2.214,3.545,3.545,0,0,1-.981,2.646,4.406,4.406,0,0,1-2.925.792,4.368,4.368,0,0,1-2.826-.819,2.732,2.732,0,0,1-1.008-2.241,2.577,2.577,0,0,1,1-2.16,4.541,4.541,0,0,1,2.835-.774,7.267,7.267,0,0,1,2.592.54v-7.254a33.131,33.131,0,0,1,5.184.36Zm-15.444-.36v-1.188h3.33q.486-1.6.792-2.736l1.242.18q-.306,1.242-.7,2.556H-8.64v1.188h-3.744a92.883,92.883,0,0,1-3.474,9.144l-1.206-.432q1.962-4.5,3.33-8.712ZM-6.264,236.6a6.068,6.068,0,0,0-2.592-.648q-2.52,0-2.52,1.764a1.694,1.694,0,0,0,.657,1.413,2.967,2.967,0,0,0,1.863.513,2.9,2.9,0,0,0,2.034-.549,2.893,2.893,0,0,0,.558-2.061Zm11.61-10.476Q5.13,231,5.13,234.24A15.035,15.035,0,0,0,5.337,237a3.641,3.641,0,0,0,.684,1.647,2.406,2.406,0,0,0,1.107.783,5.364,5.364,0,0,0,1.638.207,5.014,5.014,0,0,0,3.456-1.431,10.717,10.717,0,0,0,2.61-4.167l1.242.486a11.521,11.521,0,0,1-3.051,4.788,6.308,6.308,0,0,1-4.257,1.638q-2.844,0-3.942-1.449t-1.1-5.265q0-3.618.2-8.172Zm-6.588,63.492a23.163,23.163,0,0,0-3.708-.324v6.624A23.948,23.948,0,0,1-1.1,298.578l-.828.972a33.8,33.8,0,0,0-3.024-2.214,3.545,3.545,0,0,1-.981,2.646,4.406,4.406,0,0,1-2.925.792,4.368,4.368,0,0,1-2.826-.819,2.732,2.732,0,0,1-1.008-2.241,2.577,2.577,0,0,1,1-2.16,4.541,4.541,0,0,1,2.835-.774,7.267,7.267,0,0,1,2.592.54v-7.254a33.133,33.133,0,0,1,5.184.36Zm-15.444-.36v-1.188h3.33q.486-1.6.792-2.736l1.242.18q-.306,1.242-.7,2.556H-8.64v1.188h-3.744a92.881,92.881,0,0,1-3.474,9.144l-1.206-.432q1.962-4.5,3.33-8.712ZM-6.264,296.6a6.068,6.068,0,0,0-2.592-.648q-2.52,0-2.52,1.764a1.694,1.694,0,0,0,.657,1.413,2.967,2.967,0,0,0,1.863.513,2.9,2.9,0,0,0,2.034-.549,2.893,2.893,0,0,0,.558-2.061Zm11.61-10.476Q5.13,291,5.13,294.24A15.035,15.035,0,0,0,5.337,297a3.641,3.641,0,0,0,.684,1.647,2.406,2.406,0,0,0,1.107.783,5.364,5.364,0,0,0,1.638.207,5.014,5.014,0,0,0,3.456-1.431,10.718,10.718,0,0,0,2.61-4.167l1.242.486a11.521,11.521,0,0,1-3.051,4.788,6.308,6.308,0,0,1-4.257,1.638q-2.844,0-3.942-1.449t-1.1-5.265q0-3.618.2-8.172Z" transform="translate(-20877 -19232.492)" fill="#707070"/>
      <path id="パス_12819" data-name="パス 12819" d="M3.192-17.328H20.808v3.48H14.04V-3.432h7.488V.048H2.472v-3.48H9.96V-13.848H3.192ZM27.36-2.592Q34.9-3.24,38.244-6t4.524-9.408l3.672.624q-1.392,7.92-5.616,11.508T27.96,1.08ZM26.4-9.576l.7-3.336q4.248.72,7.992,1.536l-.72,3.336Q30.528-8.88,26.4-9.576Zm1.152-5.736.72-3.408q3.84.648,8.16,1.536l-.72,3.432Q30.72-14.784,27.552-15.312ZM56.28-19.2h3.768q0,2.4-.048,3.48h8.952v3.048q0,3.048-.084,5.184a32.058,32.058,0,0,1-.324,3.66,14.247,14.247,0,0,1-.552,2.412,3.341,3.341,0,0,1-.864,1.392,2.75,2.75,0,0,1-1.14.66,6.109,6.109,0,0,1-1.524.156q-1.9,0-5.112-.336l.312-3.5q2.616.24,3.6.24a1.044,1.044,0,0,0,.948-.468,6.126,6.126,0,0,0,.48-2.2q.18-1.728.18-5.28V-12.24H59.736a22.432,22.432,0,0,1-2.16,7.992,17.514,17.514,0,0,1-4.8,5.52L50.328-1.392a14.4,14.4,0,0,0,3.888-4.38,17.69,17.69,0,0,0,1.752-6.468h-5.4v-3.48h5.64Q56.28-17.328,56.28-19.2Zm20.832.912h3.936v4.968A41.288,41.288,0,0,1,80.5-5.628,9.579,9.579,0,0,1,78.72-1.392a10.673,10.673,0,0,1-3.648,2.664L72.936-1.992q.984-.528,1.572-.924a5.344,5.344,0,0,0,1.116-1.032,4.342,4.342,0,0,0,.768-1.308,10.981,10.981,0,0,0,.432-1.872,21.085,21.085,0,0,0,.24-2.6q.048-1.4.048-3.588ZM87.552-3.12a4.825,4.825,0,0,0,2.88-2.316,13.5,13.5,0,0,0,1.3-5.1l3.672.5Q94.9-4.3,92.172-1.656T84.192.984h-.624V-18.288h3.984Zm11.28.6A21.762,21.762,0,0,0,106.02-5.4a11.862,11.862,0,0,0,4.14-4.884,23.627,23.627,0,0,0,1.872-7.884l4.3.408q-.744,8.5-4.464,12.84T100.176,1.272ZM121.992-6.7v-3.888h20.016V-6.7Zm24.24-7.32v-3.576h19.584v3.576a16.464,16.464,0,0,1-3.252,5.556A21.451,21.451,0,0,1,156.936-4.1q.792,1.152,2.424,3.552l-3.48,2.136Q152.472-3.5,148.8-8.448l3.36-2.256q.384.5,1.224,1.632t1.248,1.7a19.058,19.058,0,0,0,4.224-3.06,12.553,12.553,0,0,0,2.688-3.588Zm26.88-4.272h3.936v4.968a41.289,41.289,0,0,1-.552,7.692,9.579,9.579,0,0,1-1.776,4.236,10.673,10.673,0,0,1-3.648,2.664l-2.136-3.264q.984-.528,1.572-.924a5.344,5.344,0,0,0,1.116-1.032,4.342,4.342,0,0,0,.768-1.308,10.981,10.981,0,0,0,.432-1.872,21.082,21.082,0,0,0,.24-2.6q.048-1.4.048-3.588ZM183.552-3.12a4.825,4.825,0,0,0,2.88-2.316,13.5,13.5,0,0,0,1.3-5.1l3.672.5q-.5,5.736-3.228,8.376t-7.98,2.64h-.624V-18.288h3.984Z" transform="translate(-21587 -19294.492)" fill="#fff"/>
      <path id="パス_12818" data-name="パス 12818" d="M.624,0,6.552-17.52h4.32L16.776,0h-4.32L11.424-3.792H5.88L4.872,0Zm6.1-6.888h3.888l-1.92-7.1H8.64Zm18.432-9.264h3v1.3h4.56v-4.608h3.84v4.608h3.816v3.216H36.552v9.984h4.08V1.656H26.88V-1.656h5.832V-11.64H27.624q-.312.624-1.032,1.824,2.256,2.3,3.768,4.1L27.792-3.576q-1.056-1.3-2.736-3.1v9h-3.72v-6.96a16.389,16.389,0,0,1-2.592,1.68l-.84-3.84a13.785,13.785,0,0,0,6.24-6.048H18.6v-3.312h2.832v-3.456h3.72Z" transform="translate(-21176 -19294.492)" fill="#707070"/>
      <path id="パス_12817" data-name="パス 12817" d="M5.832-10.584h.792q3.5,0,3.5-2.088,0-1.992-2.952-1.992a5.77,5.77,0,0,0-1.344.144Zm0,2.928V-3a7.09,7.09,0,0,0,1.44.144,3.973,3.973,0,0,0,2.5-.636,2.358,2.358,0,0,0,.792-1.956q0-2.208-3.624-2.208ZM14.376-5.04a4.63,4.63,0,0,1-1.752,3.984Q10.872.24,7.1.24a37,37,0,0,1-5.28-.36V-17.4a33.654,33.654,0,0,1,5.04-.36q6.96,0,6.96,4.488a3.715,3.715,0,0,1-.984,2.592,4.355,4.355,0,0,1-2.616,1.344v.048A4.86,4.86,0,0,1,13.26-7.872,3.967,3.967,0,0,1,14.376-5.04Zm8.5-11.112h3v1.3h4.56v-4.608h3.84v4.608h3.816v3.216H34.272v9.984h4.08V1.656H24.6V-1.656h5.832V-11.64H25.344q-.312.624-1.032,1.824,2.256,2.3,3.768,4.1L25.512-3.576q-1.056-1.3-2.736-3.1v9h-3.72v-6.96a16.389,16.389,0,0,1-2.592,1.68l-.84-3.84a13.785,13.785,0,0,0,6.24-6.048H16.32v-3.312h2.832v-3.456h3.72Z" transform="translate(-20896 -19294.492)" fill="#707070"/>
      <path id="パス_12814" data-name="パス 12814" d="M-8.118-14.616A39.894,39.894,0,0,0-.63-9.378l-.612,1.17A37.9,37.9,0,0,1-9-13.68a37.9,37.9,0,0,1-7.758,5.472l-.612-1.17a39.893,39.893,0,0,0,7.488-5.238ZM-1.08.99H-16.92V-.234h2.484v-7.74h1.386v7.74h3.69V-10.89h1.4v4.446h6.03v1.188h-6.03V-.234H-1.08ZM10.71-8.55a14.932,14.932,0,0,0,1.17-2.466H6.21Q6.768-9.828,7.236-8.55Zm5.85,4.806v1.1H10.584A25.41,25.41,0,0,0,17.262.072l-.594,1.116A24.508,24.508,0,0,1,9.72-1.962V1.566H8.28V-1.962a24.508,24.508,0,0,1-6.948,3.15L.738.072A25.41,25.41,0,0,0,7.416-2.646H1.44v-1.1H8.28v-1.35H2.286V-6.156H8.28V-7.47H1.62V-8.55H5.814Q5.2-10.1,4.77-11.016H1.26V-12.15H3.708q-.594-1.026-1.1-1.782l1.152-.5A23.422,23.422,0,0,1,5.13-12.15H6.7v-2.52H7.974v2.52h2.052v-2.52H11.3v2.52h1.62a20.791,20.791,0,0,0,1.314-2.286l1.17.432q-.558,1.062-1.044,1.854H16.74v1.134H13.3A17.231,17.231,0,0,1,12.186-8.55H16.38v1.08H9.72v1.314h5.994v1.062H9.72v1.35ZM-28.422,52.3a3.1,3.1,0,0,0-2.286.9,3.12,3.12,0,0,0-.9,2.3,3.617,3.617,0,0,0,.846,2.574,3.056,3.056,0,0,0,2.34.9,3.1,3.1,0,0,0,2.376-.9A3.617,3.617,0,0,0-25.2,55.5a3.144,3.144,0,0,0-.873-2.34A3.193,3.193,0,0,0-28.422,52.3Zm0,7.884a4.45,4.45,0,0,1-3.411-1.314,5.321,5.321,0,0,1-1.233-3.78A9.187,9.187,0,0,1-31.293,49.2a6.742,6.742,0,0,1,4.887-2.52l.252,1.206a5.746,5.746,0,0,0-5.256,4.662l.018.018a4.187,4.187,0,0,1,3.276-1.386,4.331,4.331,0,0,1,3.177,1.161A4.232,4.232,0,0,1-23.76,55.5a4.591,4.591,0,0,1-1.278,3.411A4.592,4.592,0,0,1-28.422,60.18Zm7.92-2.646h1.818l-1.8,4.446h-1.332Zm8.64-10.854q4.752,0,4.752,6.75t-4.752,6.75a4.2,4.2,0,0,1-3.492-1.566Q-16.6,57.048-16.6,53.43t1.242-5.184A4.2,4.2,0,0,1-11.862,46.68ZM-14.346,57.7a2.742,2.742,0,0,0,2.484,1.314,2.737,2.737,0,0,0,2.484-1.323A8.315,8.315,0,0,0-8.55,53.43a8.315,8.315,0,0,0-.828-4.257,2.737,2.737,0,0,0-2.484-1.323,2.716,2.716,0,0,0-2.475,1.323,8.392,8.392,0,0,0-.819,4.257A8.526,8.526,0,0,0-14.346,57.7ZM-.7,46.68q4.752,0,4.752,6.75T-.7,60.18a4.2,4.2,0,0,1-3.492-1.566q-1.242-1.566-1.242-5.184t1.242-5.184A4.2,4.2,0,0,1-.7,46.68ZM-3.186,57.7A2.742,2.742,0,0,0-.7,59.01a2.737,2.737,0,0,0,2.484-1.323A8.315,8.315,0,0,0,2.61,53.43a8.315,8.315,0,0,0-.828-4.257A2.737,2.737,0,0,0-.7,47.85a2.716,2.716,0,0,0-2.475,1.323A8.392,8.392,0,0,0-4,53.43,8.526,8.526,0,0,0-3.186,57.7ZM10.458,46.68q4.752,0,4.752,6.75t-4.752,6.75a4.2,4.2,0,0,1-3.492-1.566Q5.724,57.048,5.724,53.43t1.242-5.184A4.2,4.2,0,0,1,10.458,46.68ZM7.974,57.7a2.742,2.742,0,0,0,2.484,1.314,2.737,2.737,0,0,0,2.484-1.323,8.315,8.315,0,0,0,.828-4.257,8.315,8.315,0,0,0-.828-4.257,2.737,2.737,0,0,0-2.484-1.323,2.716,2.716,0,0,0-2.475,1.323,8.392,8.392,0,0,0-.819,4.257A8.526,8.526,0,0,0,7.974,57.7Zm16.4-10.26H19.26v5.22h5.112Zm1.368,0v5.22h5.112v-5.22Zm-7.884-1.242h14.4v12.42a3.089,3.089,0,0,1-.369,1.917,3,3,0,0,1-1.881.369q-.306,0-2.826-.09l-.054-1.224q2.394.09,2.646.09a1.7,1.7,0,0,0,.936-.144,1.649,1.649,0,0,0,.144-.918v-4.77H19.26v7.182h-1.4ZM-85.059,108.516H-96.507v2.574h-1.836v-4.14h6.57v-1.8h1.98v1.8h6.57v4.14h-1.836Zm2.34,11.124-.108,1.656h-1.206a27.215,27.215,0,0,1-7.506-.783,7.8,7.8,0,0,1-4.086-2.835,27.577,27.577,0,0,1-1.782,3.906l-1.638-.684a26.153,26.153,0,0,0,2.772-7.578l1.746.342q-.18,1.008-.486,2.088a7.338,7.338,0,0,0,1.467,1.863,6.343,6.343,0,0,0,2.025,1.179V111.63h-4.338v-1.566h10.152v1.566h-3.834v2.61H-84.3v1.584h-5.238V119.3a34.962,34.962,0,0,0,5.6.342Zm12.672-7.956v1.44q0,.936-.018,1.386h3.222v-2.826Zm0-1.584h3.2v-2.61h-3.2Zm-8.028,4.284v1.566h2.97v-1.566Zm0-2.934v1.53h2.97v-1.53Zm0-1.386h2.97V108.57h-2.97Zm10.512,9.72q.54,0,.63-.108a1.826,1.826,0,0,0,.09-.792v-2.808h-3.312a13.924,13.924,0,0,1-1.566,5.49l-1.476-1.188-.936.576a19.214,19.214,0,0,0-1.89-2.772l1.08-.7h-3.042l1.026.666a13.283,13.283,0,0,1-2.718,3.546l-1.278-1.1a14.315,14.315,0,0,0,2.5-3.114h-2.592v-1.53h1.17v-7.38h-1.08V107h1.08V105.51h1.8V107h2.97V105.51h1.71V107h.99v1.566h-.99v7.38h.954v1.53h-2.034a16.96,16.96,0,0,1,1.566,2.268,10.516,10.516,0,0,0,.873-2.961,31.637,31.637,0,0,0,.243-4.437v-6.48h6.786v12.96q0,.972-.036,1.422a1.607,1.607,0,0,1-.234.756.78.78,0,0,1-.5.369,4.906,4.906,0,0,1-.927.063q-.558,0-2.394-.09l-.09-1.656Q-67.833,119.784-67.563,119.784Zm11.97-3.114v.846h6.354v-.846Zm0-1.35h6.354v-.864h-6.354Zm-6.894-8.442,1.116-1.3a32.868,32.868,0,0,1,2.97,2.43l-1.116,1.35A38.173,38.173,0,0,0-62.487,106.878ZM-60,113.592a38.925,38.925,0,0,0-3.276-2.754l1.1-1.3a30.726,30.726,0,0,1,3.294,2.7Zm1.584,1.89a21.458,21.458,0,0,1-2.808,5.976l-1.53-1.026a23.962,23.962,0,0,0,2.718-5.6Zm7.146-4.626h4.734v1.44H-58.293v-1.44h5.04v-.792h-4.14v-1.4h4.14v-.81h-4.59v-1.494h4.59V105.24h1.98v1.116h4.446v1.494h-4.446v.81h4.014v1.4h-4.014Zm1.494,10.548q-.324,0-2-.108l-.036-1.62,1.854.108a1.656,1.656,0,0,0,.63-.063q.09-.063.09-.441v-.4l-6.354-.018v2.574h-1.926v-8.46h10.206v6.3q0,1.458-.387,1.791A3.864,3.864,0,0,1-49.779,121.4Zm19.566-5.868V114.33h-3.33v1.206Zm-.954-4.986v-.9h-7.776V108.3h7.776v-.9H-39.3v-1.584h10.08v6.174H-39.3v-1.44Zm-4.266,3.78h-2.934v1.206h2.934ZM-40,108.444v1.62h-1.53V113.9q.648-.234,1.368-.54V112.8h11.754v3.6h-.9v2.106a3.142,3.142,0,0,1-.306,1.809q-.306.315-1.728.315-.414,0-1.476-.072l-.036-1.6q.828.054,1.116.054a1.281,1.281,0,0,0,.549-.063q.081-.063.081-.441v-1.53h-2.43V121.8h-1.89v-4.824h-2.034v3.708h-1.8V116.4h-.9v-1.3q-.324.144-1.368.522v3.294a4.633,4.633,0,0,1-.306,2.2q-.306.414-1.62.414-.324,0-1.494-.09l-.072-1.566q1.116.09,1.3.09.234,0,.27-.126a4.966,4.966,0,0,0,.036-.828v-2.754q-.27.072-1.6.414l-.126-1.71q.864-.18,1.728-.432v-4.464h-1.71v-1.62h1.71V105.42h1.89v3.024Zm20.232,4h-3.834v1.116h3.834Zm1.98,0v1.116h3.834V112.44Zm-1.98-1.26v-1.044h-3.834v1.044Zm1.98,0h3.834v-1.044h-3.834Zm-2.142,7.992-.99,1.512a36.45,36.45,0,0,0-3.708-2.2l.846-1.332h-3.1v-1.512h11.07v-.72h-9.63V108.8h5.67v-.774h-7.11V106.5h7.11v-1.35h1.98v1.35h7.11v1.53h-7.11v.774h5.67v6.12h-1.71v.72h3.15v1.512h-3.15V119.1q0,.63-.018.981a2.134,2.134,0,0,1-.135.657,1.09,1.09,0,0,1-.261.432,1.328,1.328,0,0,1-.5.225,3.4,3.4,0,0,1-.747.117q-.387.018-1.089.018-.666,0-3.15-.09l-.072-1.62q2.34.09,2.916.09a2.194,2.194,0,0,0,.945-.108q.135-.108.135-.738v-1.908h-7.542A35.129,35.129,0,0,1-19.935,119.172ZM4.977,113.79H-.387v-8.01H6.921v13a3.621,3.621,0,0,1-.414,2.205,3.427,3.427,0,0,1-2.16.423q-.216,0-.585-.018t-1.053-.045q-.684-.027-1.242-.045l-.09-1.656q2.3.09,2.61.09a1.533,1.533,0,0,0,.846-.135q.144-.135.144-.819Zm0-3.294H1.467v1.764h3.51Zm0-1.386v-1.746H1.467v1.746ZM-6.543,110.5v1.764h3.33V110.5Zm0-1.386h3.33v-1.746h-3.33Zm-1.944-3.33h7.128v8.01H-6.543v7.686H-8.487Zm30.15,1.08-6.21,13.86H14.067l6.192-13.86Zm17.568,5.418H36.6v1.53h2.628Zm1.4,0v1.53h2.628v-1.53Zm-1.4-.972v-1.422H36.6v1.422Zm1.4,0h2.628v-1.422H40.635Zm4.7-3.4h-4.7v.972h3.942v5.958H43.389v.972h1.944v1.134H43.389v2.34a3.356,3.356,0,0,1-.279,1.773q-.279.333-1.467.333-.5,0-2.34-.09l-.054-1.206q1.674.09,2.16.09.45,0,.522-.117a2.431,2.431,0,0,0,.072-.819v-2.3H34.749v-1.134H42v-.972h-6.7v-5.958h3.924V107.9H34.623V106.77h4.608v-1.494h1.4v1.494h2.034q-.72-.72-1.278-1.206l1.026-.594q1.044.918,1.872,1.8h1.044Zm-6.948,12.618a20.2,20.2,0,0,0-2.592-2.7l.954-.756a20.609,20.609,0,0,1,2.628,2.682Zm-5.6-9.738,1.08-.288a35.864,35.864,0,0,1,1.152,4.392l-1.1.216q-.108-.468-.216-.972l-1.512.09v7.344h-1.35v-7.254l-2.538.162-.036-1.17,1.278-.072q.5-.72.756-1.1-1.044-1.836-2.124-3.564l.774-1.1q.378.612.684,1.116.792-1.494,1.566-3.258l1.134.5q-.918,2.034-2,3.942.126.216.7,1.224,1.08-1.746,2.16-3.834l1.08.558a52.887,52.887,0,0,1-3.222,5.418L33.435,113Q33.165,111.972,32.787,110.784Zm-4.572,9.594a31.187,31.187,0,0,0,.774-5.04l1.134.108a30.9,30.9,0,0,1-.774,5.166Zm6.39-.414-1.17.108q-.234-2.862-.522-4.644l1.116-.162Q34.425,117.84,34.605,119.964Zm14.742-13.59H50.7v4.9h.036a8.1,8.1,0,0,1,2.457-3.33,5.352,5.352,0,0,1,3.339-1.206,3.836,3.836,0,0,1,3.222,1.494,6.864,6.864,0,0,1,1.152,4.266q0,4.266-2.394,6.273T51,120.774l-.054-1.26q4.518,0,6.516-1.656t2-5.364a5.768,5.768,0,0,0-.783-3.312,2.607,2.607,0,0,0-2.277-1.116,4.935,4.935,0,0,0-3.762,2.16,8.94,8.94,0,0,0-1.962,5.22H49.347Zm31.194,3.24a23.165,23.165,0,0,0-3.708-.324v6.624a23.948,23.948,0,0,1,3.852,2.664l-.828.972a33.8,33.8,0,0,0-3.024-2.214,3.545,3.545,0,0,1-.981,2.646,5.533,5.533,0,0,1-5.751-.027,2.732,2.732,0,0,1-1.008-2.241,2.577,2.577,0,0,1,1-2.16,4.541,4.541,0,0,1,2.835-.774,7.267,7.267,0,0,1,2.592.54v-7.254a33.131,33.131,0,0,1,5.184.36Zm-15.444-.36v-1.188h3.33q.486-1.6.792-2.736l1.242.18q-.306,1.242-.7,2.556h3.384v1.188H69.4a92.882,92.882,0,0,1-3.474,9.144l-1.206-.432q1.962-4.5,3.33-8.712ZM75.519,116.6a6.068,6.068,0,0,0-2.592-.648q-2.52,0-2.52,1.764a1.694,1.694,0,0,0,.657,1.413,2.967,2.967,0,0,0,1.863.513,2.129,2.129,0,0,0,2.592-2.61Zm11.61-10.476q-.216,4.878-.216,8.118A15.035,15.035,0,0,0,87.12,117a3.641,3.641,0,0,0,.684,1.647,2.406,2.406,0,0,0,1.107.783,5.364,5.364,0,0,0,1.638.207A5.014,5.014,0,0,0,94,118.209a10.717,10.717,0,0,0,2.61-4.167l1.242.486a11.521,11.521,0,0,1-3.051,4.788,6.308,6.308,0,0,1-4.257,1.638q-2.844,0-3.942-1.449t-1.1-5.265q0-3.618.2-8.172Zm-203.337,73.95a12.918,12.918,0,0,0,5.508-5.013,14.2,14.2,0,0,0,1.98-7.479v-2.106h1.44v2.106a14.2,14.2,0,0,0,1.98,7.479,12.918,12.918,0,0,0,5.508,5.013l-.756,1.116a12.7,12.7,0,0,1-4.545-3.627,15.685,15.685,0,0,1-2.853-5.481,15.685,15.685,0,0,1-2.9,5.481,12.849,12.849,0,0,1-4.608,3.627ZM-94.374,166.1l1.4-.216q.5,2.988,1.224,5.814a39.053,39.053,0,0,1,7.47-2.376l.27,1.242a31.465,31.465,0,0,0-8.154,2.772q-2.7,1.53-2.7,3.24,0,2.88,5.346,2.88a41.189,41.189,0,0,0,5.508-.414l.144,1.26a42.369,42.369,0,0,1-5.652.414,9.909,9.909,0,0,1-5.058-1.044,3.347,3.347,0,0,1-1.728-3.042q0-2.394,3.24-4.266Q-93.888,169.074-94.374,166.1Zm23.616,2.646h1.98v-1.836h-1.98Zm-3.114,0h1.98v-1.836h-1.98Zm0,1.026h-1.242v-3.942h10.728v3.942Zm.576,5.454h7.182v-1.584H-73.3Zm7.272,3.582a18.268,18.268,0,0,0,2.538,1.314l-.648,1.062a17.054,17.054,0,0,1-5.256-3.636v4.1h-1.44v-4.284a16.838,16.838,0,0,1-5.49,3.816l-.648-1.062a15.538,15.538,0,0,0,5.634-3.852h-3.312v-3.708h9.9v3.708H-69.12a11.562,11.562,0,0,0,2.052,1.836q.99-.738,1.962-1.62l1.026.7Q-65.142,178.146-66.024,178.812Zm-9.576-11.2h-1.476v4.14h1.35v1.224h-1.35v4.5q1.332-.432,2-.684l.09,1.188a45.18,45.18,0,0,1-5.238,1.656l-.144-1.224q1.494-.378,1.926-.5V172.98h-1.71v-1.224h1.71v-4.14h-1.872v-1.26H-75.6Zm9.954-.7h-2v1.836h2ZM-75.6,171.72V170.6h11.7v1.116Zm25.56-1.89a14.011,14.011,0,0,0,1.026-2.034h-4.878q.63,1.206.99,2.034ZM-55.1,174.8v1.314h7.11V174.8Zm0-.936h7.11v-1.206H-55.1Zm9.072-7.218V167.8h-1.62a16.371,16.371,0,0,1-.954,2.034h2.88v1.116H-57.1v.81h-2.07v5.868q1.044-.45,2.25-1.08l.162,1.152a32.758,32.758,0,0,1-5.58,2.448l-.2-1.242q1.08-.342,2.016-.72v-6.426H-62.46v-1.188h1.944v-4.752h1.35v4.752h1.692v-.738h3.2q-.432-.936-1.026-2.034H-57.15v-1.152h4.914V165.1h1.422v1.548Zm-2.466,14.742a5.228,5.228,0,0,1-1.926-.207q-.378-.207-.378-1.035v-2.988h-1.98q-.486,3.24-5.472,4.482l-.612-1.152q4.248-.936,4.806-3.33h-2.43v-5.49h9.936v5.49h-2.934v2.484q0,.414.135.477a3.779,3.779,0,0,0,.963.063h.441a1.21,1.21,0,0,0,.324-.054,1.785,1.785,0,0,0,.243-.081.557.557,0,0,0,.153-.2.855.855,0,0,0,.117-.306q.018-.135.063-.486t.054-.639q.009-.288.027-.882l1.224.126q-.036.81-.054,1.2t-.081.882a4.958,4.958,0,0,1-.117.675,1.8,1.8,0,0,1-.216.432.709.709,0,0,1-.315.306q-.153.054-.477.144a2.38,2.38,0,0,1-.639.09Zm11.466-12.366V167.8h7.65v1.224Zm-3.564-2.664a28.045,28.045,0,0,0-.864,7.164,28.045,28.045,0,0,0,.864,7.164l-1.35.18a28.773,28.773,0,0,1-.9-7.344,28.773,28.773,0,0,1,.9-7.344Zm11.466,11.916.2,1.206a16.693,16.693,0,0,1-4.14.558,7.218,7.218,0,0,1-3.9-.909,2.759,2.759,0,0,1-1.431-2.421,3.516,3.516,0,0,1,.621-1.782,7.512,7.512,0,0,1,1.683-1.872l.972.828a6.733,6.733,0,0,0-1.4,1.5,2.575,2.575,0,0,0-.513,1.323A1.667,1.667,0,0,0-36,178.245a6.519,6.519,0,0,0,2.934.531A16.673,16.673,0,0,0-29.124,178.272Zm5.31-7.578v10.872h-1.332v-8.352a15.534,15.534,0,0,1-1.188,2.034l-.558-1.584a21.6,21.6,0,0,0,3.222-8.244l1.278.18A23.408,23.408,0,0,1-23.814,170.694Zm7.686,8.082a13.115,13.115,0,0,0,2.5-1.26h-5.058A14.921,14.921,0,0,0-16.128,178.776Zm-3.762-7.344v.72h7.344v-.72Zm0-1.4v.72h7.344v-.72Zm0-.7h7.344v-.7H-19.89Zm-2.25-2.232V166H-9.954v1.1h-5.76a6.114,6.114,0,0,1-.306.7h4.9v4.356H-9.81v2.808h-1.008q.378.522.864,1.224l-.954.684a23.447,23.447,0,0,0-1.746-2.358,2.867,2.867,0,0,1-.162.747,1.447,1.447,0,0,1-.288.45,1.119,1.119,0,0,1-.666.252q-.486.063-1.008.09t-1.6.027q-.27,0-.693-.009t-.585-.009q-.162.162-.594.522h6.372v.936a11.868,11.868,0,0,1-2.754,1.764,28.489,28.489,0,0,0,5.022.936l-.252,1.17a25.394,25.394,0,0,1-6.318-1.458,27.841,27.841,0,0,1-6.39,1.458l-.252-1.152a29.225,29.225,0,0,0,5.148-.936,11.593,11.593,0,0,1-2.142-1.26l.666-.522h-.414a16.581,16.581,0,0,1-2.97,1.422l-.4-1.062a15.573,15.573,0,0,0,3.87-1.944.655.655,0,0,1-.432-.306,1.82,1.82,0,0,1-.09-.684v-1.476h1.26v1.116q0,.432.243.5a10.1,10.1,0,0,0,1.683.072h.8q.243,0,.585-.027l.441-.036a.791.791,0,0,0,.27-.1.5.5,0,0,0,.2-.144q.027-.054.1-.234a1.058,1.058,0,0,0,.081-.306q.009-.126.027-.432l1.152.072.684-.5q.684.792.99,1.188v-1.53h-5.238a16.464,16.464,0,0,1,1.764.81l-.576.864a20.618,20.618,0,0,0-2.592-1.134l.342-.54h-4v1.548a6.95,6.95,0,0,0,.738-1.08l.936.576a7.764,7.764,0,0,1-2.106,2.538l-.81-.756a10.671,10.671,0,0,0,.99-.972h-1.008v-2.808h1.332V167.8h3.8l.324-.7Zm18.486-.972Q-3.87,171-3.87,174.24A15.035,15.035,0,0,0-3.663,177a3.641,3.641,0,0,0,.684,1.647,2.406,2.406,0,0,0,1.107.783,5.364,5.364,0,0,0,1.638.207,5.014,5.014,0,0,0,3.456-1.431,10.717,10.717,0,0,0,2.61-4.167l1.242.486a11.521,11.521,0,0,1-3.051,4.788,6.308,6.308,0,0,1-4.257,1.638q-2.844,0-3.942-1.449t-1.1-5.265q0-3.618.2-8.172Zm25.272,1.764,1.26-.432a20.089,20.089,0,0,1,1.854,5.2,28.294,28.294,0,0,1,.648,6.084H23.994a27.34,27.34,0,0,0-.621-5.814A20.123,20.123,0,0,0,21.618,167.886Zm-8.37-.162a22.272,22.272,0,0,0-.774,5.976,8.458,8.458,0,0,0,.828,3.933q.828,1.593,1.674,1.593.576,0,1.485-1.161a12.733,12.733,0,0,0,1.719-3.3l1.26.486a11.493,11.493,0,0,1-2.169,3.924,3.488,3.488,0,0,1-2.385,1.422q-1.4,0-2.592-2.016a9.448,9.448,0,0,1-1.188-4.878,21.788,21.788,0,0,1,.81-6.156Zm29.826,8.766,1.26.09q-.054,1.188-.108,1.854a7.905,7.905,0,0,1-.2,1.251,3.319,3.319,0,0,1-.288.828,1.176,1.176,0,0,1-.495.423,1.853,1.853,0,0,1-.711.207q-.36.027-1.044.027a4.534,4.534,0,0,1-2.2-.324q-.45-.324-.45-1.656v-5.634h-1.71q-.414,5.922-5.22,7.812l-.576-1.206a6.458,6.458,0,0,0,3.087-2.448,8.515,8.515,0,0,0,1.341-4.158H32.094v-1.242H37.71v-3.42H34.7a17.191,17.191,0,0,1-1.476,2.934l-1.278-.594a17.67,17.67,0,0,0,2.34-5.6l1.314.252a17.561,17.561,0,0,1-.486,1.818H37.71v-2.34h1.4v2.34H43.56v1.188H39.114v3.42h5.04v1.242H40.23v5.364q0,.738.18.882a2.591,2.591,0,0,0,1.17.144q.972,0,1.17-.459A13.65,13.65,0,0,0,43.074,176.49Zm-14.706-9.936.846-.864A31.626,31.626,0,0,1,32,168.156l-.864.882A35.042,35.042,0,0,0,28.368,166.554Zm2.322,6.8q-1.476-1.44-3.078-2.718l.846-.918q1.692,1.35,3.1,2.718ZM28.1,180.666a23.32,23.32,0,0,0,2.448-5.436l1.224.432a23.619,23.619,0,0,1-2.5,5.67Zm22.77-10.584a8.614,8.614,0,0,0,2.412-2.142H48.294A11.812,11.812,0,0,0,50.868,170.082Zm-2.178,3.492h4.788v-.954a18.849,18.849,0,0,1-2.628-1.152,16.146,16.146,0,0,1-2.16,1.008Zm-.072,3.24h4.86V174.69H48.69v.5A15.411,15.411,0,0,1,48.618,176.814Zm7.848.972V166.5h1.35v11.286Zm3.6-12.006h1.368v13.266a3.318,3.318,0,0,1-.333,1.89q-.333.378-1.665.378-.792,0-2.322-.09l-.054-1.278q1.422.09,2.16.09.576,0,.711-.162a1.752,1.752,0,0,0,.135-.9Zm-9.81-.684h1.368v1.674h4.23v1.17h-.99a10.892,10.892,0,0,1-2.808,2.79,21.844,21.844,0,0,0,4.266,1.44l-.378,1.17q-.756-.18-1.116-.288v8.208h-1.35v-3.33H48.456a7.572,7.572,0,0,1-1.584,3.528l-1.1-.846a8.227,8.227,0,0,0,1.62-5.472v-2.2q-.576.2-1.332.4l-.27-1.224a24.111,24.111,0,0,0,3.87-1.368,15.118,15.118,0,0,1-2.538-2.142l.792-.666H46.134v-1.17h4.122ZM78.012,180.36a27.244,27.244,0,0,1-4.518.36,10.924,10.924,0,0,1-4.761-.765,2.549,2.549,0,0,1-1.467-2.421q0-2.862,5.418-4.392a2.23,2.23,0,0,0-.675-1.152,1.741,1.741,0,0,0-1.089-.324,4.185,4.185,0,0,0-2.439,1.044,13.805,13.805,0,0,0-2.745,3.006l-1.1-.7a35.288,35.288,0,0,0,3.618-6.228h-3.51v-1.152h4q.414-1.008.81-2.2l1.3.306q-.36.954-.72,1.89H77.94v1.152h-8.3q-.594,1.35-1.314,2.79l.018.018a5.123,5.123,0,0,1,2.808-1.08,2.807,2.807,0,0,1,2.826,2.3q1.818-.414,4.122-.7l.126,1.17q-2.448.324-4,.684a21.3,21.3,0,0,1,.234,3.51H73.08a25.046,25.046,0,0,0-.162-3.168q-4.284,1.242-4.284,3.114a1.758,1.758,0,0,0,.18.828,1.878,1.878,0,0,0,.666.657,4,4,0,0,0,1.494.477,16.3,16.3,0,0,0,2.52.162,27.078,27.078,0,0,0,4.392-.4Zm9.954-6.57h3.4q.072-.846.072-2.124v-1.26H87.966Zm-3.132-3.708v11.484h-1.35v-8.8A15.589,15.589,0,0,1,81.9,175.23l-.612-1.512a21.146,21.146,0,0,0,3.492-8.3l1.314.252A21.541,21.541,0,0,1,84.834,170.082Zm13.356-3.258v1.206H92.844v1.26H97.65v6.75H96.3v-1.134H92.646a8.4,8.4,0,0,1-1.08,3.222,13.046,13.046,0,0,0,6.7,1.908L98.1,181.26a14.183,14.183,0,0,1-7.326-2.16,9.257,9.257,0,0,1-4.68,2.16l-.414-1.206a8.862,8.862,0,0,0,3.978-1.782,10.2,10.2,0,0,1-2.052-2.34l1.116-.684a9.965,9.965,0,0,0,1.728,2.016,6.783,6.783,0,0,0,.774-2.358h-4.59V169.29H91.44v-1.26H86.346v-1.206H91.44v-1.53h1.4v1.53ZM96.3,173.79v-3.384H92.844v1.26q0,1.26-.072,2.124Zm11.214-2.466H102.96v1.746q0,1.152-.036,1.674h4.59Zm1.35,0v3.42h4.986v-3.42Zm-1.35-1.1v-3.15H102.96v3.15Zm1.35,0h4.986v-3.15h-4.986Zm-7.29-4.32h13.662V179.1a3.151,3.151,0,0,1-.36,1.917,2.958,2.958,0,0,1-1.872.369q-.36,0-2.52-.09l-.054-1.17q2.07.09,2.376.09.756,0,.9-.153a1.652,1.652,0,0,0,.144-.909V175.86h-4.986v5.22h-1.35v-5.22h-4.68a11.16,11.16,0,0,1-2.052,5.688l-1.152-.9a9.269,9.269,0,0,0,1.512-3.276,21.24,21.24,0,0,0,.432-4.806ZM-113.364,235.23h10.728V232.4h-10.728Zm0,4.014h10.728v-2.88h-10.728Zm0,1.17v.972h-1.422v-14.04h5.256a16.6,16.6,0,0,0,.882-2.448l1.422.2a20.935,20.935,0,0,1-.792,2.25h6.8v14.04h-1.422v-.972Zm10.728-9.144v-2.736h-10.728v2.736Zm17.226,8.406h3.744v1.26H-91.674v-1.26h4.86V230.46h-4.14v-1.224h4.14v-3.6h1.4v3.6h3.456v1.224H-85.41ZM-94.14,228.3h2.574v1.26a16.6,16.6,0,0,1-1.872,3.4q1.692,1.548,3.042,3.024l-.918.882q-1.206-1.314-2.862-2.862v7.56h-1.368v-6.444a15.119,15.119,0,0,1-2.664,1.926l-.378-1.44a13,13,0,0,0,5.508-6.048H-98.1V228.3h2.574v-2.826h1.386Zm25.146,3.1,1.062-.576q.882,1.458,1.674,2.952l-1.08.54Q-68.22,232.656-68.994,231.4Zm2.52-.684,1.08-.594q1.062,1.746,1.728,3.024l-1.1.54Q-65.592,232.152-66.474,230.712Zm-13.176-1.944v-1.26q7.146,0,14.562-.36l.072,1.26a13.767,13.767,0,0,0-6.966,2.2,5.331,5.331,0,0,0-2.412,4.428,4.336,4.336,0,0,0,1.386,3.4,5.349,5.349,0,0,0,3.708,1.242,13.709,13.709,0,0,0,2.25-.2l.162,1.26a13.961,13.961,0,0,1-2.466.216,6.923,6.923,0,0,1-4.752-1.557,5.365,5.365,0,0,1-1.764-4.239,5.972,5.972,0,0,1,1.4-3.9,9.19,9.19,0,0,1,3.969-2.673l-.018-.036Q-75.924,228.768-79.65,228.768Zm18.5-.2h9.216v-2.88h1.35v2.88h4.086v1.224H-50.58v8.19a2.832,2.832,0,0,1-.414,1.881,2.884,2.884,0,0,1-1.872.4,28.67,28.67,0,0,1-3.042-.18l.09-1.26a24.125,24.125,0,0,0,2.844.18,1.342,1.342,0,0,0,.864-.18,1.342,1.342,0,0,0,.18-.864v-6.678a36.538,36.538,0,0,1-8.55,6.8l-.63-1.1a34.709,34.709,0,0,0,4.662-3.213,35.441,35.441,0,0,0,4.194-3.987h-8.892Zm29.106-1.944h1.476v4.608q0,4.536-2.052,6.786t-6.7,2.88l-.306-1.314q4.212-.63,5.9-2.475t1.683-5.841Zm-9.4,7.92v-7.92H-40v7.92Zm17.3,4.86q5.724-.5,8.505-2.853t3.7-7.5l1.314.216q-.99,5.58-4.1,8.253t-9.207,3.2Zm9.54-13.68.99-.522q.738,1.206,1.512,2.682l-.99.5Q-13.734,227.148-14.6,225.726Zm2.43-.288,1.008-.54q.72,1.206,1.548,2.754l-1.008.5Q-11.412,226.662-12.168,225.438Zm-12.69,6.966.252-1.278q3.15.54,5.85,1.1l-.252,1.3Q-23.292,232.674-24.858,232.4Zm.774-4.428.252-1.3q3.132.5,6.12,1.116l-.252,1.278Q-20.5,228.552-24.084,227.976Zm16.578,1.584H-.054v-3.654h1.44v3.654h6.12v1.314H1.386v.486q0,4.284-1.512,6.354t-5.22,2.88l-.45-1.278a7.338,7.338,0,0,0,4.5-2.448q1.242-1.71,1.242-5.508v-.486H-7.506Zm21.132-2.826h1.44v3.546a28.988,28.988,0,0,1-.4,5.508,6.941,6.941,0,0,1-1.242,3.006,6.977,6.977,0,0,1-2.475,1.8l-.738-1.188a6.094,6.094,0,0,0,2.124-1.557,5.724,5.724,0,0,0,.99-2.565,30.546,30.546,0,0,0,.306-5Zm6.12,12.366a5.514,5.514,0,0,0,3.6-2.079,8.621,8.621,0,0,0,1.62-4.617l1.314.162a9.2,9.2,0,0,1-2.385,5.823,7.078,7.078,0,0,1-5.3,2.115h-.288v-13.77h1.44Zm23.328-2.61,1.26.09q-.054,1.188-.108,1.854a7.905,7.905,0,0,1-.2,1.251,3.319,3.319,0,0,1-.288.828,1.176,1.176,0,0,1-.495.423,1.853,1.853,0,0,1-.711.207q-.36.027-1.044.027a4.534,4.534,0,0,1-2.2-.324q-.45-.324-.45-1.656v-5.634h-1.71q-.414,5.922-5.22,7.812l-.576-1.206a6.458,6.458,0,0,0,3.087-2.448,8.515,8.515,0,0,0,1.341-4.158H32.094v-1.242H37.71v-3.42H34.7a17.191,17.191,0,0,1-1.476,2.934l-1.278-.594a17.67,17.67,0,0,0,2.34-5.6l1.314.252a17.561,17.561,0,0,1-.486,1.818H37.71v-2.34h1.4v2.34H43.56v1.188H39.114v3.42h5.04v1.242H40.23v5.364q0,.738.18.882a2.591,2.591,0,0,0,1.17.144q.972,0,1.17-.459A13.65,13.65,0,0,0,43.074,236.49Zm-14.706-9.936.846-.864A31.626,31.626,0,0,1,32,228.156l-.864.882A35.042,35.042,0,0,0,28.368,226.554Zm2.322,6.8q-1.476-1.44-3.078-2.718l.846-.918q1.692,1.35,3.1,2.718ZM28.1,240.666a23.32,23.32,0,0,0,2.448-5.436l1.224.432a23.619,23.619,0,0,1-2.5,5.67Zm22.77-10.584a8.614,8.614,0,0,0,2.412-2.142H48.294A11.812,11.812,0,0,0,50.868,230.082Zm-2.178,3.492h4.788v-.954a18.849,18.849,0,0,1-2.628-1.152,16.146,16.146,0,0,1-2.16,1.008Zm-.072,3.24h4.86V234.69H48.69v.5A15.411,15.411,0,0,1,48.618,236.814Zm7.848.972V226.5h1.35v11.286Zm3.6-12.006h1.368v13.266a3.318,3.318,0,0,1-.333,1.89q-.333.378-1.665.378-.792,0-2.322-.09l-.054-1.278q1.422.09,2.16.09.576,0,.711-.162a1.752,1.752,0,0,0,.135-.9Zm-9.81-.684h1.368v1.674h4.23v1.17h-.99a10.892,10.892,0,0,1-2.808,2.79,21.844,21.844,0,0,0,4.266,1.44l-.378,1.17q-.756-.18-1.116-.288v8.208h-1.35v-3.33H48.456a7.572,7.572,0,0,1-1.584,3.528l-1.1-.846a8.227,8.227,0,0,0,1.62-5.472v-2.2q-.576.2-1.332.4l-.27-1.224a24.111,24.111,0,0,0,3.87-1.368,15.118,15.118,0,0,1-2.538-2.142l.792-.666H46.134v-1.17h4.122ZM78.012,240.36a27.244,27.244,0,0,1-4.518.36,10.924,10.924,0,0,1-4.761-.765,2.549,2.549,0,0,1-1.467-2.421q0-2.862,5.418-4.392a2.23,2.23,0,0,0-.675-1.152,1.741,1.741,0,0,0-1.089-.324,4.185,4.185,0,0,0-2.439,1.044,13.805,13.805,0,0,0-2.745,3.006l-1.1-.7a35.288,35.288,0,0,0,3.618-6.228h-3.51v-1.152h4q.414-1.008.81-2.2l1.3.306q-.36.954-.72,1.89H77.94v1.152h-8.3q-.594,1.35-1.314,2.79l.018.018a5.123,5.123,0,0,1,2.808-1.08,2.807,2.807,0,0,1,2.826,2.3q1.818-.414,4.122-.7l.126,1.17q-2.448.324-4,.684a21.3,21.3,0,0,1,.234,3.51H73.08a25.046,25.046,0,0,0-.162-3.168q-4.284,1.242-4.284,3.114a1.758,1.758,0,0,0,.18.828,1.878,1.878,0,0,0,.666.657,4,4,0,0,0,1.494.477,16.3,16.3,0,0,0,2.52.162,27.078,27.078,0,0,0,4.392-.4Zm5.706-3.51H82.4V226h5.328V236.85Zm0-3.33v2.124h2.754V233.52Zm0-3.186v2.106h2.754v-2.106Zm0-1.08h2.754v-2.07H83.718Zm-2.232,11.5a11.731,11.731,0,0,0,2.358-3.456l1.1.558a11.361,11.361,0,0,1-2.466,3.636Zm3.708-2.97,1.1-.5a22.871,22.871,0,0,1,1.08,2.052,18.059,18.059,0,0,0,1.494-8.01v-5.238h9.27v1.188h-7.9V230.1h7.452v1.17a16.2,16.2,0,0,1-2.97,6.12,12.11,12.11,0,0,0,3.852,2.772l-.63,1.152a12.561,12.561,0,0,1-4.122-2.934,13.69,13.69,0,0,1-4.464,2.934l-.576-1.17a12.174,12.174,0,0,0,4.194-2.79,16.032,16.032,0,0,1-2.52-5.2l1.26-.468a14.859,14.859,0,0,0,2.16,4.626,14.9,14.9,0,0,0,2.394-5.04h-6.03v.954a16.027,16.027,0,0,1-2.34,9l-.81-.846-.486.2A22.5,22.5,0,0,0,85.194,237.786Zm30.726-10.908v1.152h-7.2v1.728h5.94v1.116H101.34v-1.116h5.94V228.03h-7.2v-1.152h7.2v-1.422h1.44v1.422Zm-.594,5.346v3.6h-1.35V233.34H102.024V236h-1.35v-3.78ZM105.3,234.33l1.35.126a6.935,6.935,0,0,1-1.521,4.437,8.533,8.533,0,0,1-4.419,2.457l-.576-1.17A7.683,7.683,0,0,0,104,238.119,6.048,6.048,0,0,0,105.3,234.33Zm3.906.054h1.4v4.7a2.062,2.062,0,0,0,.027.4.783.783,0,0,0,.1.234.434.434,0,0,0,.324.153q.252.036.576.054t.954.018h.612a2.24,2.24,0,0,0,.441-.054,2.065,2.065,0,0,0,.342-.09.7.7,0,0,0,.216-.225.78.78,0,0,0,.153-.315q.018-.126.081-.513a5.322,5.322,0,0,0,.072-.684q.009-.3.027-.945l1.386.09q-.036.81-.063,1.26a8.965,8.965,0,0,1-.108.936,5.564,5.564,0,0,1-.153.711,1.339,1.339,0,0,1-.288.468,1.11,1.11,0,0,1-.4.315,3.569,3.569,0,0,1-.6.144,5.375,5.375,0,0,1-.792.081q-.378.009-1.062.009-.792,0-1.26-.018a6.4,6.4,0,0,1-.873-.09,1.947,1.947,0,0,1-.594-.18.91.91,0,0,1-.324-.333,1.167,1.167,0,0,1-.162-.486q-.027-.261-.027-.711ZM-7.272,299.946a5.972,5.972,0,0,0,3.087-1.458,3.446,3.446,0,0,0,1.125-2.574,3.218,3.218,0,0,0-2.268-3.222A12.805,12.805,0,0,1-8.775,298.2a6.782,6.782,0,0,1-4.491,2.034,2.878,2.878,0,0,1-2.2-.837,3.256,3.256,0,0,1-.792-2.331,5.019,5.019,0,0,1,1.2-3.285,7.05,7.05,0,0,1,3.3-2.151v-2.664h-3.852v-1.152h3.852v-2.268h1.314v2.268h8.046v1.152H-10.44v2.322a12.544,12.544,0,0,1,2.394-.234,7.35,7.35,0,0,1,4.626,1.305,4.265,4.265,0,0,1,1.674,3.555A4.6,4.6,0,0,1-3.132,299.3a7.054,7.054,0,0,1-3.816,1.836Zm.738-7.578a9.734,9.734,0,0,0-1.512-.108,10.16,10.16,0,0,0-2.394.27V298a10.02,10.02,0,0,0,2.223-2.313A12.978,12.978,0,0,0-6.534,292.368Zm-5.22.576a5.78,5.78,0,0,0-2.331,1.665,3.611,3.611,0,0,0-.855,2.331,2.331,2.331,0,0,0,.468,1.557,1.654,1.654,0,0,0,1.332.549,3.633,3.633,0,0,0,1.386-.288Zm15.318-6.57h1.35v4.9H4.95a8.1,8.1,0,0,1,2.457-3.33,5.353,5.353,0,0,1,3.339-1.206,3.836,3.836,0,0,1,3.222,1.494,6.864,6.864,0,0,1,1.152,4.266q0,4.266-2.394,6.273T5.22,300.774l-.054-1.26q4.518,0,6.516-1.656t2-5.364a5.768,5.768,0,0,0-.783-3.312,2.607,2.607,0,0,0-2.277-1.116,4.935,4.935,0,0,0-3.762,2.16,8.94,8.94,0,0,0-1.962,5.22H3.564Z" transform="translate(-21491 -19232.492)" fill="#fff"/>
      <path id="パス_12811" data-name="パス 12811" d="M707.307-13949.188H813.2" transform="translate(-22297 -5155)" fill="none" stroke="#ffeb00" stroke-width="2"/>
      <path id="パス_12812" data-name="パス 12812" d="M707.307-13949.188H938.581" transform="translate(-22312.58 -5095)" fill="none" stroke="#ffeb00" stroke-width="2"/>
      <path id="パス_12820" data-name="パス 12820" d="M.4-9.538l-3.211.98L-.788-5.889-2.227-4.826-4.145-7.578-6.064-4.826l-1.46-1.063L-5.5-8.558l-3.211-.98.563-1.71,3.17,1.105L-5.042-13.5h1.793l-.063,3.357,3.17-1.105Z" transform="translate(-21115 -19173)" fill="red"/>
      <path id="パス_12821" data-name="パス 12821" d="M.4-9.538l-3.211.98L-.788-5.889-2.227-4.826-4.145-7.578-6.064-4.826l-1.46-1.063L-5.5-8.558l-3.211-.98.563-1.71,3.17,1.105L-5.042-13.5h1.793l-.063,3.357,3.17-1.105Z" transform="translate(-20839 -19173)" fill="red"/>
    </g>
  </g>
</svg>
