<svg xmlns="http://www.w3.org/2000/svg" xmlns:xlink="http://www.w3.org/1999/xlink" width="923" height="228" viewBox="0 0 923 228">
  <defs>
    <filter id="長方形_5030" x="0" y="51" width="923" height="75" filterUnits="userSpaceOnUse">
      <feOffset dy="3" input="SourceAlpha"/>
      <feGaussianBlur stdDeviation="3" result="blur"/>
      <feFlood flood-opacity="0.161"/>
      <feComposite operator="in" in2="blur"/>
      <feComposite in="SourceGraphic"/>
    </filter>
  </defs>
  <g id="グループ_3181" data-name="グループ 3181" transform="translate(21961 18768)">
    <g transform="matrix(1, 0, 0, 1, -21961, -18768)" filter="url(#長方形_5030)">
      <rect id="長方形_5030-2" data-name="長方形 5030" width="905" height="57" transform="translate(9 57)" fill="#233060"/>
    </g>
    <rect id="長方形_5031" data-name="長方形 5031" width="881" height="57" transform="translate(-21942 -18654)" fill="#f2f3f6"/>
    <rect id="長方形_5032" data-name="長方形 5032" width="881" height="57" transform="translate(-21942 -18597)" fill="#fff"/>
    <rect id="長方形_5033" data-name="長方形 5033" width="881" height="57" transform="translate(-21942 -18768)" fill="#fff"/>
    <path id="パス_12835" data-name="パス 12835" d="M-5.412-9.744A26.6,26.6,0,0,0-.42-6.252l-.408.78A25.266,25.266,0,0,1-6-9.12a25.266,25.266,0,0,1-5.172,3.648l-.408-.78A26.6,26.6,0,0,0-6.588-9.744ZM-.72.66H-11.28V-.156h1.656v-5.16H-8.7v5.16h2.46v-7.1H-5.3V-4.3h4.02V-3.5H-5.3V-.156H-.72ZM7.14-5.7a9.955,9.955,0,0,0,.78-1.644H4.14q.372.792.684,1.644Zm3.9,3.2v.732H7.056A16.94,16.94,0,0,0,11.508.048l-.4.744a16.339,16.339,0,0,1-4.632-2.1V1.044H5.52V-1.308A16.339,16.339,0,0,1,.888.792L.492.048A16.94,16.94,0,0,0,4.944-1.764H.96V-2.5H5.52v-.9h-4V-4.1h4V-4.98H1.08V-5.7h2.8q-.408-1.032-.7-1.644H.84V-8.1H2.472q-.4-.684-.732-1.188l.768-.336A15.615,15.615,0,0,1,3.42-8.1H4.464V-9.78h.852V-8.1H6.684V-9.78h.852V-8.1h1.08a13.86,13.86,0,0,0,.876-1.524l.78.288q-.372.708-.7,1.236H11.16v.756H8.868A11.487,11.487,0,0,1,8.124-5.7h2.8v.72H6.48V-4.1h4V-3.4h-4v.9Z" transform="translate(-21810 -18678)" fill="#d3d5df"/>
    <path id="パス_12838" data-name="パス 12838" d="M-6-8.9a24.1,24.1,0,0,1-5.124,3.648l-.54-1.068a25.1,25.1,0,0,0,4.872-3.42h1.584A25.1,25.1,0,0,0-.336-6.324l-.54,1.068A24.1,24.1,0,0,1-6-8.9ZM-8.544-.36h2.16V-7.224H-5.1V-4.38h3.876V-3.3H-5.1V-.36H-.66v1.1H-11.34V-.36h1.524v-4.9h1.272ZM7.164-5.784A8.6,8.6,0,0,0,7.8-7.176H4.272q.324.732.564,1.392ZM11.1-2.58v1H7.428A19.711,19.711,0,0,0,11.6-.084L11.052.924A17.449,17.449,0,0,1,6.66-.972V1.08H5.34V-.972A17.449,17.449,0,0,1,.948.924L.4-.084a19.711,19.711,0,0,0,4.176-1.5H.9v-1H5.34v-.66H1.44v-.936h3.9v-.648H1.02v-.96H3.528q-.36-.936-.564-1.392H.78V-8.184H2.16q-.48-.84-.612-1.044l1.044-.444a14.791,14.791,0,0,1,.864,1.488H4.3V-9.816H5.46v1.632H6.54V-9.816H7.7v1.632h.888A16.187,16.187,0,0,0,9.4-9.66l1.068.36a11.761,11.761,0,0,1-.588,1.116H11.22v1.008H9.1a11.043,11.043,0,0,1-.6,1.392H10.98v.96H6.66v.648h3.9v.936H6.66v.66Z" transform="translate(-21810 -18621)" fill="#707070"/>
    <path id="パス_12837" data-name="パス 12837" d="M-9.84,0l3.12-8.76h1.44L-2.16,0H-3.576l-.756-2.328H-7.716L-8.472,0Zm2.448-3.36h2.736l-1.356-4.2h-.024Zm14.88,2.9H9.8V.7H3.2V-.456h3V-6.18H3.684V-7.3H6.2V-9.624H7.488V-7.3H9.624V-6.18H7.488ZM1.7-7.92h1.62v1.14A10.251,10.251,0,0,1,2.256-4.8Q3.528-3.564,4.212-2.808l-.84.816Q2.616-2.856,1.68-3.768V1.08H.408V-2.892A8.358,8.358,0,0,1-1.2-1.776l-.312-1.332A7.957,7.957,0,0,0,1.944-6.78h-3.12V-7.92H.444v-1.8H1.7Z" transform="translate(-21898 -18621)" fill="#707070"/>
    <path id="パス_12849" data-name="パス 12849" d="M-9.6-6.6V1.08h-1.224V-4.14a11.836,11.836,0,0,1-.588,1.056L-11.9-4.476a14.7,14.7,0,0,0,1.8-5.28l1.128.072A19.923,19.923,0,0,1-9.6-6.6ZM-7.5.576v.5H-8.736V-9.48H-.72V1.08H-1.98v-.5Zm1.956-2.664h1.608v-1.68H-5.544Zm0,.984H-6.72V-4.74h1.38V-5.976H-7.1V-6.96H-5.34V-8.184h1.2V-6.96h1.764v.984H-4.14V-4.74h1.38V-1.1Zm3.564.648V-8.424H-7.5V-.456ZM.456-.12A8.729,8.729,0,0,0,4.074-3.432,9.361,9.361,0,0,0,5.34-8.34V-9.72H6.66v1.38A9.361,9.361,0,0,0,7.926-3.432,8.729,8.729,0,0,0,11.544-.12L10.836.9A8.4,8.4,0,0,1,7.962-1.38,10.85,10.85,0,0,1,6.048-4.812,10.725,10.725,0,0,1,4.092-1.38,8.616,8.616,0,0,1,1.164.9Z" transform="translate(-21810 -18564)" fill="#707070"/>
    <path id="パス_12850" data-name="パス 12850" d="M-7.35-5.184h.48a4,4,0,0,0,1.9-.336,1.1,1.1,0,0,0,.582-1.02,1.085,1.085,0,0,0-.468-.972A2.864,2.864,0,0,0-6.39-7.824a4.927,4.927,0,0,0-.96.084Zm0,1.032V-1.02a6.169,6.169,0,0,0,1.08.084,2.652,2.652,0,0,0,1.656-.42A1.541,1.541,0,0,0-4.086-2.64a1.229,1.229,0,0,0-.636-1.146A4.583,4.583,0,0,0-6.87-4.152ZM-2.79-2.52Q-2.79.12-6.27.12a15.088,15.088,0,0,1-2.4-.18V-8.7a13.584,13.584,0,0,1,2.28-.18q3.24,0,3.24,2.16a1.834,1.834,0,0,1-.492,1.266,2.277,2.277,0,0,1-1.308.7v.024a2.728,2.728,0,0,1,1.584.744A2.009,2.009,0,0,1-2.79-2.52ZM6.918-.456H9.234V.7h-6.6V-.456h3V-6.18H3.114V-7.3h2.52V-9.624H6.918V-7.3H9.054V-6.18H6.918ZM1.134-7.92h1.62v1.14A10.251,10.251,0,0,1,1.686-4.8Q2.958-3.564,3.642-2.808l-.84.816Q2.046-2.856,1.11-3.768V1.08H-.162V-2.892A8.358,8.358,0,0,1-1.77-1.776l-.312-1.332A7.957,7.957,0,0,0,1.374-6.78h-3.12V-7.92h1.62v-1.8h1.26Z" transform="translate(-21898 -18564)" fill="#707070"/>
    <path id="パス_12834" data-name="パス 12834" d="M-18.948-5.136a2.065,2.065,0,0,0-1.524.6A2.08,2.08,0,0,0-21.072-3a2.412,2.412,0,0,0,.564,1.716,2.037,2.037,0,0,0,1.56.6,2.068,2.068,0,0,0,1.584-.6A2.412,2.412,0,0,0-16.8-3a2.1,2.1,0,0,0-.582-1.56A2.129,2.129,0,0,0-18.948-5.136Zm0,5.256a2.967,2.967,0,0,1-2.274-.876,3.547,3.547,0,0,1-.822-2.52A6.125,6.125,0,0,1-20.862-7.2,4.5,4.5,0,0,1-17.6-8.88l.168.8a3.831,3.831,0,0,0-3.5,3.108l.012.012a2.791,2.791,0,0,1,2.184-.924,2.887,2.887,0,0,1,2.118.774A2.821,2.821,0,0,1-15.84-3a3.061,3.061,0,0,1-.852,2.274A3.062,3.062,0,0,1-18.948.12Zm5.28-1.764h1.212l-1.2,2.964h-.888Zm5.76-7.236q3.168,0,3.168,4.5T-7.908.12A2.8,2.8,0,0,1-10.236-.924a5.622,5.622,0,0,1-.828-3.456,5.622,5.622,0,0,1,.828-3.456A2.8,2.8,0,0,1-7.908-8.88ZM-9.564-1.536A1.828,1.828,0,0,0-7.908-.66a1.825,1.825,0,0,0,1.656-.882A5.544,5.544,0,0,0-5.7-4.38a5.544,5.544,0,0,0-.552-2.838A1.825,1.825,0,0,0-7.908-8.1a1.811,1.811,0,0,0-1.65.882A5.6,5.6,0,0,0-10.1-4.38,5.684,5.684,0,0,0-9.564-1.536Zm9.1-7.344Q2.7-8.88,2.7-4.38T-.468.12A2.8,2.8,0,0,1-2.8-.924,5.622,5.622,0,0,1-3.624-4.38,5.622,5.622,0,0,1-2.8-7.836,2.8,2.8,0,0,1-.468-8.88ZM-2.124-1.536A1.828,1.828,0,0,0-.468-.66a1.825,1.825,0,0,0,1.656-.882A5.544,5.544,0,0,0,1.74-4.38a5.544,5.544,0,0,0-.552-2.838A1.825,1.825,0,0,0-.468-8.1a1.811,1.811,0,0,0-1.65.882A5.6,5.6,0,0,0-2.664-4.38,5.684,5.684,0,0,0-2.124-1.536Zm9.1-7.344q3.168,0,3.168,4.5T6.972.12A2.8,2.8,0,0,1,4.644-.924,5.622,5.622,0,0,1,3.816-4.38a5.622,5.622,0,0,1,.828-3.456A2.8,2.8,0,0,1,6.972-8.88ZM5.316-1.536A1.828,1.828,0,0,0,6.972-.66a1.825,1.825,0,0,0,1.656-.882A5.544,5.544,0,0,0,9.18-4.38a5.544,5.544,0,0,0-.552-2.838A1.825,1.825,0,0,0,6.972-8.1a1.811,1.811,0,0,0-1.65.882A5.6,5.6,0,0,0,4.776-4.38,5.684,5.684,0,0,0,5.316-1.536Zm10.932-6.84H12.84V-4.9h3.408Zm.912,0V-4.9h3.408v-3.48ZM11.9-9.2h9.6v8.28A2.059,2.059,0,0,1,21.258.354,2,2,0,0,1,20,.6Q19.8.6,18.12.54l-.036-.816q1.6.06,1.764.06a1.134,1.134,0,0,0,.624-.1,1.1,1.1,0,0,0,.1-.612V-4.1H12.84V.684H11.9Z" transform="translate(-21695 -18678)" fill="#d3d5df"/>
    <path id="パス_12839" data-name="パス 12839" d="M-19.344-5.16a2.94,2.94,0,0,0,1.272-.576,1.127,1.127,0,0,0,.444-.864,1.083,1.083,0,0,0-.444-.912,2.076,2.076,0,0,0-1.272-.336,2,2,0,0,0-1.242.33,1.1,1.1,0,0,0-.426.918,1.148,1.148,0,0,0,.426.882A2.739,2.739,0,0,0-19.344-5.16Zm-.06,1.02a3.224,3.224,0,0,0-1.44.678,1.338,1.338,0,0,0-.492,1A1.357,1.357,0,0,0-20.8-1.326a2.322,2.322,0,0,0,1.458.414,2.219,2.219,0,0,0,1.434-.414A1.382,1.382,0,0,0-17.4-2.46Q-17.4-3.72-19.4-4.14Zm2.436,3.576A3.7,3.7,0,0,1-19.344.12a3.727,3.727,0,0,1-2.382-.684A2.227,2.227,0,0,1-22.584-2.4a2.011,2.011,0,0,1,.48-1.29,3.073,3.073,0,0,1,1.32-.918v-.024a2.587,2.587,0,0,1-1.11-.858,2.065,2.065,0,0,1-.39-1.23,1.874,1.874,0,0,1,.78-1.566,3.491,3.491,0,0,1,2.16-.594,3.491,3.491,0,0,1,2.16.594A1.874,1.874,0,0,1-16.4-6.72a2.076,2.076,0,0,1-1.5,1.968v.024A2.323,2.323,0,0,1-16.1-2.4,2.221,2.221,0,0,1-16.968-.564ZM-14.04-1.8h1.68l-1.32,3.12h-1.2Zm3.828-6.012A2.874,2.874,0,0,1-7.776-8.88a2.857,2.857,0,0,1,2.43,1.068,5.734,5.734,0,0,1,.81,3.432,5.734,5.734,0,0,1-.81,3.432A2.857,2.857,0,0,1-7.776.12a2.857,2.857,0,0,1-2.43-1.068,5.734,5.734,0,0,1-.81-3.432A5.767,5.767,0,0,1-10.212-7.812Zm.984,6.1a1.591,1.591,0,0,0,1.452.78A1.574,1.574,0,0,0-6.33-1.722,5.448,5.448,0,0,0-5.856-4.38,5.448,5.448,0,0,0-6.33-7.038a1.574,1.574,0,0,0-1.446-.786,1.574,1.574,0,0,0-1.446.786A5.448,5.448,0,0,0-9.7-4.38,5.547,5.547,0,0,0-9.228-1.716Zm6.576-6.1A2.874,2.874,0,0,1-.216-8.88a2.857,2.857,0,0,1,2.43,1.068,5.734,5.734,0,0,1,.81,3.432,5.734,5.734,0,0,1-.81,3.432A2.857,2.857,0,0,1-.216.12,2.857,2.857,0,0,1-2.646-.948a5.734,5.734,0,0,1-.81-3.432A5.767,5.767,0,0,1-2.652-7.812Zm.984,6.1a1.591,1.591,0,0,0,1.452.78A1.574,1.574,0,0,0,1.23-1.722,5.448,5.448,0,0,0,1.7-4.38,5.448,5.448,0,0,0,1.23-7.038,1.574,1.574,0,0,0-.216-7.824a1.574,1.574,0,0,0-1.446.786A5.448,5.448,0,0,0-2.136-4.38,5.547,5.547,0,0,0-1.668-1.716Zm6.576-6.1A2.874,2.874,0,0,1,7.344-8.88a2.857,2.857,0,0,1,2.43,1.068,5.734,5.734,0,0,1,.81,3.432,5.734,5.734,0,0,1-.81,3.432A2.857,2.857,0,0,1,7.344.12,2.857,2.857,0,0,1,4.914-.948,5.734,5.734,0,0,1,4.1-4.38,5.767,5.767,0,0,1,4.908-7.812Zm.984,6.1a1.591,1.591,0,0,0,1.452.78A1.574,1.574,0,0,0,8.79-1.722,5.448,5.448,0,0,0,9.264-4.38,5.448,5.448,0,0,0,8.79-7.038a1.574,1.574,0,0,0-1.446-.786A1.574,1.574,0,0,0,5.9-7.038,5.448,5.448,0,0,0,5.424-4.38,5.547,5.547,0,0,0,5.892-1.716ZM16.5-8.16H13.524v3.24H16.5Zm1.248,0v3.24h2.976V-8.16Zm-5.52-1.1H22.02v8.208a2.414,2.414,0,0,1-.276,1.47A2.285,2.285,0,0,1,20.3.7q-.132,0-.372-.012t-.69-.03q-.45-.018-.858-.03l-.06-1.1q1.6.06,1.74.06a1.083,1.083,0,0,0,.57-.084q.09-.084.09-.552V-3.84h-7.2V.744h-1.3Z" transform="translate(-21695 -18621)" fill="#707070"/>
    <path id="パス_12848" data-name="パス 12848" d="M-16.824-7.68h-3.66l-.12,2.4h.024A2.988,2.988,0,0,1-19.1-5.64a2.6,2.6,0,0,1,1.944.708,2.721,2.721,0,0,1,.7,1.992,2.933,2.933,0,0,1-.852,2.286A3.614,3.614,0,0,1-19.824.12,4.889,4.889,0,0,1-22.1-.42l.3-1.08a4.426,4.426,0,0,0,1.98.54,1.777,1.777,0,0,0,2.04-1.98q0-1.668-1.56-1.668a2,2,0,0,0-1.44.528h-1.14l.24-4.68h4.86ZM-14.04-1.8h1.68l-1.32,3.12h-1.2Zm8.784-5.88h-3.66l-.12,2.4h.024a2.988,2.988,0,0,1,1.476-.36,2.6,2.6,0,0,1,1.944.708A2.721,2.721,0,0,1-4.9-2.94,2.933,2.933,0,0,1-5.748-.654,3.614,3.614,0,0,1-8.256.12a4.889,4.889,0,0,1-2.28-.54l.3-1.08a4.426,4.426,0,0,0,1.98.54,1.777,1.777,0,0,0,2.04-1.98q0-1.668-1.56-1.668a2,2,0,0,0-1.44.528h-1.14l.24-4.68h4.86Zm2.6-.132A2.874,2.874,0,0,1-.216-8.88a2.857,2.857,0,0,1,2.43,1.068,5.734,5.734,0,0,1,.81,3.432,5.734,5.734,0,0,1-.81,3.432A2.857,2.857,0,0,1-.216.12,2.857,2.857,0,0,1-2.646-.948a5.734,5.734,0,0,1-.81-3.432A5.767,5.767,0,0,1-2.652-7.812Zm.984,6.1a1.591,1.591,0,0,0,1.452.78A1.574,1.574,0,0,0,1.23-1.722,5.448,5.448,0,0,0,1.7-4.38,5.448,5.448,0,0,0,1.23-7.038,1.574,1.574,0,0,0-.216-7.824a1.574,1.574,0,0,0-1.446.786A5.448,5.448,0,0,0-2.136-4.38,5.547,5.547,0,0,0-1.668-1.716Zm6.576-6.1A2.874,2.874,0,0,1,7.344-8.88a2.857,2.857,0,0,1,2.43,1.068,5.734,5.734,0,0,1,.81,3.432,5.734,5.734,0,0,1-.81,3.432A2.857,2.857,0,0,1,7.344.12,2.857,2.857,0,0,1,4.914-.948,5.734,5.734,0,0,1,4.1-4.38,5.767,5.767,0,0,1,4.908-7.812Zm.984,6.1a1.591,1.591,0,0,0,1.452.78A1.574,1.574,0,0,0,8.79-1.722,5.448,5.448,0,0,0,9.264-4.38,5.448,5.448,0,0,0,8.79-7.038a1.574,1.574,0,0,0-1.446-.786A1.574,1.574,0,0,0,5.9-7.038,5.448,5.448,0,0,0,5.424-4.38,5.547,5.547,0,0,0,5.892-1.716ZM16.5-8.16H13.524v3.24H16.5Zm1.248,0v3.24h2.976V-8.16Zm-5.52-1.1H22.02v8.208a2.414,2.414,0,0,1-.276,1.47A2.285,2.285,0,0,1,20.3.7q-.132,0-.372-.012t-.69-.03q-.45-.018-.858-.03l-.06-1.1q1.6.06,1.74.06a1.083,1.083,0,0,0,.57-.084q.09-.084.09-.552V-3.84h-7.2V.744h-1.3Z" transform="translate(-21695 -18564)" fill="#707070"/>
    <path id="パス_12832" data-name="パス 12832" d="M-29.544-.12a8.729,8.729,0,0,0,3.618-3.312A9.361,9.361,0,0,0-24.66-8.34V-9.72h1.32v1.38a9.361,9.361,0,0,0,1.266,4.908A8.729,8.729,0,0,0-18.456-.12L-19.164.9a8.4,8.4,0,0,1-2.874-2.28,10.85,10.85,0,0,1-1.914-3.432A10.725,10.725,0,0,1-25.908-1.38,8.616,8.616,0,0,1-28.836.9ZM-15.06-9.228l1.284-.2q.336,1.944.768,3.684A26.651,26.651,0,0,1-8.172-7.26l.24,1.14a20.572,20.572,0,0,0-5.256,1.77q-1.752.978-1.752,2.01,0,1.74,3.18,1.74A25.686,25.686,0,0,0-7.992-.9L-7.848.24a27.075,27.075,0,0,1-3.912.3,6.357,6.357,0,0,1-3.36-.72,2.333,2.333,0,0,1-1.14-2.1q0-1.6,2.052-2.844Q-14.7-7.116-15.06-9.228ZM1.056-7.62H2.04v-.924H1.056Zm-1.992,0h1v-.924h-1Zm0,.876h-1.1V-9.5h7.2v2.76ZM-.54-3.3H3.7v-.72H-.54ZM4.392-.708A10.523,10.523,0,0,0,5.736-.06l-.6.96A11.467,11.467,0,0,1,1.944-1.248V1.14H.624V-1.416A11.307,11.307,0,0,1-2.784.9l-.6-.96A10.4,10.4,0,0,0,.168-2.376H-1.776v-2.6h6.72v2.6H2.172A8.105,8.105,0,0,0,3.4-1.332q.6-.5,1.044-.948l1.02.6A14.194,14.194,0,0,1,4.392-.708ZM-2.34-8.04h-.876v2.4h.756v1.1h-.756v2.664q.732-.24,1.188-.408l.036,1.08A26.357,26.357,0,0,1-5.472-.12l-.12-1.1q.528-.12,1.128-.288V-4.536h-1v-1.1h1v-2.4h-1.08V-9.18h3.2Zm6.36-.5h-1v.924h1ZM-2.34-5.376V-6.36h7.8v.984ZM14.6-6.936a9.9,9.9,0,0,0,.54-1.044H12.312q.264.516.5,1.044Zm-3.1,3.6v.6h4.224v-.6Zm0-.768h4.224v-.552H11.508ZM14.28-9.96V-9h3.06v1.02h-.96q-.2.492-.492,1.044h1.656v1H9.936V-5.3H8.7V-1.9q.708-.312,1.32-.612L10.1-1.452a21.229,21.229,0,0,1-3.7,1.6L6.252-.984Q6.7-1.116,7.464-1.4V-5.3H6.3v-1.08H7.464V-9.5H8.7v3.12h.96v-.552h1.92q-.252-.54-.54-1.044H9.864V-9h3.12v-.96ZM15.588.984A3.873,3.873,0,0,1,14.2.84q-.27-.144-.27-.72V-1.824H12.9A2.958,2.958,0,0,1,11.82.018,6.562,6.562,0,0,1,9.264,1.164L8.688.12a6.368,6.368,0,0,0,2.076-.75,2.168,2.168,0,0,0,.948-1.194H10.248v-3.7h6.8v3.7h-1.92v1.44q0,.216.072.252a1.826,1.826,0,0,0,.5.036q.516,0,.612-.192a5.155,5.155,0,0,0,.132-1.332l1.116.12q-.024.54-.036.816a5.637,5.637,0,0,1-.06.594,4.5,4.5,0,0,1-.084.45.819.819,0,0,1-.162.288.67.67,0,0,1-.222.2,1.86,1.86,0,0,1-.348.09A2.458,2.458,0,0,1,16.2.984ZM23.34-7.14V-8.256h5.124V-7.14ZM21.216-9.108A19.017,19.017,0,0,0,20.64-4.32,19.017,19.017,0,0,0,21.216.468L19.98.612a19.332,19.332,0,0,1-.6-4.932,19.332,19.332,0,0,1,.6-4.932ZM22.38-2.22a2.492,2.492,0,0,1,.4-1.212,5.31,5.31,0,0,1,1.1-1.308l.9.744a4.366,4.366,0,0,0-.84.972,1.674,1.674,0,0,0-.3.8q0,1.164,2.34,1.164a11.612,11.612,0,0,0,2.628-.324l.18,1.1A11.109,11.109,0,0,1,25.98.1a4.779,4.779,0,0,1-2.634-.63A1.928,1.928,0,0,1,22.38-2.22ZM-45.66,11.82v7.26h-1.2V14.04a7.425,7.425,0,0,1-.612,1l-.456-1.512A13.523,13.523,0,0,0-45.9,8.232l1.164.156A14.809,14.809,0,0,1-45.66,11.82Zm4.956,5.256a7.685,7.685,0,0,0,1.284-.612h-2.616A8.98,8.98,0,0,0-40.7,17.076ZM-42.936,12.3v.36h4.356V12.3Zm0-.876v.36h4.356v-.36Zm0-.5h4.356v-.36h-4.356Zm3.384,2.88-.528.744q-.912-.444-1.644-.72l.24-.36H-43.9v.516l.192-.3.588.4v-.4h1.14V14.3q0,.24.144.288a5,5,0,0,0,.96.048h.57a2.542,2.542,0,0,0,.366-.03,1.132,1.132,0,0,0,.252-.054.357.357,0,0,0,.114-.132.445.445,0,0,0,.072-.2q.006-.09.018-.306l1.032.06.516-.372.15.192a2.145,2.145,0,0,0,.162.192v-.528h-2.616Q-39.912,13.608-39.552,13.8Zm-5.064-4.224v-1h8.04v1h-3.708l-.144.36H-37.3V12.66h.816v1.956h-.66q.288.384.588.864l-.828.6a14.963,14.963,0,0,0-1.008-1.416.745.745,0,0,1-.528.642,9.716,9.716,0,0,1-1.932.114h-.72l-.168.138q-.108.09-.156.138h4.068v.768a6.465,6.465,0,0,1-1.512,1.02,18.168,18.168,0,0,0,2.988.456l-.228,1.044a16.424,16.424,0,0,1-4.164-.9,18.34,18.34,0,0,1-4.188.9l-.228-1.008a18.73,18.73,0,0,0,3.06-.48,8.345,8.345,0,0,1-1.1-.672l.42-.36h-.276a9.518,9.518,0,0,1-1.86.84l-.348-.948a10.876,10.876,0,0,0,2.4-1.08.362.362,0,0,1-.2-.21,1.393,1.393,0,0,1-.048-.426v-.06a5.631,5.631,0,0,1-1.2,1.32l-.72-.672a6.052,6.052,0,0,0,.648-.612h-.636V12.66h.8V9.936h2.46q.024-.06.078-.18t.078-.18ZM-33.5,8.7l1.284.036q-.156,3.36-.156,5.364a9.934,9.934,0,0,0,.12,1.716,2.315,2.315,0,0,0,.408,1.026,1.415,1.415,0,0,0,.672.492,3.264,3.264,0,0,0,1,.126q2.448,0,3.84-3.588l1.14.432a7.625,7.625,0,0,1-2.07,3.264,4.355,4.355,0,0,1-2.91,1.092,3.262,3.262,0,0,1-2.718-.978A6.1,6.1,0,0,1-33.66,14.1Q-33.66,11.724-33.5,8.7Zm17.676,1.236,1.152-.36a14.222,14.222,0,0,1,1.23,3.546,19.486,19.486,0,0,1,.426,4.1h-1.26a18.427,18.427,0,0,0-.408-3.864A15.053,15.053,0,0,0-15.828,9.936Zm-5.052-.144a14.566,14.566,0,0,0-.54,4.008,5.424,5.424,0,0,0,.492,2.43q.492.99.984.99.336,0,.876-.732A9.237,9.237,0,0,0-18,14.4l1.14.444a7.614,7.614,0,0,1-1.494,2.67,2.449,2.449,0,0,1-1.686.966q-.984,0-1.812-1.368A6.281,6.281,0,0,1-22.68,13.8,14.31,14.31,0,0,1-22.1,9.648Zm12.1,2.268A12.8,12.8,0,0,0-7.26,8.352l1.2.24A10.143,10.143,0,0,1-6.336,9.66h1.32V8.22h1.3V9.66H-.9v1.08H-3.72v2.04H-.5V13.9H-3V17.16q0,.444.09.522a1.235,1.235,0,0,0,.594.078q.5,0,.612-.282a9.33,9.33,0,0,0,.168-1.854l1.14.1q-.024.612-.048,1a7.542,7.542,0,0,1-.084.75q-.06.366-.108.564a1.114,1.114,0,0,1-.174.378.915.915,0,0,1-.24.252,1.164,1.164,0,0,1-.342.126,2.528,2.528,0,0,1-.438.066q-.21.012-.57.012a3.041,3.041,0,0,1-1.548-.24q-.312-.24-.312-1.2V13.9h-.912a5.411,5.411,0,0,1-3.54,5.124l-.516-1.1a4.115,4.115,0,0,0,1.95-1.494,5.041,5.041,0,0,0,.87-2.526H-8.616V12.78h3.6V10.74H-6.708A11.836,11.836,0,0,1-7.6,12.576ZM-11.2,9.168l.768-.78a23.086,23.086,0,0,1,1.836,1.62l-.78.8A21.233,21.233,0,0,0-11.2,9.168Zm1.584,4.584q-.828-.828-2.04-1.824l.768-.816a23.3,23.3,0,0,1,2.04,1.8Zm.756,1.38a16.9,16.9,0,0,1-1.476,3.828l-1.056-.588a18.691,18.691,0,0,0,1.44-3.612Zm12.7-3.816A5.511,5.511,0,0,0,5.208,10.14H2.4A6.46,6.46,0,0,0,3.84,11.316ZM2.616,13.7H5.328v-.5a11.313,11.313,0,0,1-1.512-.648,12.293,12.293,0,0,1-1.2.552Zm-.048,2.16h2.76V14.7H2.616v.12Q2.616,15.216,2.568,15.864ZM9.78,8.46h1.26v8.76a2.572,2.572,0,0,1-.252,1.458q-.252.282-1.308.282-.528,0-1.56-.06l-.06-1.164q1,.048,1.4.048.36,0,.438-.09a1.042,1.042,0,0,0,.078-.534ZM7.14,9.1V10.14H6.66a7.592,7.592,0,0,1-1.74,1.728,17.016,17.016,0,0,0,2.544.8V8.94H8.7V16.5H7.464V12.864l-.288.876q-.108-.024-.318-.078l-.306-.078V18.9H5.328V16.86h-2.9a5.4,5.4,0,0,1-.96,2.2L.456,18.3a5.821,5.821,0,0,0,.984-3.54V13.524q-.48.144-.744.216l-.24-1.116a17.445,17.445,0,0,0,2.256-.732A9.342,9.342,0,0,1,1.224,10.62l.564-.48H.72V9.1H3.264V8.04H4.536V9.1Zm9.06-.84,1.188.276q-.264.732-.42,1.128H22.08v1.02H16.56q-.192.468-.552,1.272l.024.012a3.822,3.822,0,0,1,1.428-.324,1.992,1.992,0,0,1,2.028,1.488q1.176-.252,2.64-.432l.108,1.044a24.853,24.853,0,0,0-2.508.42,14.652,14.652,0,0,1,.132,2.1H18.6q0-1.068-.072-1.776-2.448.756-2.448,1.776a1.039,1.039,0,0,0,.108.492,1.059,1.059,0,0,0,.408.384,2.544,2.544,0,0,0,.906.27,10.62,10.62,0,0,0,1.518.09,19.746,19.746,0,0,0,2.964-.276l.108,1.08a18.691,18.691,0,0,1-3.072.24,7.286,7.286,0,0,1-3.216-.522,1.732,1.732,0,0,1-.984-1.638q0-1.9,3.492-2.952a1.174,1.174,0,0,0-.426-.594,1.235,1.235,0,0,0-.666-.162,2.652,2.652,0,0,0-1.5.672,8.787,8.787,0,0,0-1.752,1.908l-1-.648a22.074,22.074,0,0,0,2.316-3.924H13.08V9.66h2.628Q16,8.892,16.2,8.256Zm12.7,5.52h1.872q.048-.888.048-1.512v-.408H28.9Zm-2.112-2.424V19.08H25.56V13.716a9.646,9.646,0,0,1-.888,1.308l-.516-1.44a13.459,13.459,0,0,0,2.22-5.352l1.188.216A15.346,15.346,0,0,1,26.784,11.352ZM35.52,9.1v1.08H32.1v.684h3.084v4.62H33.96v-.72h-2a5.808,5.808,0,0,1-.648,2.064,9.777,9.777,0,0,0,4.272,1l-.156,1.1A10.316,10.316,0,0,1,30.588,17.7a6.759,6.759,0,0,1-2.976,1.224l-.4-1.08a6.778,6.778,0,0,0,2.28-.876,6.718,6.718,0,0,1-1.308-1.488l1.02-.6a5.777,5.777,0,0,0,1.044,1.212,4.025,4.025,0,0,0,.408-1.332H27.7v-3.9h3.12v-.684H27.624V9.1h3.192V8.16H32.1V9.1Zm-1.56,4.68v-1.92H32.1v.408q0,.9-.048,1.512ZM41.5,12.42h-2.64v1.044q0,.36-.024.96H41.5Zm1.224,0v2h2.94v-2Zm-1.224-1V9.576h-2.64v1.848Zm1.224,0h2.94V9.576H42.72Zm4.2-2.9v8.76a2.426,2.426,0,0,1-.27,1.464,2.237,2.237,0,0,1-1.41.276q-.264,0-1.62-.06L43.56,17.9q.3.012.648.03t.534.03q.186.012.282.012.456,0,.546-.1a.956.956,0,0,0,.09-.54V15.42H42.72v3.36H41.5V15.42H38.76a7.908,7.908,0,0,1-.45,2.022,7.423,7.423,0,0,1-.918,1.674l-1.044-.828a6.2,6.2,0,0,0,.966-2.13,14.581,14.581,0,0,0,.27-3.2V8.52Z" transform="translate(-21383 -18687)" fill="#fff"/>
    <path id="パス_12841" data-name="パス 12841" d="M-27.216-5.616h1.056v-.768h-1.056Zm0-2.52v.72h1.056v-.72Zm-6.5,4.764V.036a6.69,6.69,0,0,0,1-1.428A11.585,11.585,0,0,1-33.72-3.372Zm0-2.964v2.712l.876-.564A15.7,15.7,0,0,0-32.208-2.7a9.823,9.823,0,0,0,.348-1.92h-1.548V-5.664a18.733,18.733,0,0,0,1.368-2.5h-1.212Q-33.456-7.176-33.72-6.336Zm8.736-2.784v1.7h.624v1.032h-.624v1.728h-2.232V-3.9h2.376v1h-2.376v.768h2.556V-1.1h-2.556v.888h2.688l-.06,1.08h-2.724a11.363,11.363,0,0,1-2.8-.282A4.092,4.092,0,0,1-31.956-.444a7.514,7.514,0,0,1-1.14,1.5l-.624-.8V1.08h-1.2v-5.1q-.372.72-.516.936l-.492-1.392a14.629,14.629,0,0,0,1.788-5.28l1.14.048q-.012.084-.03.24t-.03.228h2.148v1.08a12.84,12.84,0,0,1-1.2,2.5h1.344V-4.62a11.727,11.727,0,0,1-.684,3.12,3.077,3.077,0,0,0,1.194.906A5.619,5.619,0,0,0-28.5-.24l.036-.864h-2.4V-2.136H-28.5V-2.9h-2.076v-1H-28.5v-.756h-1.884v-.96H-28.5v-.768h-2.52V-7.416h2.52v-.72h-2V-9.12h2v-.66h1.284v.66ZM-16.5-4.152h2v-.66h-2Zm-1.284-2.316h-3.36v-.924h3.36v-.576H-21.66v2.136h3.876Zm1.284,0v.636h2v-.636Zm-2.64,4.536q.264-.192.828-.648l.528.648v-1.3h-2.652Q-19.7-2.556-19.14-1.932Zm3.816-.1a11.824,11.824,0,0,0,1.344-1.2h-2.364A8.133,8.133,0,0,0-15.324-2.028Zm.84.708A10.667,10.667,0,0,0-12.54-.144l-.624.984A9.567,9.567,0,0,1-16.5-1.812v1.1A2.575,2.575,0,0,1-16.752.744q-.252.288-1.272.288-.492,0-1.452-.06l-.048-1.08q.864.06,1.224.06t.432-.1a.98.98,0,0,0,.084-.528v-.936A16.69,16.69,0,0,1-21.456.72l-.624-.948a17.428,17.428,0,0,0,2.052-1.1q-.54-.588-1.284-1.26l.66-.636h-.492v-.924h3.36v-.66H-21.66v.24A11.786,11.786,0,0,1-22.8,1.092L-23.724.048a8.4,8.4,0,0,0,.636-2.2A22.342,22.342,0,0,0-22.9-5.448V-9.012h4.476v-1h1.32v1h4.38v1.044H-16.5v.576h3.24v1.56h.66v1.02h-.66v1.56l.408.384A12.826,12.826,0,0,1-14.484-1.32ZM-6.9-3.42v-1.8h1.8v1.8ZM7.056-7.62H8.04v-.924H7.056Zm-1.992,0h1v-.924h-1Zm0,.876H3.96V-9.5h7.2v2.76ZM5.46-3.3H9.7v-.72H5.46ZM10.392-.708a10.523,10.523,0,0,0,1.344.648l-.6.96A11.467,11.467,0,0,1,7.944-1.248V1.14H6.624V-1.416A11.307,11.307,0,0,1,3.216.9l-.6-.96A10.4,10.4,0,0,0,6.168-2.376H4.224v-2.6h6.72v2.6H8.172A8.105,8.105,0,0,0,9.4-1.332q.6-.5,1.044-.948l1.02.6A14.194,14.194,0,0,1,10.392-.708ZM3.66-8.04H2.784v2.4H3.54v1.1H2.784v2.664q.732-.24,1.188-.408L4.008-1.2A26.357,26.357,0,0,1,.528-.12l-.12-1.1q.528-.12,1.128-.288V-4.536h-1v-1.1h1v-2.4H.456V-9.18h3.2Zm6.36-.5h-1v.924h1ZM3.66-5.376V-6.36h7.8v.984ZM20.6-6.936a9.9,9.9,0,0,0,.54-1.044H18.312q.264.516.5,1.044Zm-3.1,3.6v.6h4.224v-.6Zm0-.768h4.224v-.552H17.508ZM20.28-9.96V-9h3.06v1.02h-.96q-.2.492-.492,1.044h1.656v1H15.936V-5.3H14.7V-1.9q.708-.312,1.32-.612L16.1-1.452a21.229,21.229,0,0,1-3.7,1.6L12.252-.984q.444-.132,1.212-.42V-5.3H12.3v-1.08h1.164V-9.5H14.7v3.12h.96v-.552h1.92q-.252-.54-.54-1.044H15.864V-9h3.12v-.96ZM21.588.984A3.873,3.873,0,0,1,20.2.84q-.27-.144-.27-.72V-1.824H18.9A2.958,2.958,0,0,1,17.82.018a6.562,6.562,0,0,1-2.556,1.146L14.688.12a6.368,6.368,0,0,0,2.076-.75,2.168,2.168,0,0,0,.948-1.194H16.248v-3.7h6.8v3.7h-1.92v1.44q0,.216.072.252a1.826,1.826,0,0,0,.5.036q.516,0,.612-.192a5.155,5.155,0,0,0,.132-1.332l1.116.12q-.024.54-.036.816a5.637,5.637,0,0,1-.06.594,4.5,4.5,0,0,1-.084.45.819.819,0,0,1-.162.288.67.67,0,0,1-.222.2,1.86,1.86,0,0,1-.348.09A2.458,2.458,0,0,1,22.2.984ZM29.34-7.14V-8.256h5.124V-7.14ZM27.216-9.108A19.017,19.017,0,0,0,26.64-4.32,19.017,19.017,0,0,0,27.216.468L25.98.612a19.332,19.332,0,0,1-.6-4.932,19.332,19.332,0,0,1,.6-4.932ZM28.38-2.22a2.492,2.492,0,0,1,.4-1.212,5.31,5.31,0,0,1,1.1-1.308l.9.744a4.366,4.366,0,0,0-.84.972,1.674,1.674,0,0,0-.3.8q0,1.164,2.34,1.164a11.612,11.612,0,0,0,2.628-.324l.18,1.1A11.109,11.109,0,0,1,31.98.1a4.779,4.779,0,0,1-2.634-.63A1.928,1.928,0,0,1,28.38-2.22Zm-63.936,12.8a11,11,0,0,0,.924-.864H-38.16q-.384.5-.708.864Zm-3.66,6.216H-40.5V12.1q-.384.288-.744.528l-.312-1.248a9.118,9.118,0,0,0,3.072-3.4l1.212.192a4.214,4.214,0,0,1-.24.528h4.452V9.72a9.378,9.378,0,0,1-.816.864h2.616V16.8h-2.82a21.743,21.743,0,0,1,3.516,1.392l-.552,1.032a25.447,25.447,0,0,0-3.852-1.584l.336-.84H-37.14l.4.744a12.832,12.832,0,0,1-3.984,1.6l-.444-1.08a16.352,16.352,0,0,0,3.5-1.26Zm0-1.776v.756h6.672v-.756Zm0-1.7v.72h6.672v-.72Zm0-.984h6.672v-.7h-6.672Zm14.4,4.56v.8H-26.04V13.44h4.152V16.9Zm0-1h1.728V14.46h-1.728Zm4.164,1.38V12.6H-26.52v-.816a11.8,11.8,0,0,1-.66,1.548V19.08h-1.236V15.012a7.609,7.609,0,0,1-.816,1.092l-.48-1.236a11.758,11.758,0,0,0,2.268-4.02l.444.1V10.2h-2.34V9.12H-27V8.04h1.26V9.12h3.48V8.04H-21V9.12h2.34V10.2H-21v.9h-1.26v-.9h-3.48v.9h-.576q-.036.156-.132.444h7.836V12.6h-.78v4.656a2.439,2.439,0,0,1-.264,1.458,2.275,2.275,0,0,1-1.416.27q-.684,0-1.98-.048l-.06-1.08q1.26.048,1.824.048a.954.954,0,0,0,.546-.09A.921.921,0,0,0-20.652,17.28Zm9.732-.06a3.108,3.108,0,0,0,2.13-1.086,3.761,3.761,0,0,0,.75-2.454,3.215,3.215,0,0,0-.888-2.31,3.4,3.4,0,0,0-2.28-1.038,34.491,34.491,0,0,1-.654,3.876,9.386,9.386,0,0,1-.846,2.388,3.424,3.424,0,0,1-.942,1.14,1.82,1.82,0,0,1-1.05.324,2.128,2.128,0,0,1-1.692-1.08,4.438,4.438,0,0,1-.768-2.64,4.827,4.827,0,0,1,1.56-3.726A5.792,5.792,0,0,1-11.52,9.18a4.65,4.65,0,0,1,3.354,1.272A4.281,4.281,0,0,1-6.84,13.68a4.95,4.95,0,0,1-1.038,3.282,3.943,3.943,0,0,1-2.8,1.4Zm-1.536-6.828a4.163,4.163,0,0,0-2.556,1.314,3.811,3.811,0,0,0-.948,2.634,3.525,3.525,0,0,0,.426,1.77q.426.75.834.75a.643.643,0,0,0,.4-.162,2.205,2.205,0,0,0,.462-.612,6.5,6.5,0,0,0,.492-1.146,16.418,16.418,0,0,0,.474-1.872Q-12.636,11.892-12.456,10.392ZM2.58,12.84v1.776h1.4V12.84Zm-1.26,0H0v1.776H1.32Zm-3.1-4.2v3.78H-3.852q-.072,1.092-.12,1.644H-1.74l-.024.732q-.072,1.488-.156,2.292a5.4,5.4,0,0,1-.24,1.23.974.974,0,0,1-.33.522,1.079,1.079,0,0,1-.51.1q-.348,0-2.076-.1l-.024-1.1q1.116.084,1.5.084.276,0,.342-.348t.186-2.352H-4.08q-.012.132-.042.4t-.054.414L-5.4,15.864q.24-2.1.36-4.488H-3V9.72H-5.256V8.64Zm5.16,7.536,1.092-.36q.7,1.668,1.152,3l-1.152.348q-.252-.744-.348-1.008a43.765,43.765,0,0,1-5.688.624l-.06-1.08q1.56-.084,2.94-.228v-1.9H0v.6H-1.224v-4.3H1.32v-.72q-1.356.108-2.664.144l-.072-1.044q.108-.012.336-.012t.348-.012q.7-1.344,1.068-2.16L1.608,8.3Q1.14,9.312.672,10.152q1.236-.084,2.784-.24-.48-.816-.708-1.176l1.08-.492Q4.86,9.852,5.6,11.3L4.476,11.8,4,10.884q-1.02.132-1.416.168v.828H5.22v3.7H2.58v1.74q.336-.036,1.176-.168Q3.732,17.076,3.384,16.176Zm10.788-6.24,1.152-.36a14.222,14.222,0,0,1,1.23,3.546,19.486,19.486,0,0,1,.426,4.1H15.72a18.427,18.427,0,0,0-.408-3.864A15.053,15.053,0,0,0,14.172,9.936ZM9.12,9.792A14.566,14.566,0,0,0,8.58,13.8a5.424,5.424,0,0,0,.492,2.43q.492.99.984.99.336,0,.876-.732A9.237,9.237,0,0,0,12,14.4l1.14.444a7.614,7.614,0,0,1-1.494,2.67,2.449,2.449,0,0,1-1.686.966q-.984,0-1.812-1.368A6.281,6.281,0,0,1,7.32,13.8,14.31,14.31,0,0,1,7.9,9.648Zm12.1,2.268A12.8,12.8,0,0,0,22.74,8.352l1.2.24a10.143,10.143,0,0,1-.276,1.068h1.32V8.22h1.3V9.66H29.1v1.08H26.28v2.04H29.5V13.9H27V17.16q0,.444.09.522a1.235,1.235,0,0,0,.594.078q.5,0,.612-.282a9.33,9.33,0,0,0,.168-1.854l1.14.1q-.024.612-.048,1a7.541,7.541,0,0,1-.084.75q-.06.366-.108.564a1.114,1.114,0,0,1-.174.378.915.915,0,0,1-.24.252,1.164,1.164,0,0,1-.342.126,2.528,2.528,0,0,1-.438.066q-.21.012-.57.012a3.041,3.041,0,0,1-1.548-.24q-.312-.24-.312-1.2V13.9h-.912a5.411,5.411,0,0,1-3.54,5.124l-.516-1.1a4.115,4.115,0,0,0,1.95-1.494,5.041,5.041,0,0,0,.87-2.526H21.384V12.78h3.6V10.74H23.292a11.836,11.836,0,0,1-.888,1.836ZM18.8,9.168l.768-.78a23.086,23.086,0,0,1,1.836,1.62l-.78.8A21.233,21.233,0,0,0,18.8,9.168Zm1.584,4.584q-.828-.828-2.04-1.824l.768-.816a23.3,23.3,0,0,1,2.04,1.8Zm.756,1.38a16.9,16.9,0,0,1-1.476,3.828l-1.056-.588a18.691,18.691,0,0,0,1.44-3.612Zm12.7-3.816a5.511,5.511,0,0,0,1.368-1.176H32.4A6.46,6.46,0,0,0,33.84,11.316ZM32.616,13.7h2.712v-.5a11.313,11.313,0,0,1-1.512-.648,12.293,12.293,0,0,1-1.2.552Zm-.048,2.16h2.76V14.7H32.616v.12Q32.616,15.216,32.568,15.864Zm7.212-7.4h1.26v8.76a2.572,2.572,0,0,1-.252,1.458q-.252.282-1.308.282-.528,0-1.56-.06l-.06-1.164q1,.048,1.4.048.36,0,.438-.09a1.042,1.042,0,0,0,.078-.534ZM37.14,9.1V10.14h-.48a7.592,7.592,0,0,1-1.74,1.728,17.016,17.016,0,0,0,2.544.8V8.94H38.7V16.5H37.464V12.864l-.288.876q-.108-.024-.318-.078l-.306-.078V18.9H35.328V16.86h-2.9a5.4,5.4,0,0,1-.96,2.2L30.456,18.3a5.821,5.821,0,0,0,.984-3.54V13.524q-.48.144-.744.216l-.24-1.116a17.445,17.445,0,0,0,2.256-.732,9.342,9.342,0,0,1-1.488-1.272l.564-.48H30.72V9.1h2.544V8.04h1.272V9.1Z" transform="translate(-21383 -18630)" fill="#707070"/>
    <path id="パス_12846" data-name="パス 12846" d="M-27.216-5.616h1.056v-.768h-1.056Zm0-2.52v.72h1.056v-.72Zm-6.5,4.764V.036a6.69,6.69,0,0,0,1-1.428A11.585,11.585,0,0,1-33.72-3.372Zm0-2.964v2.712l.876-.564A15.7,15.7,0,0,0-32.208-2.7a9.823,9.823,0,0,0,.348-1.92h-1.548V-5.664a18.733,18.733,0,0,0,1.368-2.5h-1.212Q-33.456-7.176-33.72-6.336Zm8.736-2.784v1.7h.624v1.032h-.624v1.728h-2.232V-3.9h2.376v1h-2.376v.768h2.556V-1.1h-2.556v.888h2.688l-.06,1.08h-2.724a11.363,11.363,0,0,1-2.8-.282A4.092,4.092,0,0,1-31.956-.444a7.514,7.514,0,0,1-1.14,1.5l-.624-.8V1.08h-1.2v-5.1q-.372.72-.516.936l-.492-1.392a14.629,14.629,0,0,0,1.788-5.28l1.14.048q-.012.084-.03.24t-.03.228h2.148v1.08a12.84,12.84,0,0,1-1.2,2.5h1.344V-4.62a11.727,11.727,0,0,1-.684,3.12,3.077,3.077,0,0,0,1.194.906A5.619,5.619,0,0,0-28.5-.24l.036-.864h-2.4V-2.136H-28.5V-2.9h-2.076v-1H-28.5v-.756h-1.884v-.96H-28.5v-.768h-2.52V-7.416h2.52v-.72h-2V-9.12h2v-.66h1.284v.66ZM-16.5-4.152h2v-.66h-2Zm-1.284-2.316h-3.36v-.924h3.36v-.576H-21.66v2.136h3.876Zm1.284,0v.636h2v-.636Zm-2.64,4.536q.264-.192.828-.648l.528.648v-1.3h-2.652Q-19.7-2.556-19.14-1.932Zm3.816-.1a11.824,11.824,0,0,0,1.344-1.2h-2.364A8.133,8.133,0,0,0-15.324-2.028Zm.84.708A10.667,10.667,0,0,0-12.54-.144l-.624.984A9.567,9.567,0,0,1-16.5-1.812v1.1A2.575,2.575,0,0,1-16.752.744q-.252.288-1.272.288-.492,0-1.452-.06l-.048-1.08q.864.06,1.224.06t.432-.1a.98.98,0,0,0,.084-.528v-.936A16.69,16.69,0,0,1-21.456.72l-.624-.948a17.428,17.428,0,0,0,2.052-1.1q-.54-.588-1.284-1.26l.66-.636h-.492v-.924h3.36v-.66H-21.66v.24A11.786,11.786,0,0,1-22.8,1.092L-23.724.048a8.4,8.4,0,0,0,.636-2.2A22.342,22.342,0,0,0-22.9-5.448V-9.012h4.476v-1h1.32v1h4.38v1.044H-16.5v.576h3.24v1.56h.66v1.02h-.66v1.56l.408.384A12.826,12.826,0,0,1-14.484-1.32ZM-6.9-3.42v-1.8h1.8v1.8ZM7.056-7.62H8.04v-.924H7.056Zm-1.992,0h1v-.924h-1Zm0,.876H3.96V-9.5h7.2v2.76ZM5.46-3.3H9.7v-.72H5.46ZM10.392-.708a10.523,10.523,0,0,0,1.344.648l-.6.96A11.467,11.467,0,0,1,7.944-1.248V1.14H6.624V-1.416A11.307,11.307,0,0,1,3.216.9l-.6-.96A10.4,10.4,0,0,0,6.168-2.376H4.224v-2.6h6.72v2.6H8.172A8.105,8.105,0,0,0,9.4-1.332q.6-.5,1.044-.948l1.02.6A14.194,14.194,0,0,1,10.392-.708ZM3.66-8.04H2.784v2.4H3.54v1.1H2.784v2.664q.732-.24,1.188-.408L4.008-1.2A26.357,26.357,0,0,1,.528-.12l-.12-1.1q.528-.12,1.128-.288V-4.536h-1v-1.1h1v-2.4H.456V-9.18h3.2Zm6.36-.5h-1v.924h1ZM3.66-5.376V-6.36h7.8v.984ZM20.6-6.936a9.9,9.9,0,0,0,.54-1.044H18.312q.264.516.5,1.044Zm-3.1,3.6v.6h4.224v-.6Zm0-.768h4.224v-.552H17.508ZM20.28-9.96V-9h3.06v1.02h-.96q-.2.492-.492,1.044h1.656v1H15.936V-5.3H14.7V-1.9q.708-.312,1.32-.612L16.1-1.452a21.229,21.229,0,0,1-3.7,1.6L12.252-.984q.444-.132,1.212-.42V-5.3H12.3v-1.08h1.164V-9.5H14.7v3.12h.96v-.552h1.92q-.252-.54-.54-1.044H15.864V-9h3.12v-.96ZM21.588.984A3.873,3.873,0,0,1,20.2.84q-.27-.144-.27-.72V-1.824H18.9A2.958,2.958,0,0,1,17.82.018a6.562,6.562,0,0,1-2.556,1.146L14.688.12a6.368,6.368,0,0,0,2.076-.75,2.168,2.168,0,0,0,.948-1.194H16.248v-3.7h6.8v3.7h-1.92v1.44q0,.216.072.252a1.826,1.826,0,0,0,.5.036q.516,0,.612-.192a5.155,5.155,0,0,0,.132-1.332l1.116.12q-.024.54-.036.816a5.637,5.637,0,0,1-.06.594,4.5,4.5,0,0,1-.084.45.819.819,0,0,1-.162.288.67.67,0,0,1-.222.2,1.86,1.86,0,0,1-.348.09A2.458,2.458,0,0,1,22.2.984ZM29.34-7.14V-8.256h5.124V-7.14ZM27.216-9.108A19.017,19.017,0,0,0,26.64-4.32,19.017,19.017,0,0,0,27.216.468L25.98.612a19.332,19.332,0,0,1-.6-4.932,19.332,19.332,0,0,1,.6-4.932ZM28.38-2.22a2.492,2.492,0,0,1,.4-1.212,5.31,5.31,0,0,1,1.1-1.308l.9.744a4.366,4.366,0,0,0-.84.972,1.674,1.674,0,0,0-.3.8q0,1.164,2.34,1.164a11.612,11.612,0,0,0,2.628-.324l.18,1.1A11.109,11.109,0,0,1,31.98.1a4.779,4.779,0,0,1-2.634-.63A1.928,1.928,0,0,1,28.38-2.22Zm-63.936,12.8a11,11,0,0,0,.924-.864H-38.16q-.384.5-.708.864Zm-3.66,6.216H-40.5V12.1q-.384.288-.744.528l-.312-1.248a9.118,9.118,0,0,0,3.072-3.4l1.212.192a4.214,4.214,0,0,1-.24.528h4.452V9.72a9.378,9.378,0,0,1-.816.864h2.616V16.8h-2.82a21.743,21.743,0,0,1,3.516,1.392l-.552,1.032a25.447,25.447,0,0,0-3.852-1.584l.336-.84H-37.14l.4.744a12.832,12.832,0,0,1-3.984,1.6l-.444-1.08a16.352,16.352,0,0,0,3.5-1.26Zm0-1.776v.756h6.672v-.756Zm0-1.7v.72h6.672v-.72Zm0-.984h6.672v-.7h-6.672Zm14.4,4.56v.8H-26.04V13.44h4.152V16.9Zm0-1h1.728V14.46h-1.728Zm4.164,1.38V12.6H-26.52v-.816a11.8,11.8,0,0,1-.66,1.548V19.08h-1.236V15.012a7.609,7.609,0,0,1-.816,1.092l-.48-1.236a11.758,11.758,0,0,0,2.268-4.02l.444.1V10.2h-2.34V9.12H-27V8.04h1.26V9.12h3.48V8.04H-21V9.12h2.34V10.2H-21v.9h-1.26v-.9h-3.48v.9h-.576q-.036.156-.132.444h7.836V12.6h-.78v4.656a2.439,2.439,0,0,1-.264,1.458,2.275,2.275,0,0,1-1.416.27q-.684,0-1.98-.048l-.06-1.08q1.26.048,1.824.048a.954.954,0,0,0,.546-.09A.921.921,0,0,0-20.652,17.28Zm9.732-.06a3.108,3.108,0,0,0,2.13-1.086,3.761,3.761,0,0,0,.75-2.454,3.215,3.215,0,0,0-.888-2.31,3.4,3.4,0,0,0-2.28-1.038,34.491,34.491,0,0,1-.654,3.876,9.386,9.386,0,0,1-.846,2.388,3.424,3.424,0,0,1-.942,1.14,1.82,1.82,0,0,1-1.05.324,2.128,2.128,0,0,1-1.692-1.08,4.438,4.438,0,0,1-.768-2.64,4.827,4.827,0,0,1,1.56-3.726A5.792,5.792,0,0,1-11.52,9.18a4.65,4.65,0,0,1,3.354,1.272A4.281,4.281,0,0,1-6.84,13.68a4.95,4.95,0,0,1-1.038,3.282,3.943,3.943,0,0,1-2.8,1.4Zm-1.536-6.828a4.163,4.163,0,0,0-2.556,1.314,3.811,3.811,0,0,0-.948,2.634,3.525,3.525,0,0,0,.426,1.77q.426.75.834.75a.643.643,0,0,0,.4-.162,2.205,2.205,0,0,0,.462-.612,6.5,6.5,0,0,0,.492-1.146,16.418,16.418,0,0,0,.474-1.872Q-12.636,11.892-12.456,10.392ZM2.58,12.84v1.776h1.4V12.84Zm-1.26,0H0v1.776H1.32Zm-3.1-4.2v3.78H-3.852q-.072,1.092-.12,1.644H-1.74l-.024.732q-.072,1.488-.156,2.292a5.4,5.4,0,0,1-.24,1.23.974.974,0,0,1-.33.522,1.079,1.079,0,0,1-.51.1q-.348,0-2.076-.1l-.024-1.1q1.116.084,1.5.084.276,0,.342-.348t.186-2.352H-4.08q-.012.132-.042.4t-.054.414L-5.4,15.864q.24-2.1.36-4.488H-3V9.72H-5.256V8.64Zm5.16,7.536,1.092-.36q.7,1.668,1.152,3l-1.152.348q-.252-.744-.348-1.008a43.765,43.765,0,0,1-5.688.624l-.06-1.08q1.56-.084,2.94-.228v-1.9H0v.6H-1.224v-4.3H1.32v-.72q-1.356.108-2.664.144l-.072-1.044q.108-.012.336-.012t.348-.012q.7-1.344,1.068-2.16L1.608,8.3Q1.14,9.312.672,10.152q1.236-.084,2.784-.24-.48-.816-.708-1.176l1.08-.492Q4.86,9.852,5.6,11.3L4.476,11.8,4,10.884q-1.02.132-1.416.168v.828H5.22v3.7H2.58v1.74q.336-.036,1.176-.168Q3.732,17.076,3.384,16.176Zm10.788-6.24,1.152-.36a14.222,14.222,0,0,1,1.23,3.546,19.486,19.486,0,0,1,.426,4.1H15.72a18.427,18.427,0,0,0-.408-3.864A15.053,15.053,0,0,0,14.172,9.936ZM9.12,9.792A14.566,14.566,0,0,0,8.58,13.8a5.424,5.424,0,0,0,.492,2.43q.492.99.984.99.336,0,.876-.732A9.237,9.237,0,0,0,12,14.4l1.14.444a7.614,7.614,0,0,1-1.494,2.67,2.449,2.449,0,0,1-1.686.966q-.984,0-1.812-1.368A6.281,6.281,0,0,1,7.32,13.8,14.31,14.31,0,0,1,7.9,9.648Zm12.1,2.268A12.8,12.8,0,0,0,22.74,8.352l1.2.24a10.143,10.143,0,0,1-.276,1.068h1.32V8.22h1.3V9.66H29.1v1.08H26.28v2.04H29.5V13.9H27V17.16q0,.444.09.522a1.235,1.235,0,0,0,.594.078q.5,0,.612-.282a9.33,9.33,0,0,0,.168-1.854l1.14.1q-.024.612-.048,1a7.541,7.541,0,0,1-.084.75q-.06.366-.108.564a1.114,1.114,0,0,1-.174.378.915.915,0,0,1-.24.252,1.164,1.164,0,0,1-.342.126,2.528,2.528,0,0,1-.438.066q-.21.012-.57.012a3.041,3.041,0,0,1-1.548-.24q-.312-.24-.312-1.2V13.9h-.912a5.411,5.411,0,0,1-3.54,5.124l-.516-1.1a4.115,4.115,0,0,0,1.95-1.494,5.041,5.041,0,0,0,.87-2.526H21.384V12.78h3.6V10.74H23.292a11.836,11.836,0,0,1-.888,1.836ZM18.8,9.168l.768-.78a23.086,23.086,0,0,1,1.836,1.62l-.78.8A21.233,21.233,0,0,0,18.8,9.168Zm1.584,4.584q-.828-.828-2.04-1.824l.768-.816a23.3,23.3,0,0,1,2.04,1.8Zm.756,1.38a16.9,16.9,0,0,1-1.476,3.828l-1.056-.588a18.691,18.691,0,0,0,1.44-3.612Zm12.7-3.816a5.511,5.511,0,0,0,1.368-1.176H32.4A6.46,6.46,0,0,0,33.84,11.316ZM32.616,13.7h2.712v-.5a11.313,11.313,0,0,1-1.512-.648,12.293,12.293,0,0,1-1.2.552Zm-.048,2.16h2.76V14.7H32.616v.12Q32.616,15.216,32.568,15.864Zm7.212-7.4h1.26v8.76a2.572,2.572,0,0,1-.252,1.458q-.252.282-1.308.282-.528,0-1.56-.06l-.06-1.164q1,.048,1.4.048.36,0,.438-.09a1.042,1.042,0,0,0,.078-.534ZM37.14,9.1V10.14h-.48a7.592,7.592,0,0,1-1.74,1.728,17.016,17.016,0,0,0,2.544.8V8.94H38.7V16.5H37.464V12.864l-.288.876q-.108-.024-.318-.078l-.306-.078V18.9H35.328V16.86h-2.9a5.4,5.4,0,0,1-.96,2.2L30.456,18.3a5.821,5.821,0,0,0,.984-3.54V13.524q-.48.144-.744.216l-.24-1.116a17.445,17.445,0,0,0,2.256-.732,9.342,9.342,0,0,1-1.488-1.272l.564-.48H30.72V9.1h2.544V8.04h1.272V9.1Z" transform="translate(-21383 -18573)" fill="#707070"/>
    <path id="パス_12830" data-name="パス 12830" d="M-4.848-.036A3.981,3.981,0,0,0-2.79-1.008a2.3,2.3,0,0,0,.75-1.716A2.145,2.145,0,0,0-3.552-4.872,8.537,8.537,0,0,1-5.85-1.2,4.521,4.521,0,0,1-8.844.156,1.918,1.918,0,0,1-10.308-.4a2.171,2.171,0,0,1-.528-1.554,3.346,3.346,0,0,1,.8-2.19,4.7,4.7,0,0,1,2.2-1.434V-7.356H-10.4v-.768h2.568V-9.636h.876v1.512H-1.6v.768H-6.96v1.548a8.363,8.363,0,0,1,1.6-.156,4.9,4.9,0,0,1,3.084.87,2.844,2.844,0,0,1,1.116,2.37A3.069,3.069,0,0,1-2.088-.468,4.7,4.7,0,0,1-4.632.756Zm.492-5.052A6.489,6.489,0,0,0-5.364-5.16a6.773,6.773,0,0,0-1.6.18v3.648A6.68,6.68,0,0,0-5.478-2.874,8.652,8.652,0,0,0-4.356-5.088Zm-3.48.384A3.853,3.853,0,0,0-9.39-3.594,2.407,2.407,0,0,0-9.96-2.04,1.554,1.554,0,0,0-9.648-1a1.1,1.1,0,0,0,.888.366,2.422,2.422,0,0,0,.924-.192ZM2.376-9.084h.9V-5.82H3.3A5.4,5.4,0,0,1,4.938-8.04a3.568,3.568,0,0,1,2.226-.8,2.558,2.558,0,0,1,2.148,1A4.576,4.576,0,0,1,10.08-5a5.154,5.154,0,0,1-1.6,4.182Q6.888.516,3.48.516l-.036-.84a6.808,6.808,0,0,0,4.344-1.1A4.391,4.391,0,0,0,9.12-5,3.845,3.845,0,0,0,8.6-7.212,1.738,1.738,0,0,0,7.08-7.956a3.29,3.29,0,0,0-2.508,1.44,5.96,5.96,0,0,0-1.308,3.48H2.376Z" transform="translate(-21123 -18678)" fill="#d3d5df"/>
    <path id="パス_12843" data-name="パス 12843" d="M-4.872-.24a3.73,3.73,0,0,0,1.9-.906A2.087,2.087,0,0,0-2.28-2.7,1.909,1.909,0,0,0-3.468-4.584,8.26,8.26,0,0,1-5.754-1.05,4.58,4.58,0,0,1-8.76.24a2.113,2.113,0,0,1-1.572-.594A2.21,2.21,0,0,1-10.92-1.98a3.345,3.345,0,0,1,.78-2.178A4.706,4.706,0,0,1-7.98-5.592V-7.2h-2.46V-8.22h2.46V-9.66h1.2v1.44h5.22V-7.2H-6.78v1.308A9.23,9.23,0,0,1-5.34-6,4.94,4.94,0,0,1-2.2-5.112,2.912,2.912,0,0,1-1.08-2.7,3.144,3.144,0,0,1-2-.414,4.7,4.7,0,0,1-4.548.84Zm.312-4.632a5.421,5.421,0,0,0-.78-.048,6.757,6.757,0,0,0-1.44.144V-1.62A7.3,7.3,0,0,0-4.56-4.872Zm-3.42.48a3.374,3.374,0,0,0-1.278.99A2.107,2.107,0,0,0-9.72-2.1a1.385,1.385,0,0,0,.282.936,1,1,0,0,0,.8.324,2.228,2.228,0,0,0,.66-.108ZM3.48-9.12v2.688H3.5A4.869,4.869,0,0,1,5.076-8.256,3.642,3.642,0,0,1,7.14-8.88,2.713,2.713,0,0,1,9.39-7.86a4.529,4.529,0,0,1,.81,2.88A5.175,5.175,0,0,1,8.568-.744Q6.936.6,3.42.6L3.36-.54A6.808,6.808,0,0,0,7.608-1.572,4.145,4.145,0,0,0,8.88-4.98,3.5,3.5,0,0,0,8.4-7,1.583,1.583,0,0,0,7.02-7.68,3.1,3.1,0,0,0,4.638-6.336,5.458,5.458,0,0,0,3.444-3.06H2.256V-9.12Z" transform="translate(-21123 -18621)" fill="#707070"/>
    <path id="パス_12844" data-name="パス 12844" d="M-.828-6.72a15.516,15.516,0,0,0-2.28-.2V-2.8A15.484,15.484,0,0,1-.66-1.008l-.768.864q-.864-.72-1.7-1.332A2.154,2.154,0,0,1-3.882.108,3.141,3.141,0,0,1-5.808.6,3.06,3.06,0,0,1-7.794.018,1.928,1.928,0,0,1-8.508-1.56a1.865,1.865,0,0,1,.7-1.536,3.119,3.119,0,0,1,2-.564,4.324,4.324,0,0,1,1.5.288V-8.04A24.162,24.162,0,0,1-.7-7.8ZM-11.16-6.96V-8.04h2.136q.168-.576.48-1.752l1.128.144q-.264,1.08-.408,1.608H-5.7v1.08H-8.136A55.059,55.059,0,0,1-10.32-.9l-1.1-.384A58.14,58.14,0,0,0-9.348-6.96Zm6.852,4.752a3.338,3.338,0,0,0-1.5-.408q-1.5,0-1.5,1.056a.993.993,0,0,0,.4.84,1.793,1.793,0,0,0,1.1.3A1.611,1.611,0,0,0-4.626-.756a1.861,1.861,0,0,0,.318-1.26ZM2.5-9.3l1.284.036Q3.624-5.9,3.624-3.9a9.934,9.934,0,0,0,.12,1.716,2.315,2.315,0,0,0,.408,1.026,1.415,1.415,0,0,0,.672.492,3.264,3.264,0,0,0,1,.126q2.448,0,3.84-3.588L10.8-3.7A7.625,7.625,0,0,1,8.73-.432,4.355,4.355,0,0,1,5.82.66,3.262,3.262,0,0,1,3.1-.318,6.1,6.1,0,0,1,2.34-3.9Q2.34-6.276,2.5-9.3Z" transform="translate(-21123 -18564)" fill="#707070"/>
    <path id="パス_12833" data-name="パス 12833" d="M-56.706-7.656h-7.632V-5.94h-1.224V-8.7h4.38V-9.9h1.32v1.2h4.38v2.76h-1.224Zm1.56,7.416-.072,1.1h-.8a18.143,18.143,0,0,1-5-.522,5.2,5.2,0,0,1-2.724-1.89,18.385,18.385,0,0,1-1.188,2.6L-66.03.6a17.435,17.435,0,0,0,1.848-5.052l1.164.228q-.12.672-.324,1.392a4.892,4.892,0,0,0,.978,1.242,4.229,4.229,0,0,0,1.35.786V-5.58h-2.892V-6.624h6.768V-5.58h-2.556v1.74H-56.2v1.056h-3.492V-.468a23.308,23.308,0,0,0,3.732.228Zm8.448-5.3v.96q0,.624-.012.924h2.148V-5.544Zm0-1.056h2.136V-8.34H-46.7ZM-52.05-3.744V-2.7h1.98V-3.744Zm0-1.956v1.02h1.98V-5.7Zm0-.924h1.98v-1h-1.98Zm7.008,6.48q.36,0,.42-.072a1.217,1.217,0,0,0,.06-.528V-2.616H-46.77a9.282,9.282,0,0,1-1.044,3.66L-48.8.252l-.624.384a12.81,12.81,0,0,0-1.26-1.848l.72-.468H-51.99l.684.444a8.855,8.855,0,0,1-1.812,2.364L-53.97.4A9.543,9.543,0,0,0-52.3-1.68H-54.03V-2.7h.78V-7.62h-.72V-8.664h.72v-1h1.2v1h1.98v-1h1.14v1h.66V-7.62h-.66V-2.7h.636v1.02H-49.65A11.308,11.308,0,0,1-48.606-.168a7.011,7.011,0,0,0,.582-1.974A21.091,21.091,0,0,0-47.862-5.1V-9.42h4.524V-.78q0,.648-.024.948a1.071,1.071,0,0,1-.156.5.52.52,0,0,1-.33.246,3.271,3.271,0,0,1-.618.042q-.372,0-1.6-.06l-.06-1.1Q-45.222-.144-45.042-.144Zm7.98-2.076v.564h4.236V-2.22Zm0-.9h4.236V-3.7h-4.236Zm-4.6-5.628.744-.864a21.912,21.912,0,0,1,1.98,1.62l-.744.9A25.447,25.447,0,0,0-41.658-8.748ZM-40-4.272a25.95,25.95,0,0,0-2.184-1.836l.732-.864a20.484,20.484,0,0,1,2.2,1.8Zm1.056,1.26A14.305,14.305,0,0,1-40.818.972l-1.02-.684a15.974,15.974,0,0,0,1.812-3.732ZM-34.182-6.1h3.156v.96h-7.836V-6.1h3.36v-.528h-2.76V-7.56h2.76V-8.1h-3.06v-1h3.06V-9.84h1.32V-9.1h2.964v1h-2.964v.54h2.676v.936h-2.676Zm1,7.032q-.216,0-1.332-.072l-.024-1.08,1.236.072a1.1,1.1,0,0,0,.42-.042q.06-.042.06-.294V-.744l-4.236-.012V.96h-1.284V-4.68h6.8v4.2q0,.972-.258,1.194A2.576,2.576,0,0,1-33.186.936Zm13.044-3.912v-.8h-2.22v.8ZM-20.778-6.3v-.6h-5.184v-.9h5.184v-.6H-26.2V-9.456h6.72V-5.34H-26.2V-6.3Zm-2.844,2.52h-1.956v.8h1.956ZM-26.67-7.7v1.08h-1.02v2.556q.432-.156.912-.36V-4.8h7.836v2.4h-.6V-1a2.1,2.1,0,0,1-.2,1.206q-.2.21-1.152.21-.276,0-.984-.048L-21.906-.7q.552.036.744.036A.854.854,0,0,0-20.8-.7q.054-.042.054-.294v-1.02h-1.62V1.2h-1.26V-2.016h-1.356V.456h-1.2V-2.4h-.6v-.864q-.216.1-.912.348v2.2a3.088,3.088,0,0,1-.2,1.464q-.2.276-1.08.276-.216,0-1-.06l-.048-1.044q.744.06.864.06.156,0,.18-.084A3.311,3.311,0,0,0-28.95-.66V-2.5l-1.068.276L-30.1-3.36q.576-.12,1.152-.288V-6.624h-1.14V-7.7h1.14V-9.72h1.26V-7.7ZM-13.182-5.04h-2.556V-4.3h2.556Zm1.32,0V-4.3h2.556V-5.04Zm-1.32-.84v-.7h-2.556v.7Zm1.32,0h2.556v-.7h-2.556ZM-13.29-.552-13.95.456a24.3,24.3,0,0,0-2.472-1.464l.564-.888h-2.064V-2.9h7.38v-.48h-6.42v-4.08h3.78V-7.98h-4.74V-9h4.74v-.9h1.32V-9h4.74v1.02h-4.74v.516h3.78v4.08h-1.14v.48h2.1V-1.9h-2.1V-.6q0,.42-.012.654a1.423,1.423,0,0,1-.09.438A.727.727,0,0,1-9.5.78a.885.885,0,0,1-.336.15,2.27,2.27,0,0,1-.5.078q-.258.012-.726.012-.444,0-2.1-.06l-.048-1.08q1.56.06,1.944.06a1.463,1.463,0,0,0,.63-.072q.09-.072.09-.492V-1.9H-15.57A23.419,23.419,0,0,1-13.29-.552ZM3.318-4.14H-.258V-9.48H4.614V-.816A2.414,2.414,0,0,1,4.338.654,2.285,2.285,0,0,1,2.9.936q-.144,0-.39-.012l-.7-.03L.978.864.918-.24q1.536.06,1.74.06a1.022,1.022,0,0,0,.564-.09q.1-.09.1-.546Zm0-2.2H.978V-5.16h2.34Zm0-.924V-8.424H.978V-7.26Zm-7.68.924V-5.16h2.22V-6.336Zm0-.924h2.22V-8.424h-2.22Zm-1.3-2.22H-.906v5.34H-4.362V.984h-1.3Zm20.1.72L10.3.48H9.378l4.128-9.24ZM26.154-5.148H24.4v1.02h1.752Zm.936,0v1.02h1.752v-1.02ZM26.154-5.8v-.948H24.4V-5.8Zm.936,0h1.752v-.948H27.09Zm3.132-2.268H27.09v.648h2.628v3.972h-.792V-2.8h1.3v.756h-1.3V-.48A2.237,2.237,0,0,1,28.74.7q-.186.222-.978.222-.336,0-1.56-.06l-.036-.8q1.116.06,1.44.06.3,0,.348-.078A1.62,1.62,0,0,0,28-.5V-2.04H23.166V-2.8H28v-.648H23.538V-7.416h2.616v-.648H23.082V-8.82h3.072v-1h.936v1h1.356q-.48-.48-.852-.8l.684-.4q.7.612,1.248,1.2h.7ZM25.59.348a13.464,13.464,0,0,0-1.728-1.8l.636-.5A13.74,13.74,0,0,1,26.25-.168ZM21.858-6.144l.72-.192a23.91,23.91,0,0,1,.768,2.928l-.732.144q-.072-.312-.144-.648l-1.008.06v4.9h-.9V-3.792l-1.692.108-.024-.78.852-.048q.336-.48.5-.732-.7-1.224-1.416-2.376l.516-.732q.252.408.456.744.528-1,1.044-2.172l.756.336q-.612,1.356-1.332,2.628.084.144.468.816.72-1.164,1.44-2.556l.72.372a35.258,35.258,0,0,1-2.148,3.612l1.584-.1Q22.11-5.352,21.858-6.144ZM18.81.252a20.792,20.792,0,0,0,.516-3.36l.756.072A20.6,20.6,0,0,1,19.566.408Zm4.26-.276-.78.072q-.156-1.908-.348-3.1l.744-.108Q22.95-1.44,23.07-.024ZM32.9-9.084h.9V-5.82h.024A5.4,5.4,0,0,1,35.46-8.04a3.568,3.568,0,0,1,2.226-.8,2.558,2.558,0,0,1,2.148,1A4.576,4.576,0,0,1,40.6-5a5.154,5.154,0,0,1-1.6,4.182Q37.41.516,34,.516l-.036-.84a6.808,6.808,0,0,0,4.344-1.1A4.391,4.391,0,0,0,39.642-5a3.845,3.845,0,0,0-.522-2.208A1.738,1.738,0,0,0,37.6-7.956a3.29,3.29,0,0,0-2.508,1.44,5.96,5.96,0,0,0-1.308,3.48H32.9Zm20.8,2.16a15.443,15.443,0,0,0-2.472-.216v4.416A15.965,15.965,0,0,1,53.79-.948L53.238-.3a22.535,22.535,0,0,0-2.016-1.476,2.364,2.364,0,0,1-.654,1.764,2.937,2.937,0,0,1-1.95.528A2.912,2.912,0,0,1,46.734-.03a1.821,1.821,0,0,1-.672-1.494,1.718,1.718,0,0,1,.666-1.44,3.028,3.028,0,0,1,1.89-.516,4.845,4.845,0,0,1,1.728.36V-7.956a22.087,22.087,0,0,1,3.456.24Zm-10.3-.24v-.792h2.22q.324-1.068.528-1.824l.828.12q-.2.828-.468,1.7h2.256v.792h-2.5a61.921,61.921,0,0,1-2.316,6.1l-.8-.288q1.308-3,2.22-5.808Zm6.948,4.9A4.045,4.045,0,0,0,48.618-2.7q-1.68,0-1.68,1.176a1.129,1.129,0,0,0,.438.942,1.978,1.978,0,0,0,1.242.342,1.932,1.932,0,0,0,1.356-.366,1.929,1.929,0,0,0,.372-1.374Zm7.74-6.984Q57.942-6,57.942-3.84A10.023,10.023,0,0,0,58.08-2a2.427,2.427,0,0,0,.456,1.1,1.6,1.6,0,0,0,.738.522,3.576,3.576,0,0,0,1.092.138,3.342,3.342,0,0,0,2.3-.954,7.145,7.145,0,0,0,1.74-2.778l.828.324A7.681,7.681,0,0,1,63.2-.456,4.205,4.205,0,0,1,60.366.636,3.11,3.11,0,0,1,57.738-.33a6.094,6.094,0,0,1-.732-3.51q0-2.412.132-5.448Z" transform="translate(-21538 -18678)" fill="#d3d5df"/>
    <path id="パス_12840" data-name="パス 12840" d="M-32.046-.24a3.73,3.73,0,0,0,1.9-.906,2.087,2.087,0,0,0,.7-1.554,1.909,1.909,0,0,0-1.188-1.884A8.26,8.26,0,0,1-32.928-1.05,4.58,4.58,0,0,1-35.934.24a2.113,2.113,0,0,1-1.572-.594,2.21,2.21,0,0,1-.588-1.626,3.345,3.345,0,0,1,.78-2.178,4.706,4.706,0,0,1,2.16-1.434V-7.2h-2.46V-8.22h2.46V-9.66h1.2v1.44h5.22V-7.2h-5.22v1.308A9.23,9.23,0,0,1-32.514-6a4.94,4.94,0,0,1,3.138.888A2.912,2.912,0,0,1-28.254-2.7a3.144,3.144,0,0,1-.924,2.286A4.7,4.7,0,0,1-31.722.84Zm.312-4.632a5.421,5.421,0,0,0-.78-.048,6.757,6.757,0,0,0-1.44.144V-1.62A7.3,7.3,0,0,0-31.734-4.872Zm-3.42.48a3.374,3.374,0,0,0-1.278.99,2.107,2.107,0,0,0-.462,1.3,1.385,1.385,0,0,0,.282.936,1,1,0,0,0,.8.324,2.228,2.228,0,0,0,.66-.108Zm11.46-4.728v2.688h.024A4.869,4.869,0,0,1-22.1-8.256a3.642,3.642,0,0,1,2.064-.624,2.713,2.713,0,0,1,2.25,1.02,4.529,4.529,0,0,1,.81,2.88A5.175,5.175,0,0,1-18.606-.744Q-20.238.6-23.754.6l-.06-1.14a6.808,6.808,0,0,0,4.248-1.032A4.145,4.145,0,0,0-18.294-4.98,3.5,3.5,0,0,0-18.774-7a1.583,1.583,0,0,0-1.38-.684,3.1,3.1,0,0,0-2.382,1.344A5.458,5.458,0,0,0-23.73-3.06h-1.188V-9.12Zm14.3.36L-13.53.48h-1.26l4.14-9.24Zm6.84,6.9A14.463,14.463,0,0,1-1.1-.144Q-.342-.1.114-.1.354-.1.4-.168A1.512,1.512,0,0,0,.438-.66v-1.2Zm1.26-3.156h-1.3v.756h1.3Zm1.248,0v.756h1.3v-.756Zm-1.248-.84V-6.54h-1.3v.684Zm1.248,0h1.3V-6.54h-1.3ZM-5.166-4.788q-.216-.84-.324-1.2-.252.42-.78,1.26ZM.354.984q-.588,0-1.6-.048L-1.29.024l-.7.516a15.636,15.636,0,0,0-1.56-1.86l.768-.54H-4.086V-2.88H.438v-.48h-4.2V-7.416H-1.29V-7.9H-4.206V-8.9H-1.29v-.96H-.042v.96H.834Q.4-9.432.2-9.66l1-.42A14.647,14.647,0,0,1,2.166-8.9H2.91V-7.9H-.042v.48h2.5V-3.36H1.71v.48h1.2v1.02H1.71V-.624q0,.612-.03.9a.783.783,0,0,1-.2.468.645.645,0,0,1-.4.21A6.279,6.279,0,0,1,.354.984ZM-8.67-7.44l.648-1.044q.144.216.456.7.42-.828.9-2.052l1.02.444q-.588,1.368-1.272,2.64.1.156.324.552.612-1.008,1.284-2.34l.948.5q-.432.84-1.044,1.908l.84-.216A26.371,26.371,0,0,1-3.846-3.4l-.96.192q-.084-.444-.12-.576l-.792.048V1.08H-6.954V-3.648L-8.49-3.54l-.036-1.044.948-.06L-7.4-4.92q.114-.18.174-.264Q-8.19-6.72-8.67-7.44Zm.48,4.4.984.1A24.891,24.891,0,0,1-7.662.492l-.984-.18A25.421,25.421,0,0,0-8.19-3.036ZM-4.122.06l-1.008.1q-.108-1.464-.3-3.084l.984-.144Q-4.3-2.04-4.122.06ZM6.654-9.12v2.688h.024A4.869,4.869,0,0,1,8.25-8.256a3.642,3.642,0,0,1,2.064-.624,2.713,2.713,0,0,1,2.25,1.02,4.529,4.529,0,0,1,.81,2.88A5.175,5.175,0,0,1,11.742-.744Q10.11.6,6.594.6L6.534-.54a6.808,6.808,0,0,0,4.248-1.032A4.145,4.145,0,0,0,12.054-4.98,3.5,3.5,0,0,0,11.574-7a1.583,1.583,0,0,0-1.38-.684A3.1,3.1,0,0,0,7.812-6.336,5.458,5.458,0,0,0,6.618-3.06H5.43V-9.12ZM22.3-.24a3.73,3.73,0,0,0,1.9-.906,2.087,2.087,0,0,0,.7-1.554,1.909,1.909,0,0,0-1.188-1.884A8.26,8.26,0,0,1,21.42-1.05,4.58,4.58,0,0,1,18.414.24a2.113,2.113,0,0,1-1.572-.594,2.21,2.21,0,0,1-.588-1.626,3.345,3.345,0,0,1,.78-2.178,4.706,4.706,0,0,1,2.16-1.434V-7.2h-2.46V-8.22h2.46V-9.66h1.2v1.44h5.22V-7.2h-5.22v1.308A9.23,9.23,0,0,1,21.834-6a4.94,4.94,0,0,1,3.138.888A2.912,2.912,0,0,1,26.094-2.7,3.144,3.144,0,0,1,25.17-.414,4.7,4.7,0,0,1,22.626.84Zm.312-4.632a5.421,5.421,0,0,0-.78-.048,6.757,6.757,0,0,0-1.44.144V-1.62A7.3,7.3,0,0,0,22.614-4.872Zm-3.42.48a3.374,3.374,0,0,0-1.278.99,2.107,2.107,0,0,0-.462,1.3,1.385,1.385,0,0,0,.282.936,1,1,0,0,0,.8.324,2.228,2.228,0,0,0,.66-.108ZM30.654-9.12v2.688h.024A4.869,4.869,0,0,1,32.25-8.256a3.642,3.642,0,0,1,2.064-.624,2.713,2.713,0,0,1,2.25,1.02,4.529,4.529,0,0,1,.81,2.88A5.175,5.175,0,0,1,35.742-.744Q34.11.6,30.594.6l-.06-1.14a6.808,6.808,0,0,0,4.248-1.032A4.144,4.144,0,0,0,36.054-4.98,3.5,3.5,0,0,0,35.574-7a1.583,1.583,0,0,0-1.38-.684,3.1,3.1,0,0,0-2.382,1.344A5.458,5.458,0,0,0,30.618-3.06H29.43V-9.12Z" transform="translate(-21538 -18621)" fill="#707070"/>
    <path id="パス_12847" data-name="パス 12847" d="M-.828-6.72a15.516,15.516,0,0,0-2.28-.2V-2.8A15.484,15.484,0,0,1-.66-1.008l-.768.864q-.864-.72-1.7-1.332A2.154,2.154,0,0,1-3.882.108,3.141,3.141,0,0,1-5.808.6,3.06,3.06,0,0,1-7.794.018,1.928,1.928,0,0,1-8.508-1.56a1.865,1.865,0,0,1,.7-1.536,3.119,3.119,0,0,1,2-.564,4.324,4.324,0,0,1,1.5.288V-8.04A24.162,24.162,0,0,1-.7-7.8ZM-11.16-6.96V-8.04h2.136q.168-.576.48-1.752l1.128.144q-.264,1.08-.408,1.608H-5.7v1.08H-8.136A55.059,55.059,0,0,1-10.32-.9l-1.1-.384A58.14,58.14,0,0,0-9.348-6.96Zm6.852,4.752a3.338,3.338,0,0,0-1.5-.408q-1.5,0-1.5,1.056a.993.993,0,0,0,.4.84,1.793,1.793,0,0,0,1.1.3A1.611,1.611,0,0,0-4.626-.756a1.861,1.861,0,0,0,.318-1.26ZM2.5-9.3l1.284.036Q3.624-5.9,3.624-3.9a9.934,9.934,0,0,0,.12,1.716,2.315,2.315,0,0,0,.408,1.026,1.415,1.415,0,0,0,.672.492,3.264,3.264,0,0,0,1,.126q2.448,0,3.84-3.588L10.8-3.7A7.625,7.625,0,0,1,8.73-.432,4.355,4.355,0,0,1,5.82.66,3.262,3.262,0,0,1,3.1-.318,6.1,6.1,0,0,1,2.34-3.9Q2.34-6.276,2.5-9.3Z" transform="translate(-21538 -18564)" fill="#707070"/>
    <path id="パス_12831" data-name="パス 12831" d="M-45.576-3.18h7.152V-5.064h-7.152Zm0,2.676h7.152v-1.92h-7.152Zm0,.78V.924h-.948v-9.36h3.5a11.067,11.067,0,0,0,.588-1.632l.948.132a13.955,13.955,0,0,1-.528,1.5h4.536V.924h-.948V.276Zm7.152-6.1V-7.644h-7.152V-5.82Zm11.484,5.6h2.5v.84h-6.672v-.84h3.24V-6.36h-2.76v-.816h2.76v-2.4h.936v2.4h2.3v.816h-2.3ZM-32.76-7.8h1.716v.84a11.065,11.065,0,0,1-1.248,2.268q1.128,1.032,2.028,2.016l-.612.588q-.8-.876-1.908-1.908v5.04H-33.7v-4.3a10.079,10.079,0,0,1-1.776,1.284l-.252-.96A8.668,8.668,0,0,0-32.052-6.96H-35.4V-7.8h1.716V-9.684h.924ZM-16-5.736l.708-.384q.588.972,1.116,1.968l-.72.36Q-15.48-4.9-16-5.736Zm1.68-.456.72-.4q.708,1.164,1.152,2.016l-.732.36Q-13.728-5.232-14.316-6.192Zm-8.784-1.3v-.84q4.764,0,9.708-.24l.048.84a9.178,9.178,0,0,0-4.644,1.464A3.554,3.554,0,0,0-19.6-3.312a2.891,2.891,0,0,0,.924,2.268A3.566,3.566,0,0,0-16.2-.216a9.14,9.14,0,0,0,1.5-.132l.108.84a9.307,9.307,0,0,1-1.644.144A4.615,4.615,0,0,1-19.4-.4,3.577,3.577,0,0,1-20.58-3.228a3.981,3.981,0,0,1,.93-2.6A6.127,6.127,0,0,1-17-7.608l-.012-.024Q-20.616-7.488-23.1-7.488Zm12.336-.132H-4.62V-9.54h.9v1.92H-1V-6.8H-3.72v5.46A1.888,1.888,0,0,1-4-.09,1.923,1.923,0,0,1-5.244.18,19.115,19.115,0,0,1-7.272.06l.06-.84a16.083,16.083,0,0,0,1.9.12A.9.9,0,0,0-4.74-.78a.9.9,0,0,0,.12-.576V-5.808a24.359,24.359,0,0,1-5.7,4.536L-10.74-2A23.139,23.139,0,0,0-7.632-4.146,23.626,23.626,0,0,0-4.836-6.8h-5.928Zm19.4-1.3h.984v3.072A6.524,6.524,0,0,1,8.256-1.32,7.164,7.164,0,0,1,3.792.6l-.2-.876a6.535,6.535,0,0,0,3.93-1.65A5.66,5.66,0,0,0,8.64-5.82ZM2.376-3.636v-5.28h.96v5.28ZM13.908-.4a10.07,10.07,0,0,0,5.67-1.9,8.174,8.174,0,0,0,2.466-5l.876.144a9.076,9.076,0,0,1-2.73,5.5A10.634,10.634,0,0,1,14.052.48Zm6.36-9.12.66-.348q.492.8,1.008,1.788l-.66.336Q20.844-8.568,20.268-9.516Zm1.62-.192.672-.36q.48.8,1.032,1.836L22.92-7.9Q22.392-8.892,21.888-9.708Zm-8.46,4.644.168-.852q2.1.36,3.9.732l-.168.864Q14.472-4.884,13.428-5.064Zm.516-2.952.168-.864q2.088.336,4.08.744l-.168.852Q16.332-7.632,13.944-8.016ZM25-6.96h4.968V-9.4h.96V-6.96H35v.876h-4.08v.324a7.2,7.2,0,0,1-1.008,4.236A5.593,5.593,0,0,1,26.436.4l-.3-.852a4.892,4.892,0,0,0,3-1.632,6.351,6.351,0,0,0,.828-3.672v-.324H25ZM39.084-8.844h.96V-6.48a19.326,19.326,0,0,1-.27,3.672,4.627,4.627,0,0,1-.828,2A4.652,4.652,0,0,1,37.3.4L36.8-.4A4.062,4.062,0,0,0,38.22-1.434a3.816,3.816,0,0,0,.66-1.71,20.364,20.364,0,0,0,.2-3.336ZM43.164-.6a3.676,3.676,0,0,0,2.4-1.386,5.747,5.747,0,0,0,1.08-3.078l.876.108a6.13,6.13,0,0,1-1.59,3.882A4.719,4.719,0,0,1,42.4.336H42.2v-9.18h.96ZM-19.284,15.66l.84.06q-.036.792-.072,1.236a5.27,5.27,0,0,1-.132.834,2.213,2.213,0,0,1-.192.552.784.784,0,0,1-.33.282,1.235,1.235,0,0,1-.474.138q-.24.018-.7.018a3.023,3.023,0,0,1-1.464-.216q-.3-.216-.3-1.1V13.7h-1.14q-.276,3.948-3.48,5.208l-.384-.8a4.305,4.305,0,0,0,2.058-1.632,5.677,5.677,0,0,0,.894-2.772H-26.6v-.828h3.744V10.6h-2a11.461,11.461,0,0,1-.984,1.956l-.852-.4a11.78,11.78,0,0,0,1.56-3.732l.876.168A11.707,11.707,0,0,1-24.588,9.8h1.728V8.244h.936V9.8h2.964V10.6h-2.964v2.28h3.36V13.7H-21.18V17.28q0,.492.12.588a1.727,1.727,0,0,0,.78.1q.648,0,.78-.306A9.1,9.1,0,0,0-19.284,15.66Zm-9.8-6.624.564-.576a21.085,21.085,0,0,1,1.86,1.644l-.576.588A23.362,23.362,0,0,0-29.088,9.036Zm1.548,4.536q-.984-.96-2.052-1.812l.564-.612q1.128.9,2.064,1.812Zm-1.728,4.872a15.547,15.547,0,0,0,1.632-3.624l.816.288a15.746,15.746,0,0,1-1.668,3.78Zm15.18-7.056A5.743,5.743,0,0,0-12.48,9.96H-15.8A7.874,7.874,0,0,0-14.088,11.388Zm-1.452,2.328h3.192V13.08a12.566,12.566,0,0,1-1.752-.768,10.765,10.765,0,0,1-1.44.672Zm-.048,2.16h3.24V14.46H-15.54V14.8A10.274,10.274,0,0,1-15.588,15.876Zm5.232.648V9h.9v7.524Zm2.4-8h.912v8.844a2.212,2.212,0,0,1-.222,1.26q-.222.252-1.11.252-.528,0-1.548-.06l-.036-.852q.948.06,1.44.06.384,0,.474-.108a1.168,1.168,0,0,0,.09-.6Zm-6.54-.456h.912V9.18h2.82v.78h-.66A7.262,7.262,0,0,1-13.3,11.82a14.564,14.564,0,0,0,2.844.96l-.252.78q-.5-.12-.744-.192V18.84h-.9V16.62H-15.7a5.048,5.048,0,0,1-1.056,2.352l-.732-.564A5.484,5.484,0,0,0-16.4,14.76V13.3q-.384.132-.888.264l-.18-.816a16.073,16.073,0,0,0,2.58-.912A10.078,10.078,0,0,1-16.584,10.4l.528-.444h-1.188V9.18H-14.5ZM4.008,18.24A18.163,18.163,0,0,1,1,18.48a7.283,7.283,0,0,1-3.174-.51,1.7,1.7,0,0,1-.978-1.614q0-1.908,3.612-2.928a1.487,1.487,0,0,0-.45-.768,1.16,1.16,0,0,0-.726-.216,2.79,2.79,0,0,0-1.626.7,9.2,9.2,0,0,0-1.83,2l-.732-.468A23.526,23.526,0,0,0-2.5,10.524h-2.34V9.756h2.664q.276-.672.54-1.464l.864.2q-.24.636-.48,1.26H3.96v.768H-1.572q-.4.9-.876,1.86l.012.012a3.415,3.415,0,0,1,1.872-.72A1.872,1.872,0,0,1,1.32,13.212q1.212-.276,2.748-.468l.084.78q-1.632.216-2.664.456a14.2,14.2,0,0,1,.156,2.34H.72a16.7,16.7,0,0,0-.108-2.112q-2.856.828-2.856,2.076a1.172,1.172,0,0,0,.12.552,1.252,1.252,0,0,0,.444.438,2.663,2.663,0,0,0,1,.318A10.869,10.869,0,0,0,1,17.7a18.051,18.051,0,0,0,2.928-.264Zm3.8-2.34H6.936V8.664h3.552V15.9Zm0-2.22V15.1H9.648V13.68Zm0-2.124v1.4H9.648v-1.4Zm0-.72H9.648V9.456H7.812ZM6.324,18.5A7.82,7.82,0,0,0,7.9,16.2l.732.372A7.574,7.574,0,0,1,6.984,19ZM8.8,16.524l.732-.336a15.246,15.246,0,0,1,.72,1.368,12.039,12.039,0,0,0,1-5.34V8.724h6.18v.792H12.156V11.4h4.968v.78a10.8,10.8,0,0,1-1.98,4.08,8.073,8.073,0,0,0,2.568,1.848l-.42.768a8.374,8.374,0,0,1-2.748-1.956,9.127,9.127,0,0,1-2.976,1.956l-.384-.78a8.116,8.116,0,0,0,2.8-1.86,10.688,10.688,0,0,1-1.68-3.468l.84-.312a9.906,9.906,0,0,0,1.44,3.084,9.934,9.934,0,0,0,1.6-3.36h-4.02v.636a10.684,10.684,0,0,1-1.56,6l-.54-.564-.324.132A15,15,0,0,0,8.8,16.524ZM29.28,9.252v.768h-4.8v1.152h3.96v.744H19.56v-.744h3.96V10.02h-4.8V9.252h4.8V8.3h.96v.948Zm-.4,3.564v2.4h-.9V13.56H20.016v1.776h-.9v-2.52ZM22.2,14.22l.9.084a4.623,4.623,0,0,1-1.014,2.958A5.688,5.688,0,0,1,19.14,18.9l-.384-.78a5.122,5.122,0,0,0,2.574-1.374A4.032,4.032,0,0,0,22.2,14.22Zm2.6.036h.936v3.132a1.375,1.375,0,0,0,.018.27.522.522,0,0,0,.066.156.289.289,0,0,0,.216.1q.168.024.384.036t.636.012h.408a1.493,1.493,0,0,0,.294-.036,1.377,1.377,0,0,0,.228-.06.463.463,0,0,0,.144-.15.52.52,0,0,0,.1-.21q.012-.084.054-.342a3.547,3.547,0,0,0,.048-.456q.006-.2.018-.63l.924.06q-.024.54-.042.84a5.977,5.977,0,0,1-.072.624,3.709,3.709,0,0,1-.1.474.893.893,0,0,1-.192.312.74.74,0,0,1-.27.21,2.38,2.38,0,0,1-.4.1,3.583,3.583,0,0,1-.528.054q-.252.006-.708.006-.528,0-.84-.012a4.267,4.267,0,0,1-.582-.06,1.3,1.3,0,0,1-.4-.12.607.607,0,0,1-.216-.222.778.778,0,0,1-.108-.324q-.018-.174-.018-.474Z" transform="translate(-21253 -18687)" fill="#d3d5df"/>
    <path id="パス_12842" data-name="パス 12842" d="M-27.336-3.3h6.672V-4.86h-6.672Zm0,2.6h6.672V-2.28h-6.672ZM-24.66-10.1l1.32.168A14.566,14.566,0,0,1-23.8-8.5h4.416V.96h-1.284V.36h-6.672v.6H-28.62V-8.5h3.456A16.579,16.579,0,0,0-24.66-10.1Zm4,4.224V-7.416h-6.672V-5.88ZM-8.736-.456H-6.42V.7h-6.6V-.456h3V-6.18h-2.52V-7.3h2.52V-9.624h1.284V-7.3H-6.6V-6.18H-8.736ZM-14.52-7.92h1.62v1.14A10.251,10.251,0,0,1-13.968-4.8q1.272,1.236,1.956,1.992l-.84.816q-.756-.864-1.692-1.776V1.08h-1.272V-2.892a8.358,8.358,0,0,1-1.608,1.116l-.312-1.332A7.957,7.957,0,0,0-14.28-6.78H-17.4V-7.92h1.62v-1.8h1.26Zm16.3,2.388.972-.5q.72,1.272,1.068,1.956l-.972.468Q2.292-4.656,1.776-5.532Zm1.776-.432,1-.516Q5.16-5.4,5.64-4.488l-1,.48Q4.14-4.968,3.552-5.964Zm-6.216,2.7A3.92,3.92,0,0,1-1.89-5.64,5.649,5.649,0,0,1,.372-7.38V-7.4q-2.76.12-5.508.12v-1.14q4.8,0,9.78-.24l.06,1.14A9.222,9.222,0,0,0,.186-6.12,3.29,3.29,0,0,0-1.32-3.384,2.7,2.7,0,0,0-.45-1.248,3.363,3.363,0,0,0,1.86-.48,9.385,9.385,0,0,0,3.348-.612L3.492.54A9.932,9.932,0,0,1,1.8.7,4.754,4.754,0,0,1-1.458-.366,3.663,3.663,0,0,1-2.664-3.264ZM13.8-1.764a9.887,9.887,0,0,1-1.332-2.664A9.977,9.977,0,0,1,11.388-.18,7.8,7.8,0,0,0,13.8-1.764Zm.816-.96a8.929,8.929,0,0,0,1.3-2.94H12.48v.54l.936-.36A9.663,9.663,0,0,0,14.616-2.724ZM8.04-2.1H6.84V-9.42h3.72V-2.1Zm0-2.16v1.08H9.42V-4.26Zm0-2.04v1.08H9.42V-6.3Zm0-.96H9.42V-8.34H8.04ZM6.228.432A8.813,8.813,0,0,0,7.812-1.92l.864.456.816-.408q.336.492.72,1.164A10.728,10.728,0,0,0,11.22-5.9V-9.36H17.5v1.08H12.48v1.56H17.2v1.056A10.423,10.423,0,0,1,15.4-1.74,7.17,7.17,0,0,0,17.76-.084L17.16.96a8.078,8.078,0,0,1-2.58-1.8A9.335,9.335,0,0,1,11.748.96L11.28.024A8.34,8.34,0,0,1,10.7.9L10.248.312,9.66.576a17.259,17.259,0,0,0-.984-1.74A8.007,8.007,0,0,1,7.152,1.092ZM29.34-8.856v1.032H24.66v.864H28.5v.984h-9V-6.96h3.84v-.864H18.66V-8.856h4.68v-.888h1.32v.888Zm-.36,3.6v2.52H27.744V-4.26H20.256v1.644H19.02v-2.64ZM22.056-3.7l1.224.12a4.606,4.606,0,0,1-1.074,2.9A6.013,6.013,0,0,1,19.212.984L18.672-.06a5.311,5.311,0,0,0,2.5-1.308A3.835,3.835,0,0,0,22.056-3.7Zm2.568.072h1.3V-.732q0,.348.156.42a3.374,3.374,0,0,0,.948.072h.414A.626.626,0,0,0,27.7-.312a.416.416,0,0,0,.186-.138,1.647,1.647,0,0,0,.1-.312,2.269,2.269,0,0,0,.066-.48q.006-.234.03-.738l1.26.1q-.036.744-.06,1.122a2.987,2.987,0,0,1-.144.744,1.577,1.577,0,0,1-.228.492,1,1,0,0,1-.432.234,2.284,2.284,0,0,1-.636.12q-.312.012-.96.012-.552,0-.888-.012A3.472,3.472,0,0,1,25.38.756a1.617,1.617,0,0,1-.408-.132.566.566,0,0,1-.222-.24.941.941,0,0,1-.108-.36q-.018-.192-.018-.516Z" transform="translate(-21253 -18621)" fill="#707070"/>
    <path id="パス_12845" data-name="パス 12845" d="M-.828-6.72a15.516,15.516,0,0,0-2.28-.2V-2.8A15.484,15.484,0,0,1-.66-1.008l-.768.864q-.864-.72-1.7-1.332A2.154,2.154,0,0,1-3.882.108,3.141,3.141,0,0,1-5.808.6,3.06,3.06,0,0,1-7.794.018,1.928,1.928,0,0,1-8.508-1.56a1.865,1.865,0,0,1,.7-1.536,3.119,3.119,0,0,1,2-.564,4.324,4.324,0,0,1,1.5.288V-8.04A24.162,24.162,0,0,1-.7-7.8ZM-11.16-6.96V-8.04h2.136q.168-.576.48-1.752l1.128.144q-.264,1.08-.408,1.608H-5.7v1.08H-8.136A55.059,55.059,0,0,1-10.32-.9l-1.1-.384A58.14,58.14,0,0,0-9.348-6.96Zm6.852,4.752a3.338,3.338,0,0,0-1.5-.408q-1.5,0-1.5,1.056a.993.993,0,0,0,.4.84,1.793,1.793,0,0,0,1.1.3A1.611,1.611,0,0,0-4.626-.756a1.861,1.861,0,0,0,.318-1.26ZM2.5-9.3l1.284.036Q3.624-5.9,3.624-3.9a9.934,9.934,0,0,0,.12,1.716,2.315,2.315,0,0,0,.408,1.026,1.415,1.415,0,0,0,.672.492,3.264,3.264,0,0,0,1,.126q2.448,0,3.84-3.588L10.8-3.7A7.625,7.625,0,0,1,8.73-.432,4.355,4.355,0,0,1,5.82.66,3.262,3.262,0,0,1,3.1-.318,6.1,6.1,0,0,1,2.34-3.9Q2.34-6.276,2.5-9.3Z" transform="translate(-21253 -18564)" fill="#707070"/>
    <path id="パス_12836" data-name="パス 12836" d="M1.6-8.664H10.4v1.74H7.02v5.208h3.744V.024H1.236v-1.74H4.98V-6.924H1.6ZM13.68-1.3Q17.448-1.62,19.122-3a7.6,7.6,0,0,0,2.262-4.7l1.836.312a9.407,9.407,0,0,1-2.808,5.754Q18.3.156,13.98.54ZM13.2-4.788l.348-1.668q2.124.36,4,.768l-.36,1.668Q15.264-4.44,13.2-4.788Zm.576-2.868.36-1.7q1.92.324,4.08.768l-.36,1.716Q15.36-7.392,13.776-7.656ZM28.14-9.6h1.884q0,1.2-.024,1.74h4.476v1.524q0,1.524-.042,2.592a16.029,16.029,0,0,1-.162,1.83A7.124,7.124,0,0,1,34-.708a1.671,1.671,0,0,1-.432.7,1.375,1.375,0,0,1-.57.33A3.054,3.054,0,0,1,32.232.4q-.948,0-2.556-.168l.156-1.752q1.308.12,1.8.12a.522.522,0,0,0,.474-.234,3.063,3.063,0,0,0,.24-1.1q.09-.864.09-2.64V-6.12H29.868a11.216,11.216,0,0,1-1.08,4,8.757,8.757,0,0,1-2.4,2.76L25.164-.7a7.2,7.2,0,0,0,1.944-2.19,8.845,8.845,0,0,0,.876-3.234h-2.7V-7.86H28.1Q28.14-8.664,28.14-9.6Zm10.416.456h1.968V-6.66a20.644,20.644,0,0,1-.276,3.846A4.79,4.79,0,0,1,39.36-.7,5.336,5.336,0,0,1,37.536.636L36.468-1q.492-.264.786-.462a2.672,2.672,0,0,0,.558-.516,2.171,2.171,0,0,0,.384-.654,5.49,5.49,0,0,0,.216-.936,10.543,10.543,0,0,0,.12-1.3q.024-.7.024-1.794Zm5.22,7.584a2.413,2.413,0,0,0,1.44-1.158,6.75,6.75,0,0,0,.648-2.55l1.836.252A6.444,6.444,0,0,1,46.086-.828,5.512,5.512,0,0,1,42.1.492h-.312V-9.144h1.992ZM1.416,14.74A10.881,10.881,0,0,0,5.01,13.3a5.931,5.931,0,0,0,2.07-2.442,11.814,11.814,0,0,0,.936-3.942l2.148.2a11.2,11.2,0,0,1-2.232,6.42,10.6,10.6,0,0,1-5.844,3.1ZM13,12.652V10.708H23v1.944Zm12.12-3.66V7.2h9.792V8.992a8.232,8.232,0,0,1-1.626,2.778,10.726,10.726,0,0,1-2.814,2.178q.4.576,1.212,1.776l-1.74,1.068q-1.7-2.544-3.54-5.016l1.68-1.128q.192.252.612.816t.624.852a9.529,9.529,0,0,0,2.112-1.53,6.277,6.277,0,0,0,1.344-1.794Zm13.44-2.136h1.968V9.34a20.644,20.644,0,0,1-.276,3.846A4.79,4.79,0,0,1,39.36,15.3a5.336,5.336,0,0,1-1.824,1.332L36.468,15q.492-.264.786-.462a2.672,2.672,0,0,0,.558-.516,2.171,2.171,0,0,0,.384-.654,5.49,5.49,0,0,0,.216-.936,10.543,10.543,0,0,0,.12-1.3q.024-.7.024-1.794Zm5.22,7.584a2.413,2.413,0,0,0,1.44-1.158,6.75,6.75,0,0,0,.648-2.55l1.836.252a6.444,6.444,0,0,1-1.614,4.188,5.512,5.512,0,0,1-3.99,1.32h-.312V6.856h1.992Z" transform="translate(-21922 -18686)" fill="#fff"/>
    <path id="パス_12766" data-name="パス 12766" d="M5184.292-14295.724v11.673" transform="translate(-26950.293 -4392.777)" fill="none" stroke="#d3d5df" stroke-width="1"/>
    <path id="パス_12767" data-name="パス 12767" d="M5184.292-14295.724v11.673" transform="translate(-27037.793 -4392.777)" fill="none" stroke="#d3d5df" stroke-width="1"/>
    <path id="パス_12768" data-name="パス 12768" d="M5184.292-14295.724v11.673" transform="translate(-26809.293 -4392.777)" fill="none" stroke="#d3d5df" stroke-width="1"/>
    <path id="パス_12769" data-name="パス 12769" d="M5184.292-14295.724v11.673" transform="translate(-26635.293 -4392.777)" fill="none" stroke="#d3d5df" stroke-width="1"/>
    <path id="パス_12770" data-name="パス 12770" d="M5184.292-14295.724v11.673" transform="translate(-26499.293 -4392.777)" fill="none" stroke="#d3d5df" stroke-width="1"/>
    <path id="パス_12771" data-name="パス 12771" d="M5184.292-14295.724v11.673" transform="translate(-26375.293 -4392.777)" fill="none" stroke="#d3d5df" stroke-width="1"/>
    <path id="パス_12824" data-name="パス 12824" d="M-14.58-6.252v.912h-6.84v-.912q-.924.576-1.7,1l-.54-1.068a25.1,25.1,0,0,0,4.872-3.42h1.584a25.1,25.1,0,0,0,4.872,3.42l-.54,1.068Q-13.656-5.676-14.58-6.252Zm-.216-.132A22.829,22.829,0,0,1-18-8.9a22.829,22.829,0,0,1-3.2,2.52Zm.084,3.588q.948,1.62,1.92,3.48l-1.116.492q-.084-.156-.282-.534L-14.5.06A79.366,79.366,0,0,1-22.74.78L-22.8-.3q1.14-.048,1.692-.084.732-1.4,1.248-2.676H-23.1V-4.14h10.2v1.08h-5.6q-.5,1.284-1.164,2.58,2.256-.156,4.632-.456-.348-.636-.768-1.368ZM-2.736-.456H-.42V.7h-6.6V-.456h3V-6.18H-6.54V-7.3h2.52V-9.624h1.284V-7.3H-.6V-6.18H-2.736ZM-8.52-7.92H-6.9v1.14A10.251,10.251,0,0,1-7.968-4.8Q-6.7-3.564-6.012-2.808l-.84.816q-.756-.864-1.692-1.776V1.08H-9.816V-2.892a8.358,8.358,0,0,1-1.608,1.116l-.312-1.332A7.957,7.957,0,0,0-8.28-6.78H-11.4V-7.92h1.62v-1.8h1.26ZM8.34-4.656H9.864v-.528H8.34Zm0,1.32H9.864v-.528H8.34ZM5.46-3.864v.528H7.02v-.528Zm0-.792H7.02v-.528H5.46ZM3.024-8.364V-6.72h.792v-.9h3.2v-.588q-1.7.1-2.784.108l-.012-.588Q3.708-8.52,3.024-8.364ZM3.072-5.64Q3.8-4.284,4.26-3.4V-6.12H7.02v-.5H3.984v.984ZM11.28-.9H8.34v.6h3.276V.744H3.576V-.3H7.02V-.9h-3v-1h3v-.5H4.26v-.456l-.684.444q-.36-.792-.552-1.2V1.08h-1.2V-2.8A10.25,10.25,0,0,1,.924-.78L.276-2.064a12.027,12.027,0,0,0,1.5-3.576H.54V-6.72H1.824V-8.136Q1.08-8.04.732-8L.624-9.024a19.133,19.133,0,0,0,3.5-.7l.18.564a39.108,39.108,0,0,0,6.684-.564l.156,1.044A27.87,27.87,0,0,1,8.34-8.3v.684H11.4v1H8.34v.5H11.1V-2.4H8.34v.5h2.94Zm8.136-3.12h2.64v-.84h-2.64Zm0,1.764h2.64V-3.12h-2.64ZM18.1-8.376V-9.42H23.58v1.044H21.24q-.108.516-.192.84H23.28V-1.26H21.612a11.323,11.323,0,0,1,2.16,1.5l-.66.9A13.723,13.723,0,0,0,20.82-.42l.576-.84H19.8l.648.768A7.077,7.077,0,0,1,18.12,1.092L17.5.132A7.758,7.758,0,0,0,19.62-1.26h-1.4V-7.536H19.74q.144-.552.2-.84Zm3.96,2.616v-.816h-2.64v.816Zm-7.272-3.9H15.96v2.4h1.92v1H16.524A16.556,16.556,0,0,1,18.048-4.9l-.78.828A18.58,18.58,0,0,0,15.96-5.5v1.32H14.784v-1.1A9.443,9.443,0,0,1,13.08-3.7l-.66-.888a10.071,10.071,0,0,0,1.968-1.68H12.6v-1h2.184Zm-2.052.612.9-.468a12.95,12.95,0,0,1,.936,1.656l-.912.456Q13.164-8.364,12.732-9.048Zm3.4,1.176a10.213,10.213,0,0,0,.888-1.668l.948.384a9.688,9.688,0,0,1-.936,1.728ZM14.784-3.864H15.96v.8h1.956v1.02H16.08A14.686,14.686,0,0,1,17.82-.432L16.968.42a12.913,12.913,0,0,0-1.452-1.548,4.861,4.861,0,0,1-2.5,2.172L12.432,0a3.564,3.564,0,0,0,2.22-2.04H12.6V-3.06h2.184Z" transform="translate(-21810 -18735)" fill="#707070"/>
    <path id="パス_12825" data-name="パス 12825" d="M-92.04-1.584l-4.62.864-.108-1.1,4.728-.888V-9.72h1.248v6.768l1.08-.192.108,1.1-1.188.216v2.9H-92.04Zm-1.1-4.464a30.087,30.087,0,0,0-2.184-2.22l.864-.8a25.82,25.82,0,0,1,2.2,2.2Zm-.72,3a32.023,32.023,0,0,0-2.388-2.424l.852-.816a28.422,28.422,0,0,1,2.412,2.412ZM-96.456-5.9V-4.86h-1.152q1.056,2.076,1.272,2.52l-.864.684-.792-1.728V1.08h-1.2V-2.76a9.826,9.826,0,0,1-1.32,2.52l-.648-1.176A11.489,11.489,0,0,0-99.384-4.86H-100.9V-5.9h1.7V-9.72h1.2V-5.9Zm-4.524-3.024,1.044-.252a27.641,27.641,0,0,1,.612,2.76l-1.008.24Q-100.608-7.548-100.98-8.928Zm3.108,2.484a14.479,14.479,0,0,0,.636-2.8l1.068.132a18.833,18.833,0,0,1-.7,2.952Zm17.112-.612a24.144,24.144,0,0,1-2.616-1.788,24.144,24.144,0,0,1-2.616,1.788Zm-6.384,4.3,1.056-.6a22.5,22.5,0,0,1,1.3,2.292l-1.092.516A19.58,19.58,0,0,0-87.144-2.76Zm5.16,1.6a19.552,19.552,0,0,0,1.224-2.22l1.1.528a18.33,18.33,0,0,1-1.3,2.28ZM-88.536-.3h4.5V-3.576h-4.02V-4.62h4.02V-6H-86.52v-.744q-.864.48-2.076,1.032l-.444-1A25.864,25.864,0,0,0-84.156-9.7h1.56a25.864,25.864,0,0,0,4.884,2.988l-.444,1q-1.212-.552-2.076-1.032V-6h-2.484v1.38h4.02v1.044h-4.02V-.3h4.5V.78h-10.32Zm13.224-3.4a7.439,7.439,0,0,0,2.34,5.556h-1.2a7.269,7.269,0,0,1-1.776-2.5,7.613,7.613,0,0,1-.624-3.06,7.571,7.571,0,0,1,.624-3.054,7.284,7.284,0,0,1,1.776-2.49h1.2A7.425,7.425,0,0,0-75.312-3.7Zm6.5,3.7V-7.2h-.024l-2.256,2.04-.48-1.08,2.76-2.52h1.32V0Zm5.916,0V.72h-1.2V-9.24h3.564V0Zm0-4.224V-1.08h1.2V-4.224Zm0-1.08h1.2V-8.136h-1.2Zm9.48,0h-1.152v1.1h1.152v1.08h-1.152v2.3q0,.456-.012.714a1.9,1.9,0,0,1-.084.486.805.805,0,0,1-.168.324.854.854,0,0,1-.312.174,1.579,1.579,0,0,1-.462.09q-.246.012-.666.012-.336,0-1.5-.06l-.06-1.068Q-57-.1-56.484-.1q.468,0,.552-.09a1.156,1.156,0,0,0,.084-.594V-3.12h-4.32V-4.2h4.32V-5.3h-4.32v-1.08h2.724V-7.7h-2.208V-8.76h2.208v-1.2h1.3v1.2h2.3V-7.7h-2.3v1.32h2.736ZM-57.12-1.116l-.84.792a21.8,21.8,0,0,0-1.824-1.824l.828-.8A18.08,18.08,0,0,1-57.12-1.116Zm8.832-.588v.768h2.76V-1.7Zm0-.912h2.76v-.72h-2.76Zm-2.556-4.128v.864h2.316v-.864Zm0-.84h2.316V-8.46h-2.316Zm7.872.84h-2.436v.864h2.436Zm0-.84V-8.46h-2.436v.876ZM-52.092.984V-9.48h4.8v4.5h-3.552V.984Zm8.664-.048q-.12,0-.318-.012l-.564-.03q-.366-.018-.678-.03L-45.036,0h-3.252V.6h-1.2V-4.3h5.16V-.168l.684.024a1.056,1.056,0,0,0,.576-.09q.1-.09.1-.546v-4.2h-3.672v-4.5h4.92V-.816a2.458,2.458,0,0,1-.27,1.47A2.255,2.255,0,0,1-43.428.936ZM-33.78-.24a3.73,3.73,0,0,0,1.9-.906,2.087,2.087,0,0,0,.7-1.554,1.909,1.909,0,0,0-1.188-1.884A8.26,8.26,0,0,1-34.662-1.05,4.58,4.58,0,0,1-37.668.24,2.113,2.113,0,0,1-39.24-.354a2.21,2.21,0,0,1-.588-1.626,3.345,3.345,0,0,1,.78-2.178,4.706,4.706,0,0,1,2.16-1.434V-7.2h-2.46V-8.22h2.46V-9.66h1.2v1.44h5.22V-7.2h-5.22v1.308A9.23,9.23,0,0,1-34.248-6a4.94,4.94,0,0,1,3.138.888A2.912,2.912,0,0,1-29.988-2.7a3.144,3.144,0,0,1-.924,2.286A4.7,4.7,0,0,1-33.456.84Zm.312-4.632a5.421,5.421,0,0,0-.78-.048,6.757,6.757,0,0,0-1.44.144V-1.62A7.3,7.3,0,0,0-33.468-4.872Zm-3.42.48a3.374,3.374,0,0,0-1.278.99,2.107,2.107,0,0,0-.462,1.3,1.385,1.385,0,0,0,.282.936,1,1,0,0,0,.8.324,2.228,2.228,0,0,0,.66-.108Zm18.6-.468a38.1,38.1,0,0,0-4.824.3l-.072-1.08a39.25,39.25,0,0,1,4.9-.3Zm-4.56,1.32.78.72a4.385,4.385,0,0,0-.66.612.711.711,0,0,0-.18.432q0,.492.636.8a3.905,3.905,0,0,0,1.7.312A12.914,12.914,0,0,0-18.18-.9l.144,1.08a13.63,13.63,0,0,1-2.532.24,4.956,4.956,0,0,1-2.574-.582,1.715,1.715,0,0,1-.966-1.494A2.57,2.57,0,0,1-22.848-3.54Zm-4.8-3.6V-8.22H-25.7q.192-1.008.276-1.512l1.2.108q-.036.2-.078.438t-.1.522q-.054.288-.078.444h4.272v1.08h-4.476A58.918,58.918,0,0,1-26.808.648l-1.2-.276A61.665,61.665,0,0,0-25.92-7.14Zm14.22-1.98v2.688h.024a4.869,4.869,0,0,1,1.572-1.824A3.642,3.642,0,0,1-9.768-8.88a2.713,2.713,0,0,1,2.25,1.02,4.529,4.529,0,0,1,.81,2.88A5.175,5.175,0,0,1-8.34-.744Q-9.972.6-13.488.6l-.06-1.14A6.808,6.808,0,0,0-9.3-1.572,4.145,4.145,0,0,0-8.028-4.98,3.5,3.5,0,0,0-8.508-7a1.583,1.583,0,0,0-1.38-.684A3.1,3.1,0,0,0-12.27-6.336,5.458,5.458,0,0,0-13.464-3.06h-1.188V-9.12ZM-4.4-9.24h1.2A7.284,7.284,0,0,1-1.428-6.75,7.571,7.571,0,0,1-.8-3.7a7.613,7.613,0,0,1-.624,3.06A7.269,7.269,0,0,1-3.2,1.86H-4.4A7.439,7.439,0,0,0-2.064-3.7,7.425,7.425,0,0,0-4.4-9.24Z" transform="translate(-21645 -18735)" fill="#707070"/>
    <path id="パス_12827" data-name="パス 12827" d="M-43.1-4.224h1.872q.048-.888.048-1.512v-.408H-43.1Zm-2.112-2.424V1.08H-46.44V-4.284a9.646,9.646,0,0,1-.888,1.308l-.516-1.44a13.459,13.459,0,0,0,2.22-5.352l1.188.216A15.347,15.347,0,0,1-45.216-6.648ZM-36.48-8.9v1.08H-39.9v.684h3.084v4.62H-38.04v-.72h-2a5.808,5.808,0,0,1-.648,2.064,9.777,9.777,0,0,0,4.272,1l-.156,1.1A10.316,10.316,0,0,1-41.412-.3,6.759,6.759,0,0,1-44.388.924l-.4-1.08a6.778,6.778,0,0,0,2.28-.876A6.718,6.718,0,0,1-43.812-2.52l1.02-.6a5.777,5.777,0,0,0,1.044,1.212A4.025,4.025,0,0,0-41.34-3.24H-44.3v-3.9h3.12v-.684h-3.192V-8.9h3.192V-9.84H-39.9V-8.9Zm-1.56,4.68v-1.92H-39.9v.408q0,.9-.048,1.512ZM-30.5-5.58h-2.64v1.044q0,.36-.024.96H-30.5Zm1.224,0v2h2.94v-2Zm-1.224-1V-8.424h-2.64v1.848Zm1.224,0h2.94V-8.424h-2.94Zm4.2-2.9V-.72A2.426,2.426,0,0,1-25.35.744a2.237,2.237,0,0,1-1.41.276q-.264,0-1.62-.06L-28.44-.1q.3.012.648.03t.534.03q.186.012.282.012.456,0,.546-.1a.956.956,0,0,0,.09-.54V-2.58h-2.94V.78H-30.5V-2.58H-33.24a7.908,7.908,0,0,1-.45,2.022,7.423,7.423,0,0,1-.918,1.674L-35.652.288a6.2,6.2,0,0,0,.966-2.13,14.581,14.581,0,0,0,.27-3.2V-9.48Zm4.3,3.54A12.8,12.8,0,0,0-19.26-9.648l1.2.24a10.143,10.143,0,0,1-.276,1.068h1.32V-9.78h1.3v1.44h2.82v1.08h-2.82v2.04H-12.5V-4.1H-15V-.84q0,.444.09.522a1.235,1.235,0,0,0,.594.078q.5,0,.612-.282a9.33,9.33,0,0,0,.168-1.854l1.14.1q-.024.612-.048,1a7.542,7.542,0,0,1-.084.75q-.06.366-.108.564a1.114,1.114,0,0,1-.174.378.915.915,0,0,1-.24.252,1.165,1.165,0,0,1-.342.126,2.528,2.528,0,0,1-.438.066q-.21.012-.57.012a3.041,3.041,0,0,1-1.548-.24q-.312-.24-.312-1.2V-4.1h-.912a5.411,5.411,0,0,1-3.54,5.124l-.516-1.1a4.115,4.115,0,0,0,1.95-1.494,5.041,5.041,0,0,0,.87-2.526h-2.208V-5.22h3.6V-7.26h-1.692A11.836,11.836,0,0,1-19.6-5.424ZM-23.2-8.832l.768-.78a23.086,23.086,0,0,1,1.836,1.62l-.78.8A21.233,21.233,0,0,0-23.2-8.832Zm1.584,4.584q-.828-.828-2.04-1.824l.768-.816a23.3,23.3,0,0,1,2.04,1.8Zm.756,1.38A16.9,16.9,0,0,1-22.332.96L-23.388.372a18.691,18.691,0,0,0,1.44-3.612Zm12.7-3.816A5.511,5.511,0,0,0-6.792-7.86H-9.6A6.46,6.46,0,0,0-8.16-6.684ZM-9.384-4.3h2.712v-.5a11.313,11.313,0,0,1-1.512-.648,12.293,12.293,0,0,1-1.2.552Zm-.048,2.16h2.76V-3.3H-9.384v.12Q-9.384-2.784-9.432-2.136Zm7.212-7.4H-.96V-.78A2.572,2.572,0,0,1-1.212.678Q-1.464.96-2.52.96-3.048.96-4.08.9L-4.14-.264q1,.048,1.4.048.36,0,.438-.09A1.042,1.042,0,0,0-2.22-.84ZM-4.86-8.9V-7.86h-.48A7.592,7.592,0,0,1-7.08-6.132a17.016,17.016,0,0,0,2.544.8V-9.06H-3.3V-1.5H-4.536V-5.136l-.288.876q-.108-.024-.318-.078l-.306-.078V.9H-6.672V-1.14h-2.9a5.4,5.4,0,0,1-.96,2.2L-11.544.3a5.821,5.821,0,0,0,.984-3.54V-4.476q-.48.144-.744.216l-.24-1.116a17.445,17.445,0,0,0,2.256-.732A9.342,9.342,0,0,1-10.776-7.38l.564-.48H-11.28V-8.9h2.544V-9.96h1.272V-8.9Z" transform="translate(-21359 -18735)" fill="#707070"/>
    <path id="パス_12829" data-name="パス 12829" d="M-94.584-7.536v-1.1h9.6v1.1a6.158,6.158,0,0,1-1.224,2.274,6.92,6.92,0,0,1-2.064,1.686l-.684-1.008A5.144,5.144,0,0,0-86.34-7.536ZM-91.26-6.48H-90a14.527,14.527,0,0,1-.33,3.414A5.144,5.144,0,0,1-91.374-.912,5.546,5.546,0,0,1-93.348.48l-.6-1.044a4.267,4.267,0,0,0,1.6-1.146,4.326,4.326,0,0,0,.828-1.818A13.687,13.687,0,0,0-91.26-6.48Zm8.76-2.04h9.06v.24q0,4.068-1.9,6.156T-81.228.36L-81.456-.8a8.077,8.077,0,0,0,4.9-1.884A6.8,6.8,0,0,0-74.784-7.32H-82.5Zm14.16-.972,1.2.084a10.732,10.732,0,0,1-.168,1.068h5.568v.48q0,4.092-1.9,6.072T-69.72.54L-69.9-.6a12.183,12.183,0,0,0,3.456-.768,5.113,5.113,0,0,0,2.148-1.6q-2.064-1.044-3.672-1.752l.576-1.1q2,.888,3.72,1.764a9,9,0,0,0,.6-3.144H-67.62a8.957,8.957,0,0,1-2.364,3.612l-.852-.78a7.983,7.983,0,0,0,1.68-2.322A8.646,8.646,0,0,0-68.34-9.492Zm9.42,5.8v-1.26h9.84V-3.7ZM-46.5-8.52h9.06v.24q0,4.068-1.9,6.156T-45.228.36L-45.456-.8a8.077,8.077,0,0,0,4.9-1.884A6.8,6.8,0,0,0-38.784-7.32H-46.5Zm12.636,2.4H-29.1V-7.572h1.164V-6.12h1.992v1.044h-1.992v3.924A1.991,1.991,0,0,1-28.188.114a2.033,2.033,0,0,1-1.26.246,15.832,15.832,0,0,1-1.608-.1l.072-1.056a13.327,13.327,0,0,0,1.416.1.617.617,0,0,0,.39-.078.617.617,0,0,0,.078-.39v-2.76a21.32,21.32,0,0,1-4.236,3.2l-.54-.936a19.868,19.868,0,0,0,4.452-3.42h-4.44ZM-22.62-8.64h9.24V0h-9.24Zm1.32,7.464h6.6V-7.464h-6.6ZM-10.92-3.7v-1.26h9.84V-3.7Z" transform="translate(-21075 -18735)" fill="#707070"/>
    <path id="パス_12826" data-name="パス 12826" d="M-38.184-7.656h-7.632V-5.94H-47.04V-8.7h4.38V-9.9h1.32v1.2h4.38v2.76h-1.224Zm1.56,7.416L-36.7.864h-.8a18.143,18.143,0,0,1-5-.522,5.2,5.2,0,0,1-2.724-1.89,18.385,18.385,0,0,1-1.188,2.6L-47.508.6A17.435,17.435,0,0,0-45.66-4.452l1.164.228q-.12.672-.324,1.392a4.892,4.892,0,0,0,.978,1.242,4.229,4.229,0,0,0,1.35.786V-5.58h-2.892V-6.624h6.768V-5.58h-2.556v1.74h3.492v1.056h-3.492V-.468A23.308,23.308,0,0,0-37.44-.24Zm8.448-5.3v.96q0,.624-.012.924h2.148V-5.544Zm0-1.056h2.136V-8.34h-2.136Zm-5.352,2.856V-2.7h1.98V-3.744Zm0-1.956v1.02h1.98V-5.7Zm0-.924h1.98v-1h-1.98Zm7.008,6.48q.36,0,.42-.072a1.217,1.217,0,0,0,.06-.528V-2.616h-2.208a9.282,9.282,0,0,1-1.044,3.66l-.984-.792L-30.9.636a12.809,12.809,0,0,0-1.26-1.848l.72-.468h-2.028l.684.444A8.855,8.855,0,0,1-34.6,1.128L-35.448.4A9.543,9.543,0,0,0-33.78-1.68h-1.728V-2.7h.78V-7.62h-.72V-8.664h.72v-1h1.2v1h1.98v-1h1.14v1h.66V-7.62h-.66V-2.7h.636v1.02h-1.356A11.307,11.307,0,0,1-30.084-.168,7.011,7.011,0,0,0-29.5-2.142,21.091,21.091,0,0,0-29.34-5.1V-9.42h4.524V-.78q0,.648-.024.948a1.071,1.071,0,0,1-.156.5.52.52,0,0,1-.33.246,3.271,3.271,0,0,1-.618.042q-.372,0-1.6-.06L-27.6-.2Q-26.7-.144-26.52-.144Zm7.98-2.076v.564H-14.3V-2.22Zm0-.9H-14.3V-3.7H-18.54Zm-4.6-5.628.744-.864a21.912,21.912,0,0,1,1.98,1.62l-.744.9A25.447,25.447,0,0,0-23.136-8.748Zm1.656,4.476a25.95,25.95,0,0,0-2.184-1.836l.732-.864a20.484,20.484,0,0,1,2.2,1.8Zm1.056,1.26A14.305,14.305,0,0,1-22.3.972l-1.02-.684A15.974,15.974,0,0,0-21.5-3.444ZM-15.66-6.1H-12.5v.96H-20.34V-6.1h3.36v-.528h-2.76V-7.56h2.76V-8.1h-3.06v-1h3.06V-9.84h1.32V-9.1H-12.7v1H-15.66v.54h2.676v.936H-15.66Zm1,7.032Q-14.88.936-16,.864l-.024-1.08,1.236.072a1.1,1.1,0,0,0,.42-.042q.06-.042.06-.294V-.744L-18.54-.756V.96h-1.284V-4.68h6.8v4.2q0,.972-.258,1.194A2.576,2.576,0,0,1-14.664.936ZM-1.62-2.976v-.8H-3.84v.8ZM-2.256-6.3v-.6H-7.44v-.9h5.184v-.6H-7.68V-9.456H-.96V-5.34H-7.68V-6.3ZM-5.1-3.78H-7.056v.8H-5.1ZM-8.148-7.7v1.08h-1.02v2.556q.432-.156.912-.36V-4.8H-.42v2.4h-.6V-1A2.1,2.1,0,0,1-1.224.21q-.2.21-1.152.21-.276,0-.984-.048L-3.384-.7q.552.036.744.036A.854.854,0,0,0-2.274-.7Q-2.22-.744-2.22-1v-1.02H-3.84V1.2H-5.1V-2.016H-6.456V.456h-1.2V-2.4h-.6v-.864q-.216.1-.912.348v2.2a3.088,3.088,0,0,1-.2,1.464q-.2.276-1.08.276-.216,0-1-.06L-11.5-.084q.744.06.864.06.156,0,.18-.084a3.311,3.311,0,0,0,.024-.552V-2.5L-11.5-2.22l-.084-1.14q.576-.12,1.152-.288V-6.624h-1.14V-7.7h1.14V-9.72h1.26V-7.7Z" transform="translate(-21514 -18735)" fill="#707070"/>
    <path id="パス_12828" data-name="パス 12828" d="M-56.784-5.94A12.8,12.8,0,0,0-55.26-9.648l1.2.24a10.143,10.143,0,0,1-.276,1.068h1.32V-9.78h1.3v1.44h2.82v1.08h-2.82v2.04H-48.5V-4.1H-51V-.84q0,.444.09.522a1.235,1.235,0,0,0,.594.078q.5,0,.612-.282a9.329,9.329,0,0,0,.168-1.854l1.14.1q-.024.612-.048,1a7.541,7.541,0,0,1-.084.75q-.06.366-.108.564a1.114,1.114,0,0,1-.174.378.915.915,0,0,1-.24.252,1.165,1.165,0,0,1-.342.126,2.528,2.528,0,0,1-.438.066q-.21.012-.57.012a3.041,3.041,0,0,1-1.548-.24q-.312-.24-.312-1.2V-4.1h-.912a5.411,5.411,0,0,1-3.54,5.124l-.516-1.1a4.115,4.115,0,0,0,1.95-1.494,5.041,5.041,0,0,0,.87-2.526h-2.208V-5.22h3.6V-7.26h-1.692A11.836,11.836,0,0,1-55.6-5.424ZM-59.2-8.832l.768-.78a23.087,23.087,0,0,1,1.836,1.62l-.78.8A21.233,21.233,0,0,0-59.2-8.832Zm1.584,4.584q-.828-.828-2.04-1.824l.768-.816a23.3,23.3,0,0,1,2.04,1.8Zm.756,1.38A16.9,16.9,0,0,1-58.332.96L-59.388.372a18.691,18.691,0,0,0,1.44-3.612Zm12.7-3.816A5.511,5.511,0,0,0-42.792-7.86H-45.6A6.46,6.46,0,0,0-44.16-6.684ZM-45.384-4.3h2.712v-.5a11.313,11.313,0,0,1-1.512-.648,12.293,12.293,0,0,1-1.2.552Zm-.048,2.16h2.76V-3.3h-2.712v.12Q-45.384-2.784-45.432-2.136Zm7.212-7.4h1.26V-.78A2.572,2.572,0,0,1-37.212.678Q-37.464.96-38.52.96q-.528,0-1.56-.06l-.06-1.164q1,.048,1.4.048.36,0,.438-.09A1.042,1.042,0,0,0-38.22-.84Zm-2.64.636V-7.86h-.48a7.592,7.592,0,0,1-1.74,1.728,17.016,17.016,0,0,0,2.544.8V-9.06H-39.3V-1.5h-1.236V-5.136l-.288.876q-.108-.024-.318-.078l-.306-.078V.9h-1.224V-1.14h-2.9a5.4,5.4,0,0,1-.96,2.2L-47.544.3a5.821,5.821,0,0,0,.984-3.54V-4.476q-.48.144-.744.216l-.24-1.116a17.445,17.445,0,0,0,2.256-.732A9.342,9.342,0,0,1-46.776-7.38l.564-.48H-47.28V-8.9h2.544V-9.96h1.272V-8.9ZM-28.92-.78a3.108,3.108,0,0,0,2.13-1.086,3.761,3.761,0,0,0,.75-2.454,3.215,3.215,0,0,0-.888-2.31,3.4,3.4,0,0,0-2.28-1.038,34.491,34.491,0,0,1-.654,3.876A9.386,9.386,0,0,1-30.708-1.4a3.424,3.424,0,0,1-.942,1.14A1.82,1.82,0,0,1-32.7.06a2.128,2.128,0,0,1-1.692-1.08,4.438,4.438,0,0,1-.768-2.64A4.827,4.827,0,0,1-33.6-7.386,5.792,5.792,0,0,1-29.52-8.82a4.65,4.65,0,0,1,3.354,1.272A4.281,4.281,0,0,1-24.84-4.32a4.95,4.95,0,0,1-1.038,3.282,3.943,3.943,0,0,1-2.8,1.4Zm-1.536-6.828a4.163,4.163,0,0,0-2.556,1.314A3.811,3.811,0,0,0-33.96-3.66a3.525,3.525,0,0,0,.426,1.77q.426.75.834.75a.643.643,0,0,0,.4-.162,2.205,2.205,0,0,0,.462-.612A6.5,6.5,0,0,0-31.35-3.06a16.419,16.419,0,0,0,.474-1.872Q-30.636-6.108-30.456-7.608ZM-16.2-1.764a9.887,9.887,0,0,1-1.332-2.664A9.977,9.977,0,0,1-18.612-.18,7.8,7.8,0,0,0-16.2-1.764Zm.816-.96a8.929,8.929,0,0,0,1.3-2.94H-17.52v.54l.936-.36A9.663,9.663,0,0,0-15.384-2.724ZM-21.96-2.1h-1.2V-9.42h3.72V-2.1Zm0-2.16v1.08h1.38V-4.26Zm0-2.04v1.08h1.38V-6.3Zm0-.96h1.38V-8.34h-1.38ZM-23.772.432A8.813,8.813,0,0,0-22.188-1.92l.864.456.816-.408q.336.492.72,1.164A10.728,10.728,0,0,0-18.78-5.9V-9.36H-12.5v1.08H-17.52v1.56H-12.8v1.056A10.423,10.423,0,0,1-14.6-1.74,7.17,7.17,0,0,0-12.24-.084L-12.84.96a8.078,8.078,0,0,1-2.58-1.8A9.335,9.335,0,0,1-18.252.96L-18.72.024A8.34,8.34,0,0,1-19.3.9l-.456-.588-.588.264a17.259,17.259,0,0,0-.984-1.74,8.007,8.007,0,0,1-1.524,2.256ZM-.66-8.856v1.032H-5.34v.864H-1.5v.984h-9V-6.96h3.84v-.864h-4.68V-8.856h4.68v-.888h1.32v.888Zm-.36,3.6v2.52H-2.256V-4.26H-9.744v1.644H-10.98v-2.64ZM-7.944-3.7l1.224.12a4.606,4.606,0,0,1-1.074,2.9A6.013,6.013,0,0,1-10.788.984l-.54-1.044a5.311,5.311,0,0,0,2.5-1.308A3.835,3.835,0,0,0-7.944-3.7Zm2.568.072h1.3V-.732q0,.348.156.42a3.374,3.374,0,0,0,.948.072h.414A.626.626,0,0,0-2.3-.312.416.416,0,0,0-2.112-.45a1.647,1.647,0,0,0,.1-.312,2.269,2.269,0,0,0,.066-.48q.006-.234.03-.738l1.26.1Q-.7-1.14-.72-.762a2.987,2.987,0,0,1-.144.744,1.576,1.576,0,0,1-.228.492,1,1,0,0,1-.432.234,2.284,2.284,0,0,1-.636.12Q-2.472.84-3.12.84q-.552,0-.888-.012A3.472,3.472,0,0,1-4.62.756,1.617,1.617,0,0,1-5.028.624.566.566,0,0,1-5.25.384a.941.941,0,0,1-.108-.36q-.018-.192-.018-.516Z" transform="translate(-21223 -18735)" fill="#707070"/>
    <path id="パス_12772" data-name="パス 12772" d="M5184.292-14295.724v11.673" transform="translate(-26950.293 -4449.777)" fill="none" stroke="#ccc" stroke-width="1"/>
    <path id="パス_12773" data-name="パス 12773" d="M5184.292-14295.724v11.673" transform="translate(-27037.793 -4449.777)" fill="none" stroke="#ccc" stroke-width="1"/>
    <path id="パス_12774" data-name="パス 12774" d="M5184.292-14295.724v11.673" transform="translate(-26809.293 -4449.777)" fill="none" stroke="#ccc" stroke-width="1"/>
    <path id="パス_12775" data-name="パス 12775" d="M5184.292-14295.724v11.673" transform="translate(-26635.293 -4449.777)" fill="none" stroke="#ccc" stroke-width="1"/>
    <path id="パス_12776" data-name="パス 12776" d="M5184.292-14295.724v11.673" transform="translate(-26499.293 -4449.777)" fill="none" stroke="#ccc" stroke-width="1"/>
    <path id="パス_12777" data-name="パス 12777" d="M5184.292-14295.724v11.673" transform="translate(-26375.293 -4449.777)" fill="none" stroke="#ccc" stroke-width="1"/>
    <path id="パス_12778" data-name="パス 12778" d="M5184.292-14295.724v11.673" transform="translate(-26950.293 -4335.777)" fill="none" stroke="#ccc" stroke-width="1"/>
    <path id="パス_12779" data-name="パス 12779" d="M5184.292-14295.724v11.673" transform="translate(-27037.793 -4335.777)" fill="none" stroke="#ccc" stroke-width="1"/>
    <path id="パス_12780" data-name="パス 12780" d="M5184.292-14295.724v11.673" transform="translate(-26809.293 -4335.777)" fill="none" stroke="#ccc" stroke-width="1"/>
    <path id="パス_12781" data-name="パス 12781" d="M5184.292-14295.724v11.673" transform="translate(-26635.293 -4335.777)" fill="none" stroke="#ccc" stroke-width="1"/>
    <path id="パス_12782" data-name="パス 12782" d="M5184.292-14295.724v11.673" transform="translate(-26499.293 -4335.777)" fill="none" stroke="#ccc" stroke-width="1"/>
    <path id="パス_12783" data-name="パス 12783" d="M5184.292-14295.724v11.673" transform="translate(-26375.293 -4335.777)" fill="none" stroke="#ccc" stroke-width="1"/>
    <path id="パス_12784" data-name="パス 12784" d="M5184.292-14295.724v11.673" transform="translate(-26950.293 -4278.777)" fill="none" stroke="#ccc" stroke-width="1"/>
    <path id="パス_12785" data-name="パス 12785" d="M5184.292-14295.724v11.673" transform="translate(-27037.793 -4278.777)" fill="none" stroke="#ccc" stroke-width="1"/>
    <path id="パス_12786" data-name="パス 12786" d="M5184.292-14295.724v11.673" transform="translate(-26809.293 -4278.777)" fill="none" stroke="#ccc" stroke-width="1"/>
    <path id="パス_12787" data-name="パス 12787" d="M5184.292-14295.724v11.673" transform="translate(-26635.293 -4278.777)" fill="none" stroke="#ccc" stroke-width="1"/>
    <path id="パス_12788" data-name="パス 12788" d="M5184.292-14295.724v11.673" transform="translate(-26499.293 -4278.777)" fill="none" stroke="#ccc" stroke-width="1"/>
    <path id="パス_12789" data-name="パス 12789" d="M5184.292-14295.724v11.673" transform="translate(-26375.293 -4278.777)" fill="none" stroke="#ccc" stroke-width="1"/>
    <path id="パス_12790" data-name="パス 12790" d="M5195.1-14521.537h70.716" transform="translate(-26799 -4153)" fill="none" stroke="#ffeb00" stroke-width="1"/>
    <path id="パス_12791" data-name="パス 12791" d="M5195.1-14521.537h59.052" transform="translate(-26608 -4162)" fill="none" stroke="#ffeb00" stroke-width="1"/>
    <path id="パス_12792" data-name="パス 12792" d="M5195.1-14521.537h95.236" transform="translate(-26626 -4144)" fill="none" stroke="#ffeb00" stroke-width="1"/>
    <path id="パス_12822" data-name="パス 12822" d="M.4-9.538l-3.211.98L-.788-5.889-2.227-4.826-4.145-7.578-6.064-4.826l-1.46-1.063L-5.5-8.558l-3.211-.98.563-1.71,3.17,1.105L-5.042-13.5h1.793l-.063,3.357,3.17-1.105Z" transform="translate(-21661 -18620)" fill="red"/>
    <path id="パス_12823" data-name="パス 12823" d="M.4-9.538l-3.211.98L-.788-5.889-2.227-4.826-4.145-7.578-6.064-4.826l-1.46-1.063L-5.5-8.558l-3.211-.98.563-1.71,3.17,1.105L-5.042-13.5h1.793l-.063,3.357,3.17-1.105Z" transform="translate(-21661 -18563)" fill="red"/>
  </g>
</svg>
