<svg xmlns="http://www.w3.org/2000/svg" width="1000" height="562.5" viewBox="0 0 1000 562.5">
  <g id="グループ_3173" data-name="グループ 3173" transform="translate(24266 4104.063)">
    <rect id="長方形_5043" data-name="長方形 5043" width="1000" height="562.5" transform="translate(-24266 -4104.063)" fill="#e7e9ee"/>
    <path id="パス_12811" data-name="パス 12811" d="M7.6,0V-73H24.2L50.1-28.2h.2V-73H66.9V0H50.3L24.4-44.8h-.2V0ZM84.7-45.7Q91.8-53,104.3-53t19.55,7.25Q130.9-38.5,130.9-26T123.85-6.25Q116.8,1,104.3,1T84.7-6.25Q77.6-13.5,77.6-26T84.7-45.7Zm19.6,35q10.8,0,10.8-15.3T104.3-41.3Q93.4-41.3,93.4-26T104.3-10.7ZM174.2,0V-73h18.7V0Zm34.4-52h14.5l.3,7h.2q5.8-8,13.7-8a15.011,15.011,0,0,1,7.8,1.8,15.78,15.78,0,0,1,5.4,6.2h.2q7-8,15.7-8,8.5,0,12.35,4.7t3.85,16V0H267.2V-29.3q0-7-1.35-9.3t-4.95-2.3q-3.1,0-5.3,3.25a14.6,14.6,0,0,0-2.2,8.35V0H238V-29.3q0-7-1.3-9.3t-4.9-2.3q-3.1,0-5.3,3.25a14.6,14.6,0,0,0-2.2,8.35V0H208.6Zm109.2-1q12.5,0,17.85,4.75T341-32.7V-14a64.8,64.8,0,0,0,1.5,14H327.3a73.6,73.6,0,0,1-1-7.3h-.2a19.056,19.056,0,0,1-7.25,6.05A21.275,21.275,0,0,1,309.3,1q-7.5,0-12-4.2t-4.5-11.5q0-8.6,7.35-13.8t21.15-5.2H325v-.2q0-4.4-1.75-6.1t-6.15-1.7a44.228,44.228,0,0,0-19.5,4.5l-2.1-11.3A54.184,54.184,0,0,1,317.8-53ZM307.4-16.2a5.388,5.388,0,0,0,1.65,4.2,6.364,6.364,0,0,0,4.45,1.5,11.471,11.471,0,0,0,8.25-3.1A10.443,10.443,0,0,0,325-21.5v-2.4h-3.7q-6.8,0-10.35,2.1T307.4-16.2ZM372.2-53q9.5,0,15.8,8.2h.2l.3-7.2h14.9V-5.7q0,14.3-7.4,21.5T374.2,23a51.084,51.084,0,0,1-17.5-3l2.7-11.6a36.566,36.566,0,0,0,14.1,2.9q7.6,0,10.9-3.75T387.7-5.5V-8.3h-.1A18.512,18.512,0,0,1,372.2-1a18.318,18.318,0,0,1-14.65-7q-5.85-7-5.85-19,0-12.4,5.55-19.2T372.2-53ZM367-27q0,6.6,2.75,10.3A8.608,8.608,0,0,0,377-13a9.251,9.251,0,0,0,7.55-3.5q2.85-3.5,2.85-10v-1q0-6.4-2.85-9.95A9.2,9.2,0,0,0,377-41a8.657,8.657,0,0,0-7.35,3.55Q367-33.9,367-27Zm61.9-3.6h20.6q-.1-11.5-10.2-11.5a9.409,9.409,0,0,0-7.3,2.95Q429.3-36.2,428.9-30.6Zm.1,9.9a11.421,11.421,0,0,0,4.15,7.65,13.923,13.923,0,0,0,8.95,2.75,31.73,31.73,0,0,0,14.5-3.6L460.1-3a47.019,47.019,0,0,1-19.5,4q-12.4,0-19.95-7.3T413.1-26q0-12.5,7-19.75T438.9-53q12.1,0,18.8,6.95t6.7,19.85a33.742,33.742,0,0,1-.4,5.5Z" transform="translate(-24000 -3785)" fill="#233060"/>
  </g>
</svg>
