<svg xmlns="http://www.w3.org/2000/svg" width="291.213" height="286.616" viewBox="0 0 291.213 286.616">
  <g id="グループ_2319" data-name="グループ 2319" transform="translate(-263.041 -2019.121)">
    <g id="グループ_157" data-name="グループ 157" transform="translate(220.844 2146.671) rotate(-30)">
      <path id="パス_27" data-name="パス 27" d="M234.582,71.534c-54.83,3.959-100.519-31.244-109.656-38.648a25.589,25.589,0,0,0-16.376-5.905l0-.029c-9.554-.32-15.066,2.635-18.977,6.041-4.42,3.838-6.638,8.525-9.113,13.227-3.018,5.755-4.052,7.06-5.711,11.412s-3.979,9.578-4.377,14.081c2.877-1.931,7.618-6.929,7.618-6.929S73.745,76.4,74.128,79.938c5.551-4.624,9.18-11.956,9.18-11.956s.044,3.591.529,7.958C91.131,68.3,99.069,46.031,99.069,46.031s1.242,4.93,1.465,7.06c1.669-.718,3.29-10.859,3.29-10.859s.912-1.679,4.338-2.824c-1.009,8.414-2.033,20.554-.679,26.231,2.6-3.513,4.43-6.575,4.43-6.575s-.539,8.186,1.941,15.047c2.1-2.863,4.236-15.057,4.236-15.057a67.663,67.663,0,0,0,3.1,9.913c1.907-4.076,3.343-10.816,4.047-13.353a64.217,64.217,0,0,0,1.334-12.558c13.8,11.228,58.426,40.181,109.112,30.627,3.27-1.014,3.867-2.625-1.1-2.15" transform="translate(-70.368 103.736)" fill="#e7e9ee"/>
      <path id="パス_28" data-name="パス 28" d="M248.182,200.128c-3.688-6.759-5.832-14.217-8.351-20.1-.762-1.572-1.436-4.8-2.722-6.643-4.7-1.543-15.915,4.76-12.786,16.91,0,0-14.057-3.736-8.652-19.1,2.654-7.56,9.171-9.617,16.056-9.447-4.629-7.628-10.675-10.539-15.794-14.775-2.936-8.622-11.315-16.6-9.734-28.754.674-6.386,1.771-13.572,3.494-17.41,3.552-7.9,24.6-49.682,17.342-77.942,0,0-6.06-24.533-19.069-22.776-4.513.611.311,16.765-16.027,43.99-9.821,13.717-9.006,21.7-10.985,25.872s-6.7,8.5-6.7,8.5a43.826,43.826,0,0,1,3.891,15.168c-14.925-17.274-28.162-23.572-28.162-23.572C130.743,40.023,102.62,24.816,92.406,23.317s-2.586,6.1-.636,7.54c30.773,15.047,62.856,49.11,63.618,79.616,0,0,.771,5.347-2.756,5.886-5.614,1.7-25.634-5.221-28.754.951-5.76,9.836,20.9,15.057,31.637,21.816,13.179,8.3,20.709,8.87,24.674,34.611,0,0,4.134,1.1,11.519,10.9,6.255,8.312,23.233,20.506,38.284,23.674s28.4,18.448,30.365,16.5-8.477-17.91-12.174-24.679" transform="translate(-5.502 0)" fill="#e7e9ee"/>
      <path id="パス_29" data-name="パス 29" d="M77.39,78.6C88.914,64.15,116.9,51.326,125.335,49.327a157.709,157.709,0,0,1,50.488-3.251s-8.2-3.858-9.971-15.241,2.509-11.092-1.611-16.983c-40.22-.034-67.883,26.105-79.106,47.683-2.2,4.221-12.562,10.51-12.718,13.63-.136,2.712,2.853,6.085,4.974,3.431" transform="translate(-62.494 53.363)" fill="#e7e9ee"/>
    </g>
    <g id="グループ_158" data-name="グループ 158" transform="translate(477.769 2119.347) rotate(-30)">
      <path id="パス_27-2" data-name="パス 27" d="M104.378,36.166c-11.356.82-20.818-6.471-22.711-8a5.3,5.3,0,0,0-3.392-1.223v-.006a5.285,5.285,0,0,0-3.93,1.251,8.591,8.591,0,0,0-1.887,2.739,18.935,18.935,0,0,0-1.183,2.364,12.1,12.1,0,0,0-.906,2.916,13.551,13.551,0,0,0,1.578-1.435,13.259,13.259,0,0,0-.8,3.138,8.751,8.751,0,0,0,1.9-2.476s.009.744.11,1.648c1.51-1.582,3.155-6.194,3.155-6.194s.257,1.021.3,1.462c.346-.149.681-2.249.681-2.249a1.571,1.571,0,0,1,.9-.585,20.7,20.7,0,0,0-.141,5.433c.538-.728.918-1.362.918-1.362a8.882,8.882,0,0,0,.4,3.116,13.249,13.249,0,0,0,.877-3.118,14.014,14.014,0,0,0,.641,2.053,18.9,18.9,0,0,0,.838-2.766,13.3,13.3,0,0,0,.276-2.6c2.858,2.325,12.1,8.322,22.6,6.343.677-.21.8-.544-.227-.445" transform="translate(-70.368 0.133)" fill="#e7e9ee"/>
      <path id="パス_28-2" data-name="パス 28" d="M120.546,41.448a43.863,43.863,0,0,1-1.73-4.163,9.266,9.266,0,0,0-.564-1.376c-.974-.32-3.3.986-2.648,3.5a2.808,2.808,0,0,1-1.792-3.955,3.062,3.062,0,0,1,3.325-1.957c-.959-1.58-2.211-2.183-3.271-3.06-.608-1.786-2.344-3.439-2.016-5.955a14.165,14.165,0,0,1,.724-3.606c.736-1.637,5.1-10.29,3.592-16.142,0,0-1.255-5.081-3.949-4.717-.935.127.064,3.472-3.319,9.111-2.034,2.841-1.865,4.494-2.275,5.358a7.188,7.188,0,0,1-1.387,1.76,9.077,9.077,0,0,1,.806,3.141,20.237,20.237,0,0,0-5.833-4.882C96.223,8.289,90.4,5.139,88.283,4.829s-.536,1.263-.132,1.562c6.373,3.116,13.018,10.171,13.176,16.489,0,0,.16,1.107-.571,1.219-1.163.352-5.309-1.081-5.955.2-1.193,2.037,4.329,3.118,6.552,4.518,2.729,1.719,4.289,1.837,5.11,7.168,0,0,.856.227,2.386,2.257a15.8,15.8,0,0,0,7.929,4.9c3.115.655,5.882,3.821,6.289,3.417s-1.756-3.709-2.521-5.111" transform="translate(-70.285 0)" fill="#e7e9ee"/>
      <path id="パス_29-2" data-name="パス 29" d="M73.443,27.261c2.387-2.992,8.182-5.648,9.93-6.062a32.663,32.663,0,0,1,10.456-.673,4.188,4.188,0,0,1-2.065-3.157c-.369-2.356.52-2.3-.334-3.517a18.706,18.706,0,0,0-16.384,9.876c-.455.874-2.6,2.177-2.634,2.823-.028.562.591,1.26,1.03.71" transform="translate(-70.358 0.069)" fill="#e7e9ee"/>
    </g>
  </g>
</svg>
