<svg xmlns="http://www.w3.org/2000/svg" width="159.855" height="161.058" viewBox="0 0 159.855 161.058">
  <g id="グループ_149" data-name="グループ 149" transform="matrix(0.53, -0.848, 0.848, 0.53, 11960.354, 7130.733)">
    <path id="パス_34" data-name="パス 34" d="M67.1,6.438a2.284,2.284,0,0,0-1.541-.308,1.467,1.467,0,0,0-1.024.814q-.619,1.181.843,2.615a6.836,6.836,0,0,1,1.956,2.692,3.112,3.112,0,0,1-.29,2.439,2.985,2.985,0,0,1-2.032,1.691,4.43,4.43,0,0,1-2.978-.6,6.927,6.927,0,0,1-2.756-2.526l1.1-1.06a5.532,5.532,0,0,0,2.329,2.3,2.392,2.392,0,0,0,1.648.318,1.708,1.708,0,0,0,1.131-.949A1.871,1.871,0,0,0,65.7,12.5a3.815,3.815,0,0,0-1.06-1.513,6.73,6.73,0,0,1-1.82-2.565A2.822,2.822,0,0,1,63,6.141a2.737,2.737,0,0,1,1.915-1.5,4.212,4.212,0,0,1,2.844.542,8.442,8.442,0,0,1,2.724,2.24l-.99,1.024A6.918,6.918,0,0,0,67.1,6.438" transform="translate(-347.786 -13885.58)" fill="#e5021e"/>
    <path id="パス_35" data-name="パス 35" d="M75.813,18.1a6.245,6.245,0,0,1-4.1,2.645,6.153,6.153,0,0,1-4.524-1.582,18.134,18.134,0,0,1-2.244-2.084l7.175-9.067a18.079,18.079,0,0,1,2.542,1.7,6.273,6.273,0,0,1,2.6,4A5.742,5.742,0,0,1,75.813,18.1m-1.323-1.045a4.458,4.458,0,0,0,1.164-3.285,4.473,4.473,0,0,0-1.888-2.919,6.343,6.343,0,0,0-1.077-.709l-5.541,7a6.819,6.819,0,0,0,.939.887,4.361,4.361,0,0,0,3.335,1.154,5.1,5.1,0,0,0,3.068-2.13" transform="translate(-343.381 -13882.906)" fill="#d7a601"/>
    <path id="パス_36" data-name="パス 36" d="M79.108,23.011l-2.357-2.843,1.061-.882,3.438,4.14L76.467,27.4a8.749,8.749,0,0,1-3.193-2.462,6.473,6.473,0,0,1-1.7-4.594A5.773,5.773,0,0,1,73.855,16.2,5.877,5.877,0,0,1,78.3,14.678a6.175,6.175,0,0,1,4.142,2.437,6.814,6.814,0,0,1,1.575,3.431l-1.348.388a5.589,5.589,0,0,0-1.212-2.793,4.413,4.413,0,0,0-3.1-1.769,4.634,4.634,0,0,0-3.351,1.216,4.492,4.492,0,0,0-1.778,3.125,4.684,4.684,0,0,0,1.239,3.44A5.2,5.2,0,0,0,76.108,25.5Z" transform="translate(-338.231 -13877.744)" fill="#1b963a"/>
    <path id="パス_37" data-name="パス 37" d="M82.882,24.773q-.781-1.405-1.692-.9a.919.919,0,0,0-.5.709,3.094,3.094,0,0,0,.267,1.351,4.663,4.663,0,0,1,.38,2.544A2.323,2.323,0,0,1,80.1,30a2.092,2.092,0,0,1-1.952.126,3.84,3.84,0,0,1-1.716-1.758,6.471,6.471,0,0,1-.862-3.2l1.28-.345a5.436,5.436,0,0,0,.706,2.917q.763,1.373,1.748.827a1.032,1.032,0,0,0,.562-.727,2.823,2.823,0,0,0-.245-1.344,4.934,4.934,0,0,1-.372-2.532,2.164,2.164,0,0,1,1.164-1.492,2.007,2.007,0,0,1,1.884-.1,3.857,3.857,0,0,1,1.712,1.767,6.446,6.446,0,0,1,.846,2.839l-1.28.343a5.309,5.309,0,0,0-.69-2.556" transform="translate(-335.12 -13871.879)" fill="#c50f2a"/>
    <path id="パス_38" data-name="パス 38" d="M91.236,33.5l-4.67,1.04,1.184,5.33,4.672-1.04.382,1.724L81.363,43.1l-.386-1.723L86.4,40.171l-1.184-5.328-5.426,1.205-.382-1.724L90.854,31.78Z" transform="translate(-332.132 -13864.421)" fill="#e83417"/>
    <path id="パス_39" data-name="パス 39" d="M91.147,41.924a5.587,5.587,0,0,1,1.65,4.2,5.576,5.576,0,0,1-1.628,4.212,6.888,6.888,0,0,1-8.77.023,5.561,5.561,0,0,1-1.648-4.2,5.552,5.552,0,0,1,1.627-4.211,6.9,6.9,0,0,1,8.77-.025m-7.73,1.339a4.015,4.015,0,0,0,.014,5.781,5.682,5.682,0,0,0,6.7-.018,4.015,4.015,0,0,0-.014-5.781,5.682,5.682,0,0,0-6.7.018" transform="translate(-331.088 -13857.743)" fill="#00a6d8"/>
    <path id="パス_40" data-name="パス 40" d="M92.162,52.9l-6.908-1.484q-3.267-.7-3.822,1.89T84.139,56.6l6.91,1.486-.366,1.694-6.828-1.467a5.215,5.215,0,0,1-3.339-1.886,4.216,4.216,0,0,1-.521-3.461,4.226,4.226,0,0,1,1.9-2.944,5.23,5.23,0,0,1,3.82-.345l6.83,1.468Z" transform="translate(-331.788 -13850.648)" fill="#fabd00"/>
    <path id="パス_41" data-name="パス 41" d="M87.816,63.56A2.3,2.3,0,0,0,88,62a1.479,1.479,0,0,0-.9-.951q-1.229-.517-2.537,1.058a6.81,6.81,0,0,1-2.517,2.172,3.094,3.094,0,0,1-2.455-.084,2.993,2.993,0,0,1-1.856-1.886,4.432,4.432,0,0,1,.345-3.015,6.962,6.962,0,0,1,2.29-2.958l1.147,1a5.525,5.525,0,0,0-2.1,2.514,2.377,2.377,0,0,0-.176,1.666,1.687,1.687,0,0,0,1.038,1.049,1.861,1.861,0,0,0,1.388.1A3.852,3.852,0,0,0,83.08,61.48a6.744,6.744,0,0,1,2.405-2.028,2.824,2.824,0,0,1,2.284,0,2.732,2.732,0,0,1,1.653,1.785,4.2,4.2,0,0,1-.3,2.876,8.331,8.331,0,0,1-2,2.9l-1.1-.9a6.931,6.931,0,0,0,1.8-2.553" transform="translate(-333.54 -13845.324)" fill="#970b32"/>
    <path id="パス_42" data-name="パス 42" d="M85.258,69.344l-2.8-1.817-2.706,4.18-1.161-.75,2.708-4.178-3.451-2.236-2.882,4.45-1.214-.786,3.842-5.931,9.84,6.371L83.588,74.58l-1.212-.786Z" transform="translate(-336.535 -13840.702)" fill="#ed6906"/>
    <path id="パス_43" data-name="パス 43" d="M74.72,81.332a4.09,4.09,0,0,0,1.593-2.964,4.648,4.648,0,0,0-1.227-3.31,4.577,4.577,0,0,0-3.06-1.783,4.106,4.106,0,0,0-3.175,1.031,5.527,5.527,0,0,0-1.716,2.583l-1.276-.651a6.8,6.8,0,0,1,2.187-3.145A5.839,5.839,0,0,1,72.4,71.579a6.77,6.77,0,0,1,5.651,6.727,5.812,5.812,0,0,1-2.283,4.032,6.79,6.79,0,0,1-3.483,1.591l-.412-1.371a5.537,5.537,0,0,0,2.846-1.227" transform="translate(-342.67 -13833.483)" fill="#dc087b"/>
    <path id="パス_44" data-name="パス 44" d="M70.285,86.337l-4.974-8.958-4.7,2.612L59.892,78.7l6.316-3.509L71.9,85.439Z" transform="translate(-347.311 -13830.658)" fill="#f2a10a"/>
    <path id="パス_45" data-name="パス 45" d="M62.205,88.454l-1.084-3.161-4.707,1.62-.45-1.307,4.709-1.618L59.336,80.1l-5.011,1.721-.471-1.365,6.684-2.3,3.808,11.088-6.684,2.3-.469-1.369Z" transform="translate(-352.008 -13828.35)" fill="#d49208"/>
    <path id="パス_46" data-name="パス 46" d="M56.219,80.037,53.728,92.229l-1.909.268-5.776-11.02,1.876-.267,1.438,2.944,4.483-.636.565-3.225Zm-2.613,4.91-3.627.512,2.585,5.314.032-.007Z" transform="translate(-358.083 -13826.888)" fill="#417a36"/>
    <path id="パス_47" data-name="パス 47" d="M48.084,81.151l-.772,11.7-1.73-.114-4.9-9.095-.032,0-.576,8.732-1.73-.112.77-11.7,1.732.114,4.907,9.1h.03l.574-8.734Z" transform="translate(-364.073 -13826.48)" fill="#0075ba"/>
    <rect id="長方形_39" data-name="長方形 39" width="11.725" height="1.928" transform="matrix(0.227, -0.974, 0.974, 0.227, -334.639, -13735.992)" fill="#28a73a"/>
    <path id="パス_48" data-name="パス 48" d="M37.533,80.464,33.062,91.3l-1.607-.66L29.718,80.453l-.028-.012-3.339,8.091-1.605-.661,4.473-10.837,1.605.66,1.735,10.187.032.014L35.929,79.8Z" transform="translate(-374.647 -13829.225)" fill="#014c88"/>
    <path id="パス_49" data-name="パス 49" d="M21.266,78.02l3.047,2.087-.779,1.14L19.1,78.207l3.511-5.127a8.713,8.713,0,0,1,3.746,1.5,6.442,6.442,0,0,1,2.889,3.954,5.754,5.754,0,0,1-1.058,4.6,5.87,5.87,0,0,1-3.854,2.686A6.175,6.175,0,0,1,19.678,84.6a6.808,6.808,0,0,1-2.453-2.869l1.189-.743a5.582,5.582,0,0,0,1.931,2.354,4.413,4.413,0,0,0,3.463.855A4.634,4.634,0,0,0,26.7,82.111a4.5,4.5,0,0,0,.855-3.493,4.709,4.709,0,0,0-2.132-2.969,5.262,5.262,0,0,0-1.95-.85Z" transform="translate(-380.496 -13832.299)" fill="#003064"/>
    <path id="パス_50" data-name="パス 50" d="M12.5,75.5l2.631-2.059L12.06,69.523l1.088-.852,3.068,3.922,3.239-2.533-3.269-4.174,1.138-.892,4.355,5.564-9.23,7.227L8.092,72.222l1.14-.892Z" transform="translate(-387.599 -13838.588)" fill="#233060"/>
    <path id="パス_51" data-name="パス 51" d="M7.869,70.453,3.864,62.761l1.31-.683,1.6,3.063,9.088-4.732.816,1.568-9.09,4.732L9.179,69.77Z" transform="translate(-390.887 -13842.154)" fill="#233060"/>
    <path id="パス_52" data-name="パス 52" d="M3.053,61.726l4.6-1.326L6.137,55.154l-4.6,1.324-.492-1.7,11.266-3.25.491,1.7L7.467,54.77,8.98,60.016l5.339-1.54.489,1.7L3.543,63.424Z" transform="translate(-393.077 -13849.058)" fill="#233060"/>
    <rect id="長方形_40" data-name="長方形 40" width="11.724" height="1.927" transform="matrix(0.993, -0.119, 0.119, 0.993, -393.396, -13803.258)" fill="#233060"/>
    <path id="パス_53" data-name="パス 53" d="M1.458,42.871a4.1,4.1,0,0,0,1.124,3.175,4.654,4.654,0,0,0,3.275,1.314,4.59,4.59,0,0,0,3.38-1.067A4.125,4.125,0,0,0,10.6,43.248a5.514,5.514,0,0,0-.761-3.006l1.34-.507a6.791,6.791,0,0,1,.859,3.732,5.823,5.823,0,0,1-1.8,4.242A5.945,5.945,0,0,1,5.78,49.157a5.992,5.992,0,0,1-4.322-1.785,5.81,5.81,0,0,1-1.451-4.4A6.774,6.774,0,0,1,1.17,39.324l1.292.613a5.538,5.538,0,0,0-1,2.933" transform="translate(-393.893 -13858.554)" fill="#233060"/>
    <path id="パス_54" data-name="パス 54" d="M11.564,41.895,1.207,35l.468-1.868,12.387-1.2-.46,1.838-3.268.226-1.1,4.391,2.777,1.739ZM8,37.624l.889-3.552L3,34.465l-.009.034Z" transform="translate(-392.954 -13864.308)" fill="#233060"/>
    <path id="パス_55" data-name="パス 55" d="M4.076,26.359l9.294,4.309,2.265-4.88,1.339.62-3.038,6.556L3.3,28.035Z" transform="translate(-391.328 -13869.081)" fill="#233060"/>
    <path id="パス_56" data-name="パス 56" d="M18.312,27.064l-8.7-7.858,1.163-1.287,10.178,1.788.021-.023-6.5-5.865,1.163-1.289,8.7,7.858L23.18,21.677,13,19.885l-.023.025,6.5,5.867Z" transform="translate(-386.417 -13879.392)" fill="#233060"/>
    <path id="パス_57" data-name="パス 57" d="M16.944,12.353a5.56,5.56,0,0,1,2.476-3.776A5.564,5.564,0,0,1,23.8,7.471a6.06,6.06,0,0,1,3.824,2.66,6.06,6.06,0,0,1,1.262,4.483,5.563,5.563,0,0,1-2.476,3.774,5.57,5.57,0,0,1-4.38,1.106,6.049,6.049,0,0,1-3.822-2.658,6.046,6.046,0,0,1-1.262-4.483M22.5,17.887a3.682,3.682,0,0,0,3.068-.676,3.685,3.685,0,0,0,1.641-2.677,4.859,4.859,0,0,0-1.052-3.362,4.866,4.866,0,0,0-2.83-2.094,3.68,3.68,0,0,0-3.068.677,3.684,3.684,0,0,0-1.643,2.676,4.854,4.854,0,0,0,1.054,3.362,4.848,4.848,0,0,0,2.83,2.094" transform="translate(-380.759 -13883.398)" fill="#233060"/>
    <path id="パス_58" data-name="パス 58" d="M28.606,11.1l1.936,4.414-1.618.708L24.247,5.559a20.178,20.178,0,0,1,2.844-1.511,5.914,5.914,0,0,1,3.532-.622,2.763,2.763,0,0,1,2.023,1.691,3.492,3.492,0,0,1,.265,2.165,3.151,3.151,0,0,1-1.081,1.772l.012.028a3.847,3.847,0,0,1,1.945,1.234l2.636,2.615-1.676.734L32.14,11.039a2.22,2.22,0,0,0-1.131-.722,3.269,3.269,0,0,0-1.522.395Zm-.555-1.264.884-.388q3.117-1.365,2.187-3.486A1.65,1.65,0,0,0,29.863,4.91a4.321,4.321,0,0,0-2.35.5,6.663,6.663,0,0,0-1.132.619Z" transform="translate(-375.034 -13886.532)" fill="#233060"/>
    <path id="パス_59" data-name="パス 59" d="M34.294,13.98,31.956,2.49l1.668-.34,5.17,6,.032-.007L41.239.6,42.973.249,45.31,11.736l-1.73.354-1.732-8.5-.032.007-1.9,5.959-1.573.32-4.08-4.743-.03.007,1.73,8.5Z" transform="translate(-369.039 -13888.943)" fill="#233060"/>
    <path id="パス_60" data-name="パス 60" d="M41.645,11.634,46.066,0l1.927.041,3.927,11.81-1.893-.041-.946-3.134-4.528-.1-1.077,3.093Zm3.371-4.427,3.66.076-1.7-5.657h-.032Z" transform="translate(-361.503 -13889.138)" fill="#233060"/>
    <path id="パス_61" data-name="パス 61" d="M53.928.964,51.766,10.978l5.259,1.136-.311,1.444-7.065-1.524L52.122.573Z" transform="translate(-355.278 -13888.691)" fill="#233060"/>
  </g>
</svg>
