<svg xmlns="http://www.w3.org/2000/svg" xmlns:xlink="http://www.w3.org/1999/xlink" width="264" height="34" viewBox="0 0 264 34">
  <defs>
    <clipPath id="clip-path">
      <rect id="長方形_31" data-name="長方形 31" width="90.153" height="34" fill="#d3d5df"/>
    </clipPath>
  </defs>
  <g id="グループ_2300" data-name="グループ 2300" transform="translate(-30 -30)">
    <g id="グループ_94" data-name="グループ 94" transform="translate(30 30)">
      <path id="パス_3" data-name="パス 3" d="M0,5.807v8.718H5.435V13.013H1.593V10.956h2.6V9.376h-2.6V7.319H5.435V5.807Z" transform="translate(0 -1.549)" fill="#d3d5df"/>
      <path id="パス_4" data-name="パス 4" d="M15.635,7.319H13.375v7.205h-1.58V7.319l-2.261.013V5.806h6.1Z" transform="translate(-2.543 -1.549)" fill="#d3d5df"/>
      <path id="パス_5" data-name="パス 5" d="M25.585,14.525H24V10.956h-2.26v3.569h-1.58V5.806h1.58v3.57H24V5.806h1.581Z" transform="translate(-5.378 -1.549)" fill="#d3d5df"/>
      <rect id="長方形_29" data-name="長方形 29" width="1.58" height="8.718" transform="translate(22.178 4.258)" fill="#d3d5df"/>
      <path id="パス_6" data-name="パス 6" d="M39.232,14.525H36.155l-1.09-1.09V6.9l1.09-1.09h3.078L40.32,6.9v.422H36.644v5.694H40.32v.422Z" transform="translate(-9.351 -1.549)" fill="#d3d5df"/>
      <path id="パス_7" data-name="パス 7" d="M48.965,14.525l-.615-2.139H46.173l-.546,2.139h-1.58L46.54,5.807h1.444l2.506,8.718Zm-1.7-6.185-.681,2.615h1.349Z" transform="translate(-11.747 -1.549)" fill="#d3d5df"/>
      <path id="パス_8" data-name="パス 8" d="M55.043,14.525V5.806h1.58v7.207h3.5v1.511Z" transform="translate(-14.68 -1.549)" fill="#d3d5df"/>
      <path id="パス_9" data-name="パス 9" d="M3.877,21.426V26.37L1.385,21.426H.01v8.718H1.576L1.562,25.2l2.493,4.944H5.431V21.426Z" transform="translate(-0.003 -5.714)" fill="#d3d5df"/>
      <path id="パス_10" data-name="パス 10" d="M14.986,30.144H11.744l-1.09-1.09V22.516l1.09-1.09h3.241l1.09,1.09v6.538Zm-.49-7.205H12.234v5.695H14.5Z" transform="translate(-2.841 -5.714)" fill="#d3d5df"/>
      <path id="パス_11" data-name="パス 11" d="M25.236,30.144,23.929,26.78h-1.05v3.364H21.3V21.426H25.63l1.09,1.09V25.69l-1.09,1.09,1.363,3.364Zm-.1-7.205H22.879V25.2H25.14Z" transform="translate(-5.68 -5.714)" fill="#d3d5df"/>
      <path id="パス_12" data-name="パス 12" d="M38.359,30.144H36.833l-.013-4.563L35.566,28.7h-.79L33.523,25.58v4.563H31.985V21.425h1.443l1.743,4.318,1.743-4.318h1.445Z" transform="translate(-8.53 -5.714)" fill="#d3d5df"/>
      <path id="パス_13" data-name="パス 13" d="M48.38,30.144l-.613-2.138H45.587l-.545,2.138h-1.58l2.493-8.718H47.4l2.506,8.718Zm-1.7-6.185L46,26.575h1.348Z" transform="translate(-11.591 -5.714)" fill="#d3d5df"/>
      <path id="パス_14" data-name="パス 14" d="M55.035,30.144V21.425h1.58v7.207h3.5v1.511Z" transform="translate(-14.678 -5.714)" fill="#d3d5df"/>
      <path id="パス_15" data-name="パス 15" d="M2.3,37.064V38H.951v-.937H.462v2.477H.951V38.5H2.3v1.038h.487V37.064Z" transform="translate(-0.123 -9.885)" fill="#d3d5df"/>
      <g id="グループ_93" data-name="グループ 93" transform="translate(0 0)">
        <g id="グループ_92" data-name="グループ 92" clip-path="url(#clip-path)">
          <path id="パス_16" data-name="パス 16" d="M6.733,39.592a1.332,1.332,0,1,1,.006-2.638,1.369,1.369,0,0,1,1.524,1.3,1.416,1.416,0,0,1-1.53,1.342m.01-2.132c-.5,0-1.023.251-1.023.813s.536.814,1.029.814a.925.925,0,0,0,1.013-.832c0-.554-.536-.795-1.019-.795" transform="translate(-1.392 -9.855)" fill="#d3d5df"/>
          <path id="パス_17" data-name="パス 17" d="M13.114,39.23a1.342,1.342,0,0,1-1.037.391c-.689,0-1.167-.319-1.167-1.051V37.065H11.4V38.57c0,.507.325.549.747.549a1.034,1.034,0,0,0,.477-.109c.138-.076.186-.172.186-.439V37.065H13.3V38.57a.935.935,0,0,1-.186.66" transform="translate(-2.91 -9.885)" fill="#d3d5df"/>
          <path id="パス_18" data-name="パス 18" d="M16.943,39.6a1.981,1.981,0,0,1-1.391-.44l.23-.445a2.037,2.037,0,0,0,1.324.382c.215,0,.621-.065.621-.353,0-.2-.215-.238-.373-.248-.249-.014-.492-.01-.741-.018-.454-.021-.9-.245-.9-.762,0-.62.664-.759,1.162-.759a2.344,2.344,0,0,1,1.2.325l-.224.439a2.234,2.234,0,0,0-1.09-.272c-.177,0-.545.048-.545.287,0,.2.292.235.44.239.216.01.43,0,.645.015.5.018.936.215.936.779,0,.689-.741.832-1.285.832" transform="translate(-4.148 -9.855)" fill="#d3d5df"/>
          <path id="パス_19" data-name="パス 19" d="M20.674,39.541V37.064h2.189v.5h-1.7v.454h.9v.493h-.9v.534h1.758v.5Z" transform="translate(-5.514 -9.884)" fill="#d3d5df"/>
          <path id="パス_20" data-name="パス 20" d="M28.693,39.591A1.366,1.366,0,0,1,27.168,38.3a1.381,1.381,0,0,1,1.478-1.348,1.908,1.908,0,0,1,1.266.479l-.292.433a1.419,1.419,0,0,0-.984-.406.832.832,0,1,0,.023,1.635,1.674,1.674,0,0,0,1.071-.348l.225.458a1.967,1.967,0,0,1-1.263.386" transform="translate(-7.246 -9.855)" fill="#d3d5df"/>
          <path id="パス_21" data-name="パス 21" d="M32.372,39.541V37.064h.511v1.97h1.41v.507Z" transform="translate(-8.633 -9.884)" fill="#d3d5df"/>
          <path id="パス_22" data-name="パス 22" d="M36.219,39.541V37.064h2.188v.5h-1.7v.454h.9v.493h-.9v.534h1.758v.5Z" transform="translate(-9.659 -9.884)" fill="#d3d5df"/>
          <path id="パス_23" data-name="パス 23" d="M42.685,39.541l-.249-.521H40.989l-.249.521h-.565l1.2-2.476h.659l1.215,2.476Zm-.974-1.994-.478.98h.955Z" transform="translate(-10.714 -9.885)" fill="#d3d5df"/>
          <path id="パス_24" data-name="パス 24" d="M47.467,39.541l-1.378-1.679v1.679H45.6V37.064h.491l1.378,1.673V37.064h.492v2.476Z" transform="translate(-12.161 -9.884)" fill="#d3d5df"/>
          <rect id="長方形_30" data-name="長方形 30" width="0.488" height="2.476" transform="translate(37.16 27.18)" fill="#d3d5df"/>
          <path id="パス_25" data-name="パス 25" d="M54.993,39.541l-1.377-1.679v1.679h-.491V37.064h.491l1.377,1.673V37.064h.492v2.476Z" transform="translate(-14.168 -9.884)" fill="#d3d5df"/>
          <path id="パス_26" data-name="パス 26" d="M59.319,39.591a1.33,1.33,0,1,1-.01-2.638,2.215,2.215,0,0,1,1.167.315l-.292.5a1.527,1.527,0,0,0-.9-.311.869.869,0,0,0-.965.813.85.85,0,0,0,.941.818,1.331,1.331,0,0,0,.756-.224v-.3h-.607V38.1h1.115v1.043a1.729,1.729,0,0,1-1.206.448" transform="translate(-15.42 -9.855)" fill="#d3d5df"/>
          <path id="パス_27" data-name="パス 27" d="M95.185,33.669c-8.286.6-15.191-4.722-16.572-5.841a3.867,3.867,0,0,0-2.475-.892v0a3.856,3.856,0,0,0-2.868.913,6.269,6.269,0,0,0-1.377,2,13.817,13.817,0,0,0-.863,1.725,8.832,8.832,0,0,0-.661,2.128,9.888,9.888,0,0,0,1.151-1.047,9.675,9.675,0,0,0-.583,2.29,6.385,6.385,0,0,0,1.387-1.807s.007.543.08,1.2c1.1-1.154,2.3-4.52,2.3-4.52s.188.745.221,1.067c.252-.109.5-1.641.5-1.641a1.146,1.146,0,0,1,.656-.427,15.106,15.106,0,0,0-.1,3.964c.392-.531.67-.994.67-.994a6.481,6.481,0,0,0,.293,2.274,9.667,9.667,0,0,0,.64-2.275,10.225,10.225,0,0,0,.468,1.5,13.79,13.79,0,0,0,.612-2.018,9.7,9.7,0,0,0,.2-1.9c2.086,1.7,8.83,6.073,16.49,4.629.494-.153.584-.4-.166-.325" transform="translate(-18.767 -7.181)" fill="#d3d5df"/>
          <path id="パス_28" data-name="パス 28" d="M111.534,30.244a32.009,32.009,0,0,1-1.262-3.038,6.762,6.762,0,0,0-.411-1,1.929,1.929,0,0,0-1.932,2.556,2.049,2.049,0,0,1-1.307-2.886,2.234,2.234,0,0,1,2.427-1.428,8.422,8.422,0,0,0-2.387-2.233c-.444-1.3-1.71-2.509-1.471-4.346a10.337,10.337,0,0,1,.528-2.631c.537-1.195,3.718-7.508,2.621-11.779,0,0-.916-3.708-2.882-3.442-.682.092.047,2.534-2.422,6.648a10.392,10.392,0,0,0-1.66,3.91,5.245,5.245,0,0,1-1.012,1.284,6.623,6.623,0,0,1,.588,2.292,14.767,14.767,0,0,0-4.256-3.562c-2.908-4.537-7.159-6.835-8.7-7.062s-.391.922-.1,1.14c4.651,2.274,9.5,7.422,9.614,12.032,0,0,.117.808-.417.889-.848.257-3.874-.789-4.346.144-.87,1.486,3.159,2.275,4.781,3.3,1.992,1.255,3.13,1.34,3.729,5.231,0,0,.625.166,1.741,1.647a11.526,11.526,0,0,0,5.786,3.578c2.273.478,4.292,2.788,4.589,2.493s-1.281-2.707-1.84-3.73" transform="translate(-23.257 0.001)" fill="#d3d5df"/>
          <path id="パス_29" data-name="パス 29" d="M73.164,23.637c1.742-2.183,5.971-4.121,7.246-4.423a23.834,23.834,0,0,1,7.63-.491,3.056,3.056,0,0,1-1.507-2.3c-.269-1.719.379-1.676-.243-2.567a13.65,13.65,0,0,0-11.955,7.206c-.332.638-1.9,1.588-1.922,2.06-.021.41.431.92.752.518" transform="translate(-19.312 -3.694)" fill="#d3d5df"/>
        </g>
      </g>
    </g>
    <text id="お家もセカイもキレイにする_SDGs時代のハウスクリーニング" data-name="お家もセカイもキレイにする
SDGs時代のハウスクリーニング" transform="translate(133 42)" fill="#d3d5df" font-size="10" font-family="Mplus1p-Regular, 'Mplus \31 p'" letter-spacing="0.1em"><tspan x="0" y="0">お</tspan><tspan y="0">家</tspan><tspan y="0">もセカイもキレイにする</tspan><tspan x="0" y="15">SDGs</tspan><tspan y="15">時代</tspan><tspan y="15">のハウスクリーニング</tspan></text>
  </g>
</svg>
