<svg xmlns="http://www.w3.org/2000/svg" width="32.03" height="25.241" viewBox="0 0 32.03 25.241">
  <g id="グループ_2303" data-name="グループ 2303" transform="translate(-8236.31 3930.141)">
    <path id="パス_12374" data-name="パス 12374" d="M4.31-6.03a2.187,2.187,0,0,0-1.655.63A2.423,2.423,0,0,0,2.05-3.65a2.372,2.372,0,0,0,.63,1.74,2.187,2.187,0,0,0,1.63.64,3.138,3.138,0,0,0,1.72-.55L6.51-.58A4.112,4.112,0,0,1,4.14.1,3.838,3.838,0,0,1,1.355-.91,3.633,3.633,0,0,1,.31-3.65,3.685,3.685,0,0,1,1.325-6.4a3.838,3.838,0,0,1,2.815-1,4.112,4.112,0,0,1,2.37.68L6.03-5.48A3.138,3.138,0,0,0,4.31-6.03ZM9.58-7.3v5.89h3.08V0H7.83V-7.3Zm4.4.91a3.649,3.649,0,0,1,2.7-1.01,3.632,3.632,0,0,1,2.695,1.01A3.713,3.713,0,0,1,20.38-3.65,3.713,3.713,0,0,1,19.375-.91,3.632,3.632,0,0,1,16.68.1,3.632,3.632,0,0,1,13.985-.91,3.713,3.713,0,0,1,12.98-3.65,3.723,3.723,0,0,1,13.98-6.39ZM15.23-1.9a1.817,1.817,0,0,0,1.45.6,1.8,1.8,0,0,0,1.445-.6,2.617,2.617,0,0,0,.515-1.75,2.617,2.617,0,0,0-.515-1.75A1.8,1.8,0,0,0,16.68-6a1.8,1.8,0,0,0-1.445.6,2.617,2.617,0,0,0-.515,1.75A2.635,2.635,0,0,0,15.23-1.9ZM25.92-5.6a4.453,4.453,0,0,0-2-.47,1.315,1.315,0,0,0-.79.2.637.637,0,0,0-.27.54q0,.56.84.8a5.083,5.083,0,0,1,2.095.98,1.929,1.929,0,0,1,.6,1.47,1.929,1.929,0,0,1-.72,1.62A3.426,3.426,0,0,1,23.55.1a4.747,4.747,0,0,1-1.31-.195A4.011,4.011,0,0,1,21.1-.6l.4-1.33a3.7,3.7,0,0,0,2.12.7,1.225,1.225,0,0,0,.785-.215.735.735,0,0,0,.265-.6.678.678,0,0,0-.215-.52,1.957,1.957,0,0,0-.755-.36,4.818,4.818,0,0,1-1.97-.975,1.894,1.894,0,0,1-.6-1.425,1.818,1.818,0,0,1,.715-1.51A3.181,3.181,0,0,1,23.85-7.4a5.494,5.494,0,0,1,2.38.48Zm3.45-.33v1.49h2.77v1.29H29.37v1.78h2.97V0H27.67V-7.3h4.67v1.37Z" transform="translate(8236 -3905)" fill="#d3d5df"/>
    <g id="グループ_2302" data-name="グループ 2302" transform="translate(7908 -3963)">
      <path id="パス_12330" data-name="パス 12330" d="M5688.055-17774.963l28.636,10.5" transform="translate(-5357.555 17808.463)" fill="none" stroke="#d3d5df" stroke-linecap="round" stroke-width="1"/>
      <path id="パス_12331" data-name="パス 12331" d="M5716.691-17774.963l-28.636,10.5" transform="translate(-5357.555 17808.463)" fill="none" stroke="#d3d5df" stroke-linecap="round" stroke-width="1"/>
    </g>
  </g>
</svg>
